<svg width="18" height="18" viewBox="0 0 18 18" fill="none" xmlns="http://www.w3.org/2000/svg">
<g id="ic:round-keyboard-arrow-down">
<path id="Vector" d="M4.14545 5.36586L9.00653 10.2269L13.8676 5.36586C13.9836 5.24987 14.1213 5.15786 14.2729 5.09508C14.4244 5.03231 14.5868 5 14.7509 5C14.9149 5 15.0773 5.03231 15.2289 5.09508C15.3804 5.15786 15.5181 5.24987 15.6341 5.36586C15.7501 5.48185 15.8421 5.61955 15.9049 5.77111C15.9677 5.92266 16 6.08509 16 6.24912C16 6.41316 15.9677 6.57559 15.9049 6.72714C15.8421 6.87869 15.7501 7.0164 15.6341 7.13239L9.88353 12.883C9.76762 12.9991 9.62995 13.0913 9.47839 13.1542C9.32682 13.217 9.16435 13.2494 9.00027 13.2494C8.83618 13.2494 8.67371 13.217 8.52215 13.1542C8.37058 13.0913 8.23291 12.9991 8.117 12.883L2.36639 7.13239C2.25025 7.01648 2.1581 6.87881 2.09523 6.72724C2.03236 6.57568 2 6.41321 2 6.24912C2 6.08504 2.03236 5.92257 2.09523 5.771C2.1581 5.61944 2.25025 5.48177 2.36639 5.36586C2.855 4.88977 3.65683 4.87725 4.14545 5.36586Z" fill="black"/>
</g>
</svg>
