<svg width="18" height="16" viewBox="0 0 18 16" fill="none" xmlns="http://www.w3.org/2000/svg">
<path d="M0.356251 7.60604L7.10625 0.856044C7.15796 0.804336 7.21935 0.763318 7.2869 0.735333C7.35446 0.70735 7.42688 0.692946 7.5 0.692946C7.57313 0.692946 7.64554 0.70735 7.7131 0.735334C7.78066 0.763318 7.84204 0.804336 7.89375 0.856044C7.94546 0.907751 7.98648 0.969137 8.01446 1.0367C8.04244 1.10426 8.05685 1.17667 8.05685 1.24979C8.05685 1.32292 8.04244 1.39533 8.01446 1.46289C7.98648 1.53045 7.94546 1.59184 7.89375 1.64354L2.10938 7.43729L17.25 7.43729C17.3992 7.43729 17.5423 7.49656 17.6477 7.60205C17.7532 7.70754 17.8125 7.85061 17.8125 7.99979C17.8125 8.14898 17.7532 8.29205 17.6477 8.39754C17.5423 8.50303 17.3992 8.56229 17.25 8.56229L2.10938 8.56229L7.89375 14.356C7.99818 14.4605 8.05685 14.6021 8.05685 14.7498C8.05685 14.8975 7.99818 15.0391 7.89375 15.1435C7.78932 15.248 7.64769 15.3066 7.5 15.3066C7.35231 15.3066 7.21068 15.248 7.10625 15.1435L0.356251 8.39354C0.302926 8.34276 0.260474 8.28167 0.231465 8.21399C0.202458 8.1463 0.187501 8.07343 0.187501 7.99979C0.187501 7.92615 0.202458 7.85328 0.231465 7.7856C0.260474 7.71791 0.302926 7.65683 0.356251 7.60604Z" fill="#8494A1"/>
</svg>
