<svg width="48" height="49" viewBox="0 0 48 49" fill="current" xmlns="http://www.w3.org/2000/svg">
<path d="M36.9974 22.2112C36.8434 13.5079 29.7401 6.5 21 6.5C12.1634 6.5 5 13.6634 5 22.5C5 26.6701 6.59531 30.4676 9.20892 33.3154L8.01043 40.5257L15.125 37.4699C18.2597 38.5122 21.218 38.7728 24 38.2516M38.7618 40.4293C37.0135 41.7302 34.8467 42.5 32.5 42.5C26.701 42.5 22 37.799 22 32C22 26.201 26.701 21.5 32.5 21.5C38.299 21.5 43 26.201 43 32C43 33.5997 42.6423 35.1159 42.0024 36.4728L43 42.5L38.7618 40.4293Z" stroke="current" stroke-width="1.5"/>
</svg>
