<svg width="500" height="500" viewBox="0 0 500 500" fill="none" xmlns="http://www.w3.org/2000/svg">
<path d="M180.555 41.6665C138.889 41.6665 125 74.5459 125 115.104C125 188.541 206.25 255.303 250 270.833C293.75 255.303 375 188.541 375 115.104C375 74.5459 357.414 41.6665 319.445 41.6665C296.193 41.6665 262.442 73.7196 250 92.5924C237.558 73.7196 203.807 41.6665 180.555 41.6665Z" stroke="#DFE6EB" stroke-width="1.5" stroke-linecap="round" stroke-linejoin="round"/>
<path d="M250 270.833C229.167 282.197 196.5 303.5 196.5 329.5C196.5 365.958 302.083 369.792 302.083 406.25C302.083 442.709 187.5 458.333 187.5 458.333" stroke="#DFE6EB" stroke-width="1.5" stroke-linecap="round" stroke-linejoin="round"/>
</svg>
