<?xml version="1.0" encoding="utf-8"?>
<!-- Generator: Adobe Illustrator 22.0.1, SVG Export Plug-In . SVG Version: 6.00 Build 0)  -->
<svg version="1.1" id="Layer_1" xmlns="http://www.w3.org/2000/svg" xmlns:xlink="http://www.w3.org/1999/xlink" x="0px" y="0px"
	 viewBox="0 0 128 128" style="enable-background:new 0 0 128 128;" xml:space="preserve">
<g>
	<path d="M64,122c32,0,58-26,58-58S96,6,64,6S6,32,6,64S32,122,64,122z M64,12c28.7,0,52,23.3,52,52s-23.3,52-52,52S12,92.7,12,64
		S35.3,12,64,12z"/>
	<circle cx="64" cy="39" r="9"/>
	<path d="M64,101c5,0,9-4,9-9V68c0-5-4-9-9-9s-9,4-9,9v24C55,97,59,101,64,101z"/>
</g>
</svg>