<svg width="190" height="45" viewBox="0 0 190 45" fill="none" xmlns="http://www.w3.org/2000/svg">
<path fill-rule="evenodd" clip-rule="evenodd" d="M129.326 18.8523C129.825 18.8599 130.325 18.8752 130.834 18.91C130.327 18.8766 129.824 18.8586 129.326 18.8523Z" fill="#1D1D1B">
<path fill-rule="evenodd" clip-rule="evenodd" d="M131.416 18.9617C131.801 18.995 132.184 19.0242 132.574 19.0729C132.185 19.0256 131.8 18.9943 131.416 18.9617Z" fill="#1D1D1B">
<path fill-rule="evenodd" clip-rule="evenodd" d="M78.557 3C78.557 3 79.7555 4.3806 78.4854 7.45949C77.2154 10.5377 73.8473 15.6006 76.1205 17.3044C76.1205 17.3044 76.2915 15.4052 78.5494 12.2492C80.8066 9.09314 84.5653 3.09663 78.557 3Z" fill="#1D1D1B">
<path fill-rule="evenodd" clip-rule="evenodd" d="M85.3832 22.3498C84.964 22.3505 84.5712 22.233 84.2778 21.9015C83.6299 21.1715 83.6939 19.7304 84.1611 18.8434C84.3314 18.5188 84.697 17.9967 85.2844 18.0057C85.3192 18.0064 85.3547 18.0085 85.3915 18.0134C85.9191 18.078 86.0881 18.3179 86.1763 18.5195C86.4878 19.2327 86.1562 20.6863 85.3832 22.3498ZM89.6772 20.7982C88.5483 21.5886 87.0613 21.9758 86.7443 22.0523C87.347 20.5688 87.655 19.0888 87.208 18.0683C87.005 17.6018 86.5476 17.02 85.5284 16.8956C84.5608 16.776 83.7009 17.2953 83.1635 18.3193C82.5107 19.5615 82.4336 21.5205 83.4346 22.6488C83.6904 22.9373 84.1374 23.2987 84.8354 23.428C84.4523 24.1239 84.0053 24.8358 83.5062 25.5288C82.0471 27.5552 80.729 27.8131 80.0943 27.7965C79.5333 27.2007 79.8517 25.0367 80.2049 23.0742C80.6178 20.7801 83.2539 17.419 83.2539 17.419C78.6338 17.3446 77.0279 22.0843 76.9793 25.1354C76.9417 27.4663 78.2799 28.4471 79.3234 28.7878L79.3171 28.8038C79.3408 28.8121 79.4902 28.8615 79.7273 28.8934C79.8886 28.9247 80.0359 28.94 80.1576 28.9421C80.2612 28.9442 80.3432 28.931 80.4106 28.9101C81.3873 28.8337 82.8931 28.3081 84.4204 26.1872C84.9487 25.4531 85.5771 24.4638 86.1214 23.4009C86.3821 23.3495 86.663 23.2709 86.9647 23.1583C87.2636 23.0888 88.973 22.6668 90.323 21.7214L89.6772 20.7982Z" fill="#1D1D1B">
<path fill-rule="evenodd" clip-rule="evenodd" d="M95.4284 22.5162C95.0217 22.5203 94.6171 22.3994 94.323 22.0671C93.6758 21.3379 93.7398 19.8961 94.2063 19.0091C94.3773 18.6844 94.7429 18.1623 95.3296 18.1721C95.3644 18.1728 95.3999 18.1749 95.4367 18.1797C95.9643 18.2444 96.134 18.4842 96.2222 18.6858C96.5337 19.399 96.2021 20.8526 95.4284 22.5162ZM99.7224 20.9646C98.5941 21.7543 97.1072 22.1422 96.7895 22.2186C97.3922 20.7345 97.7009 19.2552 97.2539 18.2346C97.0502 17.7682 96.5935 17.1863 95.5743 17.0619C94.6053 16.9389 93.7468 17.4616 93.2094 18.4849C92.5559 19.7272 92.4795 21.6861 93.4805 22.8151C93.7363 23.1036 94.1826 23.4651 94.8806 23.5944C94.4982 24.2902 94.0505 25.0021 93.5514 25.6952C92.0936 27.7216 90.7749 27.9795 90.1402 27.9635C89.5785 27.3677 89.8976 25.203 90.2508 23.2405C90.6637 20.9465 93.2991 17.5854 93.2991 17.5854C88.679 17.511 87.0738 22.2506 87.0252 25.301C86.9876 27.6319 88.3251 28.6128 89.3686 28.9534L89.363 28.9694C89.386 28.9784 89.5347 29.0264 89.769 29.0591C89.9324 29.0904 90.0811 29.1064 90.2035 29.1084C90.3078 29.1098 90.3898 29.0973 90.4572 29.0765C91.4339 28.9993 92.9397 28.4738 94.4663 26.3535C94.9939 25.6194 95.623 24.6302 96.1673 23.5673C96.4273 23.5158 96.7082 23.4366 97.0099 23.3247C97.3095 23.2551 99.0182 22.8332 100.368 21.8877L99.7224 20.9646Z" fill="#1D1D1B">
<mask id="mask0_3127_1488" style="mask-type:alpha" maskUnits="userSpaceOnUse" x="60" y="5" width="19" height="29">
<path fill-rule="evenodd" clip-rule="evenodd" d="M60 5.26636V33.3823H78.8022V5.26636L60 5.26636V5.26636Z" fill="white">
</mask>
<g mask="url(#mask0_3127_1488)">
<path fill-rule="evenodd" clip-rule="evenodd" d="M78.6911 26.7619C78.5347 26.4261 78.4249 26.089 78.3512 25.7539C76.8628 27.334 74.9177 29.3632 73.533 30.6784C72.9546 31.2283 72.4311 31.587 71.9702 31.822C70.1802 27.7831 76.6835 20.2009 76.6835 20.2009C72.6876 20.1362 70.3936 23.0108 69.1555 25.7414C67.672 26.7667 65.9605 27.642 64.8802 27.1943C62.6418 26.2662 64.1149 16.4303 67.5705 11.7435C71.0262 7.05737 73.0992 6.62151 74.3644 6.78278C75.6296 6.94406 77.8242 7.65105 76.8329 10.9378L78.1336 8.86203C78.1336 8.86203 77.7943 5.33545 73.5434 5.26732C69.2925 5.1985 63.533 8.81476 60.8691 16.8008C58.2052 24.7862 62.3484 28.6562 64.1524 28.6847C65.045 28.6993 66.7454 28.5978 68.3595 27.8992C68.0252 29.0462 67.8875 29.9722 67.882 30.3413C67.8597 31.7024 68.7454 33.3597 70.1329 33.3819C70.3331 33.3854 70.518 33.3653 70.6946 33.3347C71.583 33.2832 72.842 32.8898 74.3095 31.4953C75.5969 30.2718 77.3613 28.4414 78.8023 26.9176C78.7585 26.8766 78.7203 26.8251 78.6911 26.7619Z" fill="#1D1D1B">
</g>
<path fill-rule="evenodd" clip-rule="evenodd" d="M120.479 33.3132C119.804 33.3209 119.132 33.2298 118.518 33.0352L118.446 33.0115C118.358 32.9837 118.27 32.9559 118.192 32.9274C117.781 32.7661 117.395 32.5583 117.047 32.308C116.66 32.03 116.31 31.7477 116.005 31.4738C115.174 30.4624 114.955 29.1096 115.353 27.453C115.929 25.0616 118.01 22.4165 120.384 21.0359C121.673 20.493 123.071 20.0801 124.54 19.8062C125.86 21.843 126.181 24.5945 126.16 25.9264C126.122 28.2649 124.641 33.3716 120.479 33.3132ZM135.142 18.9163C132.303 18.3484 129.551 18.1544 126.969 18.3394C126.16 17.738 125.357 17.2083 124.645 16.7391C122.485 15.3147 120.924 14.2851 120.951 12.6028C120.99 10.1642 123.344 7.81662 125.107 7.84512C125.986 7.87501 126.73 8.24206 127.202 8.87814C127.289 8.99562 127.361 9.12423 127.427 9.257C127.909 10.0092 127.997 10.947 127.8 11.8792C126.606 14.3998 125.64 16.9977 127.144 18.1245C127.144 18.1245 127.316 16.226 129.573 13.07C131.831 9.91324 135.589 3.91743 129.581 3.8208C129.581 3.8208 130.779 5.2014 129.509 8.2796C129.326 8.72381 129.098 9.20973 128.851 9.72068C128.851 9.7179 129.011 6.15865 124.331 6.08357C123.745 6.07453 123.196 6.1371 122.685 6.25875C121.697 6.43741 120.736 6.81349 119.911 7.35781C119.683 7.54689 119.474 7.73737 119.296 7.92298C117.759 9.53229 117.14 11.5844 117.216 12.8107C117.367 15.2459 119.3 16.5493 122.371 17.8632C122.853 18.0689 123.303 18.379 123.718 18.787C123.58 18.8148 123.444 18.8434 123.312 18.8739C116.951 20.3407 113.771 24.021 113.297 25.4745C112.616 27.5594 112.352 30.324 116.39 33.2236C116.42 33.2458 116.454 33.2625 116.485 33.284C117.461 33.7568 118.436 34.0397 119.475 34.2267C121.138 34.3358 122.744 34.1655 124.313 33.599C124.325 33.5934 124.341 33.5871 124.353 33.5816C127.401 32.5847 129.238 31.2987 129.814 29.7582C131.017 26.5444 130.951 22.2052 128.239 19.4203C130.386 19.3592 132.623 19.5615 134.922 20.0203L135.198 20.0759L135.418 18.9713L135.142 18.9163Z" fill="#1D1D1B">
<path fill-rule="evenodd" clip-rule="evenodd" d="M146.09 24.9384C144.138 29.1559 141.976 28.9182 141.445 28.7833C140.757 28.3315 141.09 26.0458 141.461 23.9825C141.874 21.6885 144.51 18.3266 144.51 18.3266C139.89 18.2523 138.284 22.9919 138.236 26.043C138.227 26.5296 138.28 26.9564 138.377 27.3318C136.946 28.9578 135.663 28.807 135.272 28.7076C134.583 28.2564 134.916 25.97 135.287 23.9067C135.7 21.6127 138.337 18.2509 138.337 18.2509C133.716 18.1765 132.111 22.9161 132.061 25.9672C132.02 28.5442 133.659 29.4709 134.722 29.7065L134.72 29.7121C134.766 29.7315 135.14 29.8803 135.715 29.89C136.502 29.9026 137.666 29.6481 138.879 28.4434C139.444 29.2602 140.269 29.6433 140.897 29.7816L140.894 29.7879C140.94 29.8066 141.314 29.9561 141.89 29.9651C143.124 29.9853 145.285 29.3589 147.113 25.4118L146.09 24.9384Z" fill="#1D1D1B">
<path fill-rule="evenodd" clip-rule="evenodd" d="M168.132 26.6478C166.39 29.4869 164.656 29.2916 164.189 29.1727C163.501 28.7215 163.834 26.4358 164.206 24.3719C164.618 22.0778 167.254 18.7167 167.254 18.7167C162.633 18.6423 161.029 23.3819 160.979 26.4323C160.938 29.0093 162.576 29.936 163.64 30.1716L163.638 30.1772C163.684 30.1967 164.058 30.3454 164.633 30.3552C165.569 30.3698 167.039 30.0097 168.492 28.1146C168.203 27.7045 168.102 27.181 168.132 26.6478Z" fill="#1D1D1B">
<path fill-rule="evenodd" clip-rule="evenodd" d="M179.504 25.4957C178.796 26.553 177.723 27.8356 176.754 28.6059C176.27 29.0216 175.996 28.8582 175.979 27.8071C175.962 26.7525 177.764 21.65 177.679 20.3487C177.594 19.0473 176.121 18.9757 176.121 18.9757L176.122 18.9771C175.565 18.9333 174.839 19.2614 173.915 19.9761C173.01 20.6775 171.169 23.5006 169.758 25.7904C170.669 22.2013 172.223 18.8499 172.223 18.8499C168.562 18.7908 167.169 22.1492 167.178 26.0226C167.185 29.8961 169.115 30.3737 169.115 30.3737C169.105 29.9169 169.128 29.4373 169.176 28.9444C170.366 26.9145 171.981 24.293 173.204 22.5676C173.697 21.9024 174.047 21.5819 174.536 21.2823C175.235 20.8541 175.013 22.2388 174.494 23.8822C173.976 25.5256 173.919 27.9781 173.919 27.9781L173.922 27.9719C173.849 28.7317 173.903 29.3497 174.145 29.7717C174.327 30.0907 174.607 30.2993 174.955 30.3737C175.069 30.3987 175.185 30.4119 175.301 30.4133C177.433 30.4474 179.938 26.8742 180.441 26.122L179.504 25.4957Z" fill="#1D1D1B">
<path fill-rule="evenodd" clip-rule="evenodd" d="M108.067 12.4122C109.658 8.83211 111.324 7.15885 111.763 7.0365C112.453 8.18005 109.43 16.7688 105.835 22.3865C105.884 17.8609 107.358 14.0062 108.067 12.4122ZM112.291 6.03337C112.198 5.98332 112.098 5.94648 111.989 5.92701C111.952 5.91658 111.924 5.91033 111.924 5.91033C110.625 5.75391 108.962 8.35175 108.305 9.47306C106.052 13.3152 104.344 18.6305 104.717 24.0076C101.616 28.196 100.26 28.0389 100.153 28.0194C100.104 27.9972 100.054 27.9902 100.004 27.9826C99.5776 27.3972 99.759 25.7351 100.039 24.0604C101.623 18.5415 104.822 18.2947 104.822 18.2947C103.963 17.4487 102.656 17.5794 101.727 17.8276C101.614 17.8554 101.506 17.8901 101.398 17.9242C101.306 17.9541 101.222 17.9826 101.144 18.0111C101.04 18.05 100.936 18.0869 100.837 18.1314C100.703 18.1877 100.622 18.2273 100.622 18.2273L100.62 18.2412C97.9787 19.5822 96.9804 22.992 96.9422 25.3785C96.8928 28.4303 99.2022 29.1713 100.12 29.1859C100.21 29.1873 100.281 29.1769 100.344 29.1609C100.914 29.1289 101.801 28.7945 103.067 27.6211L103.056 27.6364C103.56 27.2339 104.21 26.6312 104.94 25.8866C105.384 28.5964 106.396 31.2797 108.187 33.7566C108.296 33.9061 108.464 33.9874 108.636 33.9902C108.752 33.9916 108.871 33.9575 108.974 33.8831C109.226 33.701 109.283 33.3493 109.101 33.0969C107.157 30.4087 106.258 27.5439 105.959 24.8105C109.221 21.2568 113.411 15.6614 114.204 11.7894C115.051 7.64477 113.128 6.38095 112.291 6.03337Z" fill="#1D1D1B">
<path fill-rule="evenodd" clip-rule="evenodd" d="M157.046 22.6689C157.195 18.3693 158.584 14.7468 159.266 13.2147C160.898 9.5421 162.608 7.87648 162.972 7.82226C162.974 7.82295 163.093 7.94252 163.116 8.45625C163.234 11.1333 160.594 18.2637 157.099 22.6112C157.081 22.6321 157.064 22.6488 157.046 22.6689ZM163.176 6.7093L163.179 6.72181C163.161 6.71903 163.14 6.71486 163.123 6.71277C161.818 6.56609 160.161 9.1542 159.503 10.2755C157.404 13.8556 155.781 18.7155 155.872 23.7124C154.691 24.5083 153.669 24.4499 152.725 24.3923C151.912 24.037 154.269 20.9206 154.29 19.6533C154.306 18.6432 153.216 18.45 152.771 18.4124C152.711 18.4055 152.651 18.4034 152.59 18.4034H152.585C152.176 18.4076 151.777 18.5584 151.592 18.6307C150.253 19.1556 148.929 21.0561 147.859 23.0429C148.7 20.4819 149.626 18.4861 149.626 18.4861C145.964 18.4277 144.572 21.7854 144.58 25.6595C144.588 29.533 146.518 30.0099 146.518 30.0099C146.508 29.5865 146.527 29.143 146.568 28.6884L146.578 28.6919C147.317 26.6488 149.514 21.4851 151.469 20.003C152.31 19.7861 151.995 19.6978 151.047 22.0308C150.091 24.3811 151.676 25.257 151.676 25.257L151.678 25.2563C151.864 25.3849 152.112 25.4844 152.447 25.5038L152.655 25.5163C153.573 25.5747 154.678 25.638 155.93 24.9887C156.186 28.2678 157.221 31.5643 159.386 34.5591C159.494 34.7085 159.662 34.7892 159.834 34.7919C159.952 34.794 160.071 34.7593 160.173 34.6856C160.425 34.5028 160.481 34.151 160.299 33.8987C158.063 30.8052 157.199 27.4767 157.055 24.3853C157.158 24.2755 157.261 24.1573 157.364 24.0405L157.327 24.0996C158.436 23.4871 159.464 22.6835 160.274 21.7214C160.701 21.2146 161.088 20.6682 161.539 20.183C161.605 20.1121 161.674 20.0426 161.742 19.9738C163.532 17.4093 165.016 14.7336 165.455 12.5883C166.525 7.35928 163.176 6.7093 163.176 6.7093Z" fill="#1D1D1B">
<path fill-rule="evenodd" clip-rule="evenodd" d="M185.5 26.5444C185.402 26.4714 185.334 26.3748 185.287 26.2712C185.11 26.5437 184.924 26.8155 184.731 27.0845C183.273 29.1088 181.955 29.3695 181.32 29.3535C180.757 28.7585 181.076 26.593 181.429 24.6299C181.842 22.3358 184.478 18.974 184.478 18.974C179.858 18.8996 178.253 23.64 178.204 26.6904C178.167 28.9726 179.449 29.9618 180.482 30.3226C180.504 30.333 180.519 30.3504 180.542 30.3588C180.565 30.3678 180.713 30.4158 180.948 30.4477C181.111 30.4797 181.259 30.4957 181.382 30.4978C181.486 30.4992 181.569 30.4867 181.636 30.4651C182.613 30.3886 184.119 29.8624 185.645 27.7428C185.733 27.6205 185.824 27.4898 185.917 27.3542C185.871 27.0386 185.756 26.7355 185.5 26.5444Z" fill="#1D1D1B">
<path fill-rule="evenodd" clip-rule="evenodd" d="M170.001 6.75928C170.001 6.75928 170.734 8.04047 169.246 10.2796C167.759 12.5194 164.299 16.0022 165.833 17.7075C165.833 17.7075 166.266 16.2302 168.548 14.0836C170.829 11.9369 174.745 7.77561 170.001 6.75928Z" fill="#1D1D1B">
<path fill-rule="evenodd" clip-rule="evenodd" d="M149.729 30.7743C149.729 30.7743 150.117 29.3499 152.752 28.8188C155.387 28.287 160.297 28.2703 160.418 25.9805C160.418 25.9805 159.067 26.7187 155.936 26.6228C152.805 26.5276 147.094 26.7021 149.729 30.7743Z" fill="#1D1D1B">
<path fill-rule="evenodd" clip-rule="evenodd" d="M175.884 43.1129C174.47 43.0754 174.356 42.5033 174.318 42.3149C173.936 40.3893 177.856 35.7316 182.538 32.6903C181.264 37.5405 179.446 42.3802 175.884 43.1129ZM188.16 19.0914C188.134 19.0935 188.108 19.0963 188.081 19.0991C188.051 19.1019 188.024 19.1033 187.993 19.1067V19.1088C187.383 19.186 186.796 19.4599 186.456 20.1349C185.515 22.0084 184.676 23.7129 183.34 29.414C183.208 29.9764 183.072 30.5527 182.931 31.1345C177.905 34.1383 172.642 39.6566 173.214 42.5338C173.362 43.2846 173.942 44.189 175.855 44.2398H175.895C180.15 44.3086 183.232 37.3702 185.266 31.1853L185.688 29.861C185.693 29.8471 185.697 29.8338 185.701 29.8206C185.703 29.7831 185.695 29.7483 185.705 29.7073C185.997 28.4762 186.316 27.3445 186.7 26.1446C186.992 25.2325 187.128 24.3212 187.552 23.4793C187.59 23.35 187.626 23.2193 187.67 23.0935C187.661 23.1053 187.652 23.1165 187.643 23.129C188.586 20.1641 189.628 19.6392 189.715 19.601L189.976 19.5308C189.976 19.5308 189.736 18.9475 188.16 19.0914Z" fill="#1D1D1B">
<path fill-rule="evenodd" clip-rule="evenodd" d="M182.859 19.1669C182.859 19.1669 185.578 18.3286 186.221 19.7578C186.221 19.7578 182.741 19.4248 181.429 24.6295L180.729 22.1075L182.859 19.1669Z" fill="#1D1D1B">
<path fill-rule="evenodd" clip-rule="evenodd" d="M34.9889 7.95704L29.5402 6.47266L29.2812 7.38992L33.9409 10.1463L35.2998 9.21272L38.2362 14.1069L38.8049 13.0824L41.8957 16.4463L43.4911 10.2733L34.9889 7.95704Z" fill="#00A0A8">
<path fill-rule="evenodd" clip-rule="evenodd" d="M1.84961 8.03659L1.84992 8.0369C2.00495 8.57444 2.16184 9.10704 2.32149 9.63224C2.44848 9.50187 2.58071 9.38259 2.71478 9.26793C2.74283 9.24389 2.77057 9.21954 2.79923 9.19611C2.92868 9.08947 3.06029 8.98868 3.19375 8.89529C3.22211 8.87557 3.25047 8.85738 3.27882 8.83796C3.39749 8.75752 3.51708 8.6817 3.63697 8.61081C3.66348 8.5954 3.68968 8.57844 3.71588 8.56334C3.84718 8.48844 3.97817 8.41971 4.10886 8.35498C4.15108 8.33403 4.193 8.31399 4.23523 8.29396C4.36067 8.23478 4.4855 8.17837 4.60817 8.12783H4.60848L3.54975 7.70557L1.84961 8.03659Z" fill="#00A0A8">
<path fill-rule="evenodd" clip-rule="evenodd" d="M29.6182 5.23975L29.5898 7.16951C29.5898 7.16951 40.8679 10.8826 43.0954 12.2752L44.0348 9.36988L29.6182 5.23975Z" fill="#00777C">
<path fill-rule="evenodd" clip-rule="evenodd" d="M3.74016 6.47266C2.74584 6.70012 2.0018 6.90385 1.54102 7.03916C1.63471 7.38005 1.73119 7.71447 1.82735 8.04858L3.52749 7.71755L4.58622 8.13951C5.05564 7.94656 5.5004 7.81403 5.87519 7.72526C5.28742 7.21762 4.4053 6.74666 3.81814 6.50471L3.74016 6.47266Z" fill="#00777C">
<path fill-rule="evenodd" clip-rule="evenodd" d="M33.9688 32.7486C34.199 32.3908 34.4462 32.0268 34.6891 31.6575C34.9693 31.1147 35.2615 30.5784 35.5756 30.0591C35.9226 29.4846 36.2314 28.8358 36.6528 28.3072C36.6432 28.2801 36.6355 28.2517 36.6253 28.2249C36.4333 28.06 36.2484 27.8858 36.0397 27.7397C35.6298 27.8307 35.272 28.1244 34.8685 28.2421C34.8287 28.2535 34.7921 28.2557 34.7575 28.2523C34.057 29.1166 33.5395 30.2101 33.0109 31.1792C32.7406 31.6751 32.4336 32.1285 31.9805 32.4071C31.9506 32.4463 31.9207 32.4857 31.8905 32.5248C31.8606 32.5218 31.8295 32.5245 31.7989 32.5236C31.586 32.7061 31.3351 32.7924 31.0851 32.9459C30.8931 33.0636 30.7143 33.1962 30.5414 33.3364C30.5294 33.3802 30.5205 33.4252 30.5137 33.4702C30.5383 33.492 30.5627 33.5155 30.5818 33.55C30.6434 33.6616 30.7115 33.7679 30.784 33.8708C31.1803 34.1168 31.5166 34.4444 31.8846 34.7317C31.9198 34.7234 31.9558 34.7163 31.9897 34.7064C32.068 34.7539 32.1509 34.7853 32.2351 34.8063C32.6465 34.4759 32.9939 34.0737 33.4134 33.758C33.402 33.717 33.389 33.676 33.3702 33.6347C33.5835 33.3527 33.7771 33.0467 33.9688 32.7486Z" fill="#00777C">
<path fill-rule="evenodd" clip-rule="evenodd" d="M36.5581 17.6606C36.7267 17.561 36.8666 17.4131 36.9801 17.2568C36.9425 16.7104 36.7236 16.1802 36.0628 16.0273L36.0625 16.0283C36.5137 16.7624 36.5581 17.6606 36.5581 17.6606Z" fill="#EEA52D">
<path fill-rule="evenodd" clip-rule="evenodd" d="M35.82 19.4409C34.4016 20.2519 32.3741 19.9171 32.3741 19.9171C34.4176 19.8432 35.1558 18.4932 35.1558 18.4932C35.1558 18.4932 33.2002 19.7285 30.8223 18.712C30.8223 18.712 31.8909 22.5016 35.82 19.4409Z" fill="#EEA52D">
<path fill-rule="evenodd" clip-rule="evenodd" d="M31.9769 17.2519C31.972 17.0508 31.9831 16.8467 32.0065 16.6438C31.7689 16.722 31.4385 16.7954 31.1309 16.75C31.5642 17.08 31.9769 17.2519 31.9769 17.2519Z" fill="#EEA52D">
<path fill-rule="evenodd" clip-rule="evenodd" d="M32.3253 23.2872C32.3253 23.2872 31.4931 22.5949 30.5281 22.5L30.1582 22.6507C30.1545 22.6526 29.8897 22.7657 29.5898 22.995C30.3203 22.9232 31.1414 22.8991 31.6472 23.065L32.3253 23.2872Z" fill="#EEA52D">
<path fill-rule="evenodd" clip-rule="evenodd" d="M28.2677 22.7263C28.4603 22.4896 28.6718 22.2911 28.8746 22.1317C28.3084 21.5911 27.9527 20.8896 27.7409 20.3431L27.7403 20.3425C27.7403 20.3425 27.7215 21.8405 28.2677 22.7263Z" fill="#EEA52D">
<path fill-rule="evenodd" clip-rule="evenodd" d="M37.7912 22.7879C37.6442 23.208 37.2814 23.457 36.9686 23.6003C36.9686 23.6003 37.7696 23.8127 38.0982 23.3818C38.0982 23.3818 40.3673 23.3427 41.2657 22.938C40.1861 23.6201 36.1169 26.1197 33.1189 27.0111C33.1189 27.0111 33.388 24.767 34.324 24.369C34.324 24.369 32.7419 24.0109 31.5621 25.2296C32.1782 24.9818 32.9426 24.7734 33.568 24.9066C33.568 24.9066 30.6476 26.0032 30.213 27.3649L30.1609 26.3342C30.1258 25.6401 30.3751 24.8144 30.6041 24.2165C29.9359 24.2257 29.0239 24.3441 28.3951 24.4637L28.0906 24.5216C28.025 24.8455 27.9753 25.1892 27.9673 25.5184C27.9673 25.5184 28.9832 24.9328 29.6422 25.0514C29.6422 25.0514 29.182 26.668 29.4545 28.2797C29.4545 28.2797 29.1836 27.7835 27.4316 27.5693C27.4316 27.5693 27.4323 27.5699 27.4323 27.5702C29.5654 29.14 30.1618 31.8375 30.3104 32.8072C30.4821 32.9033 30.708 33.0448 30.9648 33.2414C31.653 32.4903 33.6358 30.1457 33.8691 27.834L33.907 27.4608L34.2556 27.3227C37.5727 26.0094 41.3709 24.2242 41.8939 23.5612C41.897 23.0502 41.8748 22.7056 41.8554 22.5C40.2489 22.9374 37.7912 22.7879 37.7912 22.7879Z" fill="#EEA52D">
<path fill-rule="evenodd" clip-rule="evenodd" d="M42.9677 20.4325C42.4373 20.3521 41.7475 20.1631 41.3181 19.7261C41.3634 20.0281 41.5182 20.3977 41.9725 20.6282C41.9725 20.6282 41.5219 21.8244 37.9102 22.2325C37.9182 22.354 37.9139 22.4313 37.9139 22.4313C40.7741 22.4618 42.4379 21.4909 42.4379 21.4909C42.7329 21.2687 43.1052 20.885 42.9206 20.4529L42.9677 20.4325Z" fill="#EEA52D">
<path fill-rule="evenodd" clip-rule="evenodd" d="M12.6943 28.436C14.0215 27.2876 14.7557 25.5597 15.133 24.3494C14.3818 25.2457 12.9323 26.2785 10.1719 27.2038C11.3542 29.1967 12.5637 31.0004 13.7756 32.6303C13.2473 29.8594 15.2146 27.8628 15.2146 27.8628C14.2148 27.6264 12.6943 28.436 12.6943 28.436Z" fill="#EEA52D">
<path fill-rule="evenodd" clip-rule="evenodd" d="M13.5045 24.1841C13.4361 24.4054 13.3541 24.6372 13.2539 24.8727C13.9736 24.4578 14.7331 23.8774 15.1982 23.1165C14.7266 23.8072 13.9825 24.0781 13.5045 24.1841Z" fill="#EEA52D">
<path fill-rule="evenodd" clip-rule="evenodd" d="M12.5462 23.1165C10.2829 23.9144 9.48866 25.2536 9.24609 25.8128C9.4415 26.1592 9.63753 26.4998 9.83448 26.8351L11.2452 25.5649C12.0037 24.8822 12.3717 23.8546 12.5462 23.1165Z" fill="#EEA52D">
<path fill-rule="evenodd" clip-rule="evenodd" d="M31.7586 38.2977C31.5505 38.5951 31.2442 39.471 30.6718 39.4997C30.0997 39.5287 29.6035 38.5341 29.3985 38.895C29.3985 38.895 27.5683 30.4892 20.0352 36.2021C21.9159 36.0581 26.5263 36.1799 28.5861 40.4857L28.7454 40.8189L27.5357 42.4666C27.839 42.6435 28.2415 42.8029 28.6144 42.7619C28.9781 42.7212 29.2953 42.4974 29.5847 42.0777L29.7576 41.8274L30.0612 41.812C30.1241 41.8083 31.6618 41.7056 31.6911 40.5856L31.7028 40.1331L32.1386 40.0089C32.1349 40.0092 32.3562 39.9232 32.5002 39.6144C32.6031 39.3928 32.6786 39.0368 32.6043 38.4823C32.2406 38.297 31.86 38.1528 31.7586 38.2977Z" fill="#EEA52D">
<path fill-rule="evenodd" clip-rule="evenodd" d="M24.6357 20.959C24.1114 21.1837 23.8876 21.433 23.8747 21.4481L22.9873 22.4622L22.7925 21.1368C22.7919 21.1325 22.7919 21.1285 22.7913 21.1245C22.2584 22.1364 21.5458 23.2469 20.6504 24.1327L22.0975 24.0597C22.3407 23.7998 22.5968 23.4747 22.7703 23.1128L23.2456 23.8217C23.2456 23.8217 23.5837 22.8169 23.9841 22.5417C23.9841 22.5417 24.451 24.8444 25.1156 25.3844C25.1156 25.3844 24.7497 23.9592 24.7087 22.6542C24.5928 22.0381 24.5934 21.4383 24.6357 20.959Z" fill="#EEA52D">
<path fill-rule="evenodd" clip-rule="evenodd" d="M19.6253 25.5823L17.2598 25.7016L18.5336 26.5464C18.9094 26.1904 19.2817 25.8637 19.6253 25.5823Z" fill="#EEA52D">
<path fill-rule="evenodd" clip-rule="evenodd" d="M22.6395 18.0234C22.7557 17.2836 22.9557 16.6213 23.2127 16.0273C23.0895 16.0332 22.9495 16.0483 22.8007 16.0705C22.6145 16.6493 22.1713 17.7078 21.2676 18.4956C21.3813 19.0929 21.4957 19.9929 21.3899 20.8716C22.1488 19.4951 22.5754 18.2206 22.6395 18.0234Z" fill="#EEA52D">
<path fill-rule="evenodd" clip-rule="evenodd" d="M21.3349 16.442C21.2017 16.4741 21.072 16.4923 20.9456 16.4987C20.1467 16.5391 19.5013 16.1073 19.1299 15.7192C19.1037 15.9871 19.0994 16.2124 19.136 16.3394C19.2664 16.79 20.0138 17.542 20.7147 17.7858C20.9989 17.3864 21.2621 16.9278 21.4508 16.4143C21.4415 16.4164 21.4307 16.4189 21.4218 16.4211L21.3349 16.442Z" fill="#EEA52D">
<path fill-rule="evenodd" clip-rule="evenodd" d="M21.076 25.8904C20.2841 26.4711 18.9261 27.5545 17.877 28.8521C18.4191 28.7852 19.0312 28.7408 19.5783 28.7769C19.7777 28.1462 20.2364 26.946 21.076 25.8904Z" fill="#EEA52D">
<path fill-rule="evenodd" clip-rule="evenodd" d="M25.8906 13.9258C25.9218 13.8977 28.5324 11.5506 30.0161 11.4757C30.0161 11.4757 29.7384 11.0436 29.2616 11.0676C29.2616 11.0676 30.2402 9.66308 30.4347 8.61884C30.1055 8.49062 29.7693 8.3849 29.4318 8.32202C29.0311 9.55367 28.5099 10.7292 28.0583 11.6474C28.3699 11.5204 28.5666 11.4622 28.5777 11.4591C28.5777 11.4591 27.1676 12.3437 25.8906 13.9258Z" fill="#EEA52D">
<path fill-rule="evenodd" clip-rule="evenodd" d="M16.9432 30.1974L16.6445 30.2652C17.0619 30.3814 17.7196 30.5698 18.2417 30.7405C18.5105 30.4187 18.7731 30.1358 19.0135 29.8972C18.2944 29.9407 17.4847 30.0744 16.9432 30.1974Z" fill="#EEA52D">
<path fill-rule="evenodd" clip-rule="evenodd" d="M19.0033 12.5561C19.6743 9.24338 22.4134 8.19173 22.4473 8.1791L22.5762 8.14704C23.6793 7.99725 24.6215 8.24351 25.3773 8.88369C26.1228 9.51461 26.547 10.4269 26.7877 11.2406C26.9979 10.8202 27.2284 10.3339 27.4562 9.81081C27.1366 9.01591 26.4197 7.53615 25.2056 6.56649C25.2056 6.56649 25.3427 7.38821 25.2682 7.80615C25.2682 7.80615 22.4381 5.39988 20.075 5.93341C20.075 5.93341 20.9349 6.5591 21.2659 7.43475C21.2659 7.43475 16.7308 5.97471 13.1114 8.13317C13.1114 8.13317 16.4038 8.33413 17.8459 10.3881C17.8459 10.3881 14.2114 11.4213 12.6367 14.0994V14.0997C14.9826 13.077 17.8715 12.6794 19.0033 12.5561Z" fill="#EEA52D">
<path fill-rule="evenodd" clip-rule="evenodd" d="M10.1125 13.2534C7.8662 14.2302 5.729 16.1325 4.93164 16.8879C5.33048 17.8853 5.73887 18.851 6.15527 19.7861C6.35407 18.5492 7.12801 15.7158 10.1125 13.2534Z" fill="#EEA52D">
<path fill-rule="evenodd" clip-rule="evenodd" d="M9.2294 8.40332C9.2294 8.40332 8.42032 6.24641 5.7234 5.8562C6.46498 6.30867 7.28238 6.94606 7.60107 7.69288L7.94104 8.4887L7.07741 8.54973C7.04967 8.55189 4.20604 8.79199 2.77344 10.8235C3.21789 12.2074 3.68114 13.5389 4.1595 14.8229C4.08676 13.0463 4.63416 9.80757 9.2294 8.40332Z" fill="#EEA52D">
<path fill-rule="evenodd" clip-rule="evenodd" d="M18.337 20.929C15.948 17.162 12.9453 19.5442 12.9453 19.5442C16.316 18.7684 18.337 20.929 18.337 20.929Z" fill="#EEA52D">
<path fill-rule="evenodd" clip-rule="evenodd" d="M25.5826 18.8606C25.5826 18.8606 26.6876 16.1279 29.5552 15.4893C29.5552 15.4893 25.5265 14.5933 25.5826 18.8606Z" fill="#EEA52D">
<path fill-rule="evenodd" clip-rule="evenodd" d="M27.7533 40.0569C27.8091 39.4744 27.2272 38.9489 26.6514 39.0876C26.5155 39.1205 26.391 39.1717 26.2726 39.2321C23.7039 36.9886 19.9387 37.6808 19.7446 37.7188L18.9395 37.8753L19.0122 37.0585C19.077 36.3382 19.1898 35.6595 19.3303 35.0308C18.9435 34.1804 18.7271 32.9611 19.3525 31.4385C18.3724 32.569 17.232 34.3364 16.9512 36.6511C18.9284 38.8589 20.8523 40.6357 22.6098 42.0489C22.6224 42.2178 22.6834 42.391 22.8104 42.5556C23.2043 43.066 23.7533 43.3286 24.3879 43.3878C24.8052 43.427 25.1846 43.1493 25.3255 42.7671C25.3292 42.7575 25.3335 42.7483 25.3369 42.7384C25.6026 42.7412 25.8707 42.6287 26.0658 42.3436C26.2307 42.1029 26.3953 41.8621 26.5602 41.6214C26.6009 41.5619 26.7408 41.3406 26.8552 41.1576C27.3813 41.0182 27.7025 40.5867 27.7533 40.0569Z" fill="#EEA52D">
<path fill-rule="evenodd" clip-rule="evenodd" d="M16.3791 27.7397C16.3645 27.7543 16.3505 27.7695 16.3359 27.7841C16.3499 27.7689 16.3657 27.7556 16.3791 27.7397Z" fill="#58B893">
<path fill-rule="evenodd" clip-rule="evenodd" d="M12.6872 23.3013C12.7024 23.2405 12.7206 23.1754 12.7346 23.1165C12.7006 23.1286 12.6702 23.142 12.6367 23.1542C12.6531 23.2034 12.6671 23.2539 12.6872 23.3013Z" fill="#58B893">
<path fill-rule="evenodd" clip-rule="evenodd" d="M15.4102 29.1514C15.581 29.1301 15.7574 29.1113 15.9343 29.093C15.9155 28.9465 15.8729 28.8036 15.82 28.6643C15.682 28.8255 15.5433 28.9866 15.4102 29.1514Z" fill="#58B893">
<path fill-rule="evenodd" clip-rule="evenodd" d="M12.9159 19.7882C12.9159 19.7882 15.9186 17.406 18.3079 21.173C18.3079 21.173 16.2866 19.0127 12.9159 19.7882ZM18.5477 26.606L17.2714 25.7596L15.4017 25.854L18.4096 24.5095C19.7874 23.8937 20.8661 22.4256 21.6185 21.0593C21.723 20.1818 21.6086 19.2833 21.4949 18.6876C20.9299 19.1795 20.1853 19.566 19.2082 19.6618C19.2082 19.6618 20.1625 19.0207 20.9521 17.9121C20.2521 17.6667 19.5069 16.9168 19.3768 16.4665C19.3398 16.3395 19.3441 16.1133 19.3706 15.8449C19.2994 15.7712 19.2372 15.6988 19.1872 15.6316L19.0889 15.499L19.0698 15.3354C19.0522 15.1846 19.0449 15.0426 19.0347 14.898C19.0193 14.8915 19.0011 14.8844 18.9891 14.8786C19.0023 14.857 19.0159 14.8361 19.0279 14.8139C19.01 14.5251 19.0014 14.2437 19.0097 13.9777C18.0176 14.0991 16.1538 14.3839 14.4108 14.9615C15.1665 15.283 16.0413 15.7644 16.7237 16.4514L17.8785 17.614C17.8785 17.614 13.8057 16.334 10.3275 18.6281C11.3517 17.1159 13.1369 16.5602 14.4958 16.3627C13.4843 15.8393 12.502 15.6236 12.4875 15.6205L10.7387 15.246L12.3463 14.4634C12.489 14.3941 12.6379 14.3312 12.7855 14.2668V14.2646C14.3602 11.5865 17.9947 10.5533 17.9947 10.5533C16.5526 8.49937 13.2599 8.29872 13.2599 8.29872C16.8796 6.13995 21.4147 7.59999 21.4147 7.59999C21.0837 6.72465 20.2235 6.09865 20.2235 6.09865C22.5866 5.56513 25.417 7.9717 25.417 7.9717C25.4913 7.55345 25.3544 6.73204 25.3544 6.73204C26.5676 7.70078 27.2842 9.179 27.6041 9.97451C28.1577 8.7031 28.6927 7.20947 28.8653 5.8792C28.5389 6.1566 28.1509 6.4081 27.7138 6.55358L27.1797 6.73143L26.9541 6.21547C26.9408 6.18526 25.8155 3.67266 23.7344 2.37721C23.9153 2.96376 24.0355 3.70009 23.9742 4.57389L23.8783 5.93653L22.9195 4.96286C22.8874 4.93019 20.0426 2.07763 16.7545 1.54102C16.7523 1.54379 16.7499 1.54626 16.748 1.54903C17.194 2.20492 17.6881 3.10615 17.9476 4.15934L18.3181 5.66345L17.0152 4.82509C16.9896 4.80876 14.5806 3.3068 10.6693 3.24639C11.0413 3.72413 11.4075 4.36769 11.6177 5.19865L11.8368 6.06506L10.9489 5.9618C10.915 5.9581 8.1567 5.64804 5.88389 6.10297C5.88636 6.10451 5.88882 6.10605 5.89098 6.10759C8.58235 6.50057 9.39019 8.65348 9.39019 8.65348C4.80112 10.0556 4.2491 13.2876 4.31999 15.0657C4.3992 15.279 4.47749 15.4956 4.55793 15.7058C5.56735 14.7846 7.50081 13.1735 9.60965 12.2288C9.09338 12.0488 8.41129 11.9172 7.58958 12.0081L5.13862 12.2788C11.9034 8.28362 14.5609 10.0648 14.5609 10.0648C12.751 9.82287 10.9328 10.3878 9.64879 10.9531C10.7849 11.2672 11.4556 11.8315 11.4978 11.8676L12.3679 12.6144L11.2651 12.9282C10.9208 13.0262 10.5747 13.1544 10.2313 13.3036C7.24006 15.7666 6.46396 18.6031 6.26454 19.8425C6.26947 19.8539 6.27441 19.8659 6.27965 19.8773C6.72626 18.7406 7.59328 17.267 9.26876 16.0621C9.26876 16.0621 7.11338 18.9415 7.04958 21.5494C7.5865 22.6805 8.13512 23.7618 8.69239 24.7995C9.35012 23.8308 10.685 22.54 13.3095 21.9014L14.1223 21.7035L14.0702 22.5384C14.0668 22.5942 14.0175 23.3013 13.745 24.1794C14.2178 24.0749 14.9511 23.808 15.4239 23.133C15.5996 22.851 15.7367 22.5449 15.8138 22.2117C15.8138 22.2117 16.1772 23.2162 15.1003 24.503C14.7239 25.7137 13.9894 27.4459 12.6595 28.5968C12.6595 28.5968 14.1802 27.7871 15.1801 28.0232C15.1801 28.0232 13.2697 29.9628 13.7201 32.6712C13.7811 32.7861 13.8443 32.8999 13.9102 33.0111C14.5686 33.888 15.2272 34.7177 15.8825 35.4944C16.3362 33.5006 17.3139 31.9484 18.2201 30.8625C17.6955 30.6912 17.0346 30.5019 16.6182 30.3857L15.5546 30.627L16.2512 29.4096C16.8503 28.3619 17.7078 27.4025 18.5477 26.606Z" fill="#FED81C">
<path fill-rule="evenodd" clip-rule="evenodd" d="M35.7677 19.5315C31.8937 22.4966 30.8378 18.7496 30.8378 18.7496C33.0027 19.6752 34.8126 18.7366 35.1202 18.5606C31.4388 19.8869 30.1837 15.8702 30.1837 15.8702C30.2651 16.1877 30.6951 16.4336 31.1161 16.6038C31.4348 16.6333 31.784 16.5933 32.0312 16.5514C32.2161 15.7626 33.1796 15.0146 34.6304 15.2744C35.2345 15.3829 35.6306 15.7525 35.892 16.1766L35.8932 16.1655C36.5593 16.3196 36.7756 16.8568 36.8108 17.4082C37.0595 17.0649 37.1782 16.6817 37.1782 16.6817C37.2669 18.2265 36.6163 19.0748 35.7677 19.5315ZM25.4504 18.7135C25.3943 14.4462 29.4231 15.3422 29.4231 15.3422C26.5554 15.9808 25.4504 18.7135 25.4504 18.7135ZM33.0493 14.3152C33.0493 14.3152 30.8288 12.2505 27.8835 14.576C27.8835 14.576 29.8752 10.636 33.0493 14.3152ZM37.9564 22.1588L37.9567 22.1585C41.5684 21.7501 42.019 20.5539 42.019 20.5539C41.5709 20.3264 41.414 19.9637 41.3662 19.6638C41.0925 19.3854 40.9233 19.0076 40.9717 18.4891C41.0482 17.6736 41.1946 17.1872 41.3403 16.8938C40.706 16.3146 39.7919 15.3934 39.1255 14.3568C39.1162 14.4949 39.1169 14.6191 39.1298 14.7208L39.447 17.1995L38.0131 15.1527C37.7336 14.7532 35.8007 11.9595 34.8452 9.67653C34.783 9.92095 34.7469 10.1423 34.7556 10.3084L34.8332 11.8519L33.7141 10.7855C33.6956 10.7676 32.1557 9.3227 30.3776 8.63013C30.1782 9.67283 29.2073 11.0669 29.2073 11.0669C29.6841 11.0429 29.9618 11.475 29.9618 11.475C28.5742 11.545 26.2022 13.6017 25.8742 13.8914C24.9308 15.0482 24.0511 16.585 23.8551 18.4306L23.9223 18.4515C23.9139 18.4783 23.8822 18.5776 23.8289 18.7317C23.8018 19.1567 23.8085 19.5963 23.8619 20.0515C24.2114 19.8774 24.6623 19.7115 25.2291 19.6049L26.1926 19.4233C26.1926 19.4233 24.6019 22.3524 25.2929 24.3638C24.9465 23.8669 24.7548 23.3121 24.6527 22.7697C24.6956 24.0719 25.0596 25.4894 25.0596 25.4894C24.3951 24.9491 23.9281 22.6464 23.9281 22.6464C23.5277 22.9216 23.1896 23.9264 23.1896 23.9264L22.7144 23.2175C22.5377 23.5855 22.2758 23.9156 22.0289 24.1776L23.794 24.0886L21.8476 25.3396C21.8387 25.3455 21.5727 25.519 21.1693 25.8158C20.3386 26.8727 19.8864 28.0649 19.6913 28.6853C20.0211 28.7066 20.3287 28.7559 20.5815 28.8484L21.6982 29.2568L20.7208 29.9339C20.7057 29.9447 19.9986 30.4493 19.1837 31.3924C18.57 32.907 18.7898 34.1192 19.176 34.9647C19.7764 32.281 20.8814 30.5162 20.9387 30.4258C19.8359 33.5349 20.1534 36.1963 20.1712 36.3366L20.1722 36.3372C27.7053 30.6243 29.5356 39.0301 29.5356 39.0301C29.7405 38.6692 30.2368 39.6638 30.8088 39.6351C31.3812 39.6062 31.6875 38.7302 31.8956 38.4328C31.9967 38.2882 32.3767 38.4318 32.7401 38.6171C32.6942 38.2808 32.5937 37.8721 32.4106 37.3756C31.3861 34.5976 29.6043 33.8415 29.5294 33.8104L29.1759 33.6658C29.4015 28.0316 26.2435 26.7873 24.789 26.5121C25.8909 26.6844 26.7745 27.0934 27.4865 27.6269C27.464 27.601 27.4486 27.5834 27.4486 27.5834C29.2005 27.7977 29.4714 28.2939 29.4714 28.2939C29.199 26.6825 29.6591 25.0659 29.6591 25.0659C29.0002 24.9473 27.9843 25.5329 27.9843 25.5329C27.992 25.208 28.0404 24.869 28.1048 24.549L27.3817 24.6868L27.7121 23.6906C27.8394 23.3075 28.0373 22.9836 28.2598 22.7111C27.7263 21.8543 27.7275 20.4192 27.7282 20.3292C27.5472 19.8619 27.4717 19.5084 27.464 19.4708C27.464 19.4708 28.577 21.6333 31.572 22.1724L30.6165 22.5616C31.571 22.6661 32.3887 23.3461 32.3887 23.3461L32.3816 23.3562L32.3894 23.3587L32.071 23.9976C31.9566 24.2263 31.7396 24.721 31.5852 25.2379C32.7648 24.0269 34.341 24.3832 34.341 24.3832C33.4049 24.7811 33.1359 27.0253 33.1359 27.0253C36.1339 26.1339 40.203 23.6342 41.2827 22.9525C40.3843 23.3571 38.1151 23.396 38.1151 23.396C37.8146 23.7902 37.1205 23.6466 37.004 23.6191C36.7118 23.756 36.4582 23.8001 36.4582 23.8001C37.5859 23.0267 37.1837 20.7638 37.1837 20.7638C37.8023 21.1087 37.9314 21.8083 37.9564 22.1588Z" fill="#FED81C">
<path fill-rule="evenodd" clip-rule="evenodd" d="M36.6869 18.8074C36.6869 18.8074 36.6887 18.8019 36.6887 18.8013C36.685 18.8061 36.6814 18.811 36.6777 18.8159C36.6808 18.8128 36.6838 18.8104 36.6869 18.8074Z" fill="#41886D">
<path fill-rule="evenodd" clip-rule="evenodd" d="M30.6713 24.1902C30.4426 24.7881 30.1933 25.6139 30.2284 26.308L30.2805 27.3386C30.7151 25.9769 33.6355 24.8803 33.6355 24.8803C33.0101 24.7471 32.2457 24.9555 31.6296 25.2033C31.7843 24.68 32.0053 24.176 32.1209 23.9445L32.4393 23.3056L31.7612 23.0834C31.2554 22.9176 30.4343 22.9416 29.7038 23.0134C30.0037 22.7841 30.2685 22.671 30.2722 22.6691L30.6421 22.5184L31.6219 22.1193C28.6269 21.5802 27.5139 19.4177 27.5139 19.4177C27.5216 19.4553 27.5978 19.8107 27.7793 20.2795C27.9911 20.826 28.3467 21.5275 28.9126 22.0681C28.7101 22.2275 28.4987 22.4259 28.3061 22.6627C28.0848 22.9342 27.8884 23.2566 27.7621 23.6376L27.4316 24.6337L28.1581 24.4953L28.4626 24.4374C29.0914 24.3178 30.0034 24.1994 30.6713 24.1902Z" fill="#1A1919">
<path fill-rule="evenodd" clip-rule="evenodd" d="M35.3049 16.075C35.4386 16.2263 35.5912 16.4301 35.5761 16.6458C35.5641 16.819 35.4917 16.955 35.3748 17.0533C35.3674 17.0638 35.3625 17.0745 35.3536 17.0847C35.2374 17.2203 35.0783 17.2749 34.9116 17.29C34.8444 17.314 34.7707 17.3273 34.6915 17.3267C34.023 17.3202 33.581 16.3283 34.1019 15.8626C34.4687 15.5347 35.0133 15.7446 35.3049 16.075ZM33.1097 16.4415C33.5067 16.4214 33.5379 17.0369 33.1406 17.0573C32.7436 17.0773 32.7127 16.4615 33.1097 16.4415ZM32.0504 16.4452C32.027 16.55 32.0159 16.6554 32.0208 16.7592C32.0208 16.7592 31.6081 16.6705 31.1747 16.5C30.742 16.3296 30.2889 16.0778 30.2051 15.7511C30.2051 15.7511 31.4712 19.8081 35.1933 18.4242C35.1933 18.4242 34.4551 19.7742 32.4116 19.8482C32.4116 19.8482 34.4391 20.1829 35.8575 19.372C36.1475 19.2062 36.4111 18.9917 36.6277 18.717C36.6296 18.7146 36.6314 18.7121 36.6333 18.7096C37.021 18.214 37.255 17.5249 37.1995 16.5626C37.1995 16.5626 37.0811 16.9454 36.8324 17.2884C36.719 17.4447 36.5791 17.5927 36.4105 17.6922C36.4105 17.6922 36.3661 16.7941 35.9148 16.0599C35.6538 15.6345 35.2571 15.2638 34.6518 15.1553C33.1933 14.8942 32.2276 15.6515 32.0504 16.4452Z" fill="#1A1919">
<path fill-rule="evenodd" clip-rule="evenodd" d="M33.2146 14.2072C30.0405 10.528 28.0488 14.468 28.0488 14.468C30.9942 12.1424 33.2146 14.2072 33.2146 14.2072Z" fill="#1A1919">
<path fill-rule="evenodd" clip-rule="evenodd" d="M23.3102 12.8788C23.7482 12.9007 24.2161 13.0052 24.6874 13.2425C24.0984 11.1907 22.1914 10.1711 22.1914 10.1711C22.1914 10.1711 23.1577 11.5375 23.3118 12.8785L23.3102 12.8788Z" fill="#A76521">
<path fill-rule="evenodd" clip-rule="evenodd" d="M23.8253 14.8959C24.0103 14.6129 24.2069 14.35 24.4122 14.1071C23.7612 13.3008 22.4427 13.2318 21.7421 13.2577C21.7464 13.2608 22.2328 13.6011 22.4137 14.2418C22.4137 14.2418 21.3007 15.3893 20.0352 14.845C20.2059 15.0167 20.5838 15.3188 21.0483 15.2075L21.1343 15.1865C22.062 14.9634 23.0797 14.7199 23.8253 14.8959Z" fill="#A76521">
<path fill-rule="evenodd" clip-rule="evenodd" d="M22.7411 13.2723C22.549 13.2607 22.3671 13.2559 22.1914 13.2534C22.3671 13.2559 22.5496 13.2607 22.7411 13.2723Z" fill="#E1E2E0">
<path fill-rule="evenodd" clip-rule="evenodd" d="M24.3496 13.8699C24.4183 13.9264 24.4834 13.9866 24.5485 14.0474V14.0468C24.4834 13.986 24.4177 13.9264 24.3496 13.8699Z" fill="#E1E2E0">
<path fill-rule="evenodd" clip-rule="evenodd" d="M22.7634 9.26901C22.3285 9.45548 19.692 10.7596 20.0726 14.7525C21.3382 15.2969 22.4511 14.1494 22.4511 14.1494C22.2705 13.5098 21.7857 13.1695 21.7798 13.1655C21.499 13.1754 21.3166 13.2007 21.3166 13.2007C21.3628 13.1701 21.4146 13.1396 21.4688 13.1091C21.483 13.1014 21.4978 13.0937 21.5126 13.0857C21.5582 13.0616 21.606 13.0376 21.6562 13.0142C21.6698 13.008 21.6827 13.0019 21.6963 12.9957C21.8322 12.935 21.9836 12.8789 22.1482 12.8311C22.1491 12.8311 22.1497 12.8308 22.1503 12.8305C22.4921 12.7322 22.8891 12.6739 23.3157 12.6949L23.3172 12.6946C23.1631 11.3535 22.1969 9.98716 22.1969 9.98716C24.2296 10.3382 25.2525 11.8226 25.7158 12.7972C25.742 12.7765 25.7679 12.7584 25.7938 12.7383C25.7272 12.0926 25.4711 10.5309 24.5248 9.73195C24.0566 9.33713 23.48 9.18487 22.7634 9.26901Z" fill="#D19627">
<path fill-rule="evenodd" clip-rule="evenodd" d="M32.9919 17.2598C33.3966 17.2398 33.3648 16.6242 32.9601 16.6443C32.5554 16.6643 32.5868 17.2798 32.9919 17.2598Z" fill="#FFFFFE">
<path fill-rule="evenodd" clip-rule="evenodd" d="M34.1331 15.8839C33.6122 16.3496 34.0542 17.3415 34.7227 17.3477C34.8019 17.3486 34.8756 17.3353 34.9428 17.3113C35.1095 17.2962 35.2686 17.2416 35.3851 17.1057C35.3937 17.0955 35.3986 17.0847 35.406 17.0746C35.5229 16.9759 35.5953 16.8403 35.6073 16.6671C35.6224 16.4513 35.4698 16.2476 35.3361 16.096C35.0445 15.7656 34.4999 15.556 34.1331 15.8839Z" fill="#FFFFFE">
<path fill-rule="evenodd" clip-rule="evenodd" d="M40.0684 9.55469C40.0848 9.74526 40.1024 9.94882 40.12 10.1628C40.1024 9.94882 40.0848 9.74526 40.0684 9.55469Z" fill="#DEDFDE">
<path fill-rule="evenodd" clip-rule="evenodd" d="M41.2829 15.2356C40.7626 14.7045 40.0207 13.6544 40.0207 13.6544C39.7205 13.1801 39.4949 12.6996 39.4188 12.2499L38.995 9.74435L38.2235 12.1657C38.1985 12.2446 38.0873 12.6012 37.9822 13.0571C36.888 11.3363 35.4887 8.88411 35.4363 7.71442L35.4088 7.09767C36.8695 7.46075 38.3264 7.86514 39.7778 8.31884L39.7859 8.31236C41.642 8.8989 42.7586 9.44075 42.8748 9.49808C42.419 11.4864 41.8848 13.4014 41.2829 15.2356ZM42.9044 20.3841L42.8573 20.4044C43.0419 20.8365 42.6696 21.2203 42.3749 21.4425C42.3749 21.4425 40.7108 22.4134 37.8509 22.3829C37.8509 22.3829 37.8549 22.3055 37.8468 22.1841C37.8237 21.8376 37.6986 21.1257 37.0732 20.7771C37.0732 20.7771 37.4754 23.04 36.3477 23.8133C36.3477 23.8133 36.5912 23.7705 36.8756 23.6404C37.1885 23.4971 37.5513 23.248 37.6983 22.8279C37.6983 22.8279 40.156 22.9774 41.7625 22.5401C41.7819 22.7457 41.8041 23.0902 41.801 23.6013C41.2779 24.2642 37.4798 26.0495 34.1627 27.3631L33.8434 27.4895C33.8434 27.4895 32.392 31.1942 30.1167 32.3082C29.8566 31.0993 29.1563 28.9473 27.3393 27.6103C26.6338 27.0909 25.7603 26.6946 24.6785 26.5253C26.133 26.8006 29.291 28.0449 29.0654 33.6791L29.4189 33.8237C29.4938 33.8548 31.2756 34.6109 32.3001 37.3888C32.4857 37.8918 32.5865 38.3046 32.6315 38.6433C32.7058 39.1978 32.6302 39.5538 32.5273 39.7754C32.3834 40.0842 32.1621 40.1702 32.1658 40.1699L31.7299 40.2941L31.7182 40.7466C31.6889 41.8666 30.1512 41.9693 30.0884 41.973L29.7848 41.9884L29.6119 42.2387C29.3224 42.6585 29.0053 42.8822 28.6416 42.9229C28.2686 42.9639 27.8661 42.8046 27.5628 42.6276L28.7726 40.9799L28.6132 40.6467C26.5534 36.3409 21.943 36.2191 20.0623 36.3631C20.0623 36.3631 19.6952 33.6332 20.8282 30.4391C20.7709 30.5294 19.6628 32.2961 19.063 34.9841C18.9225 35.6129 18.8097 36.2916 18.745 37.0119L18.6722 37.8287L19.4773 37.6721C19.6721 37.6339 23.4586 36.9373 26.0276 39.2039C26.4511 39.3679 26.8628 40.1138 26.8628 40.1138C26.8638 40.1147 26.8644 40.116 26.865 40.1169C25.6833 41.4379 24.688 42.4418 23.9896 43.1143C23.9847 43.1082 23.9788 43.1026 23.9751 43.0955C23.6521 42.9294 22.5626 42.148 22.2109 41.8941C20.4889 40.4985 18.6121 38.7576 16.6839 36.6044C16.9647 34.2897 18.1051 32.5224 19.0852 31.3918C19.8949 30.4579 20.5952 29.9577 20.6103 29.9472L21.5874 29.27L20.471 28.8616C20.2192 28.7695 19.9144 28.7189 19.5858 28.6971C19.0387 28.661 18.4266 28.7054 17.8844 28.7723C18.9336 27.4747 20.2916 26.3913 21.0834 25.8106C21.4733 25.5246 21.7282 25.3584 21.7372 25.3529L23.6836 24.1018L21.9316 24.1903L20.4846 24.2633C21.3799 23.3775 22.0925 22.267 22.6254 21.2551C22.6261 21.2591 22.6261 21.2631 22.6267 21.2674L22.8215 22.5928L23.7088 21.5787C23.7218 21.5636 23.9455 21.3143 24.4698 21.0896C24.4276 21.5689 24.427 22.1687 24.5429 22.7848C24.6449 23.3266 24.8366 23.8808 25.1824 24.3771C24.4914 22.3656 26.0821 19.4366 26.0821 19.4366L25.1186 19.6182C24.5518 19.7248 24.1009 19.8906 23.7514 20.0648C23.698 19.6095 23.6913 19.17 23.7184 18.745C23.7717 18.5909 23.8035 18.4916 23.8115 18.4648L23.7446 18.4438C23.9378 16.6226 24.7969 15.1024 25.7264 13.9509C27.0034 12.3688 28.4135 11.4842 28.4135 11.4842C28.4024 11.4873 28.2058 11.5456 27.8941 11.6726C28.3457 10.7544 28.8669 9.57884 29.2676 8.34719C29.6051 8.41007 29.9413 8.51579 30.2705 8.64401C32.0471 9.33719 33.5851 10.7809 33.6036 10.7988L34.7227 11.8652L34.6451 10.3216C34.6364 10.1555 34.6725 9.93421 34.7348 9.68979C35.6902 11.9728 37.6231 14.7665 37.9026 15.1659L39.3365 17.2128L39.0193 14.7341C39.0064 14.6324 39.0058 14.5082 39.015 14.3701C39.6814 15.4066 40.5956 16.3279 41.2299 16.9071C41.0841 17.2005 40.9377 17.6868 40.8612 18.5024C40.8128 19.0205 40.9814 19.399 41.2548 19.6776C41.6842 20.1147 42.374 20.3036 42.9044 20.3841ZM35.2196 28.6218L31.9919 34.2425C31.9919 34.2425 31.3588 33.6329 30.9159 33.3139C31.835 32.6238 34.1331 30.7202 34.945 28.3962L34.9477 28.3984C34.9493 28.3907 34.9514 28.3833 34.9527 28.3756C35.1358 28.3022 35.3136 28.2307 35.4884 28.1598C35.398 28.3164 35.3068 28.465 35.2162 28.6194L35.2196 28.6218ZM23.9671 43.1362L23.9551 43.1159C23.9551 43.1159 23.9653 43.1199 23.9785 43.1251C23.9748 43.1288 23.9708 43.1328 23.9671 43.1362ZM24.6529 13.2232C23.2628 12.5242 21.894 12.9585 21.2767 13.3656C21.2767 13.3656 23.4996 13.0518 24.4097 14.1796C24.2045 14.4225 24.0078 14.6854 23.8229 14.9684C23.0773 14.7924 22.0596 15.0359 21.1318 15.259L21.0458 15.28C20.5813 15.3912 20.2035 15.0892 20.0327 14.9175C19.6521 10.9245 22.2886 9.62045 22.7235 9.43397C23.4401 9.34983 24.0167 9.50209 24.4849 9.89692C25.4312 10.6958 25.6873 12.2576 25.7539 12.9033C25.728 12.9233 25.7021 12.9415 25.6759 12.9622C25.2126 11.9876 24.1897 10.5032 22.157 10.1521C22.157 10.1521 24.0639 11.1717 24.6529 13.2232ZM13.4988 32.7002C12.2868 31.0703 11.0774 29.2666 9.89507 27.2737C12.6555 26.3484 14.105 25.3156 14.8562 24.4193C15.9359 23.1309 15.5718 22.1243 15.5718 22.1243C15.497 22.4476 15.3663 22.7457 15.198 23.0209C14.7329 23.7819 13.9734 24.3623 13.2537 24.7771C13.3539 24.5416 13.4359 24.3099 13.5043 24.0886C13.7759 23.212 13.8249 22.5068 13.8283 22.451L13.8803 21.616L13.0676 21.8139C10.4431 22.4525 9.10818 23.7434 8.45045 24.7121C7.89319 23.6743 7.34455 22.5931 6.80764 21.4619C6.87144 18.8541 9.02682 15.9747 9.02682 15.9747C7.35134 17.1795 6.48431 18.6531 6.03771 19.7898C6.03247 19.7781 6.02723 19.7658 6.02199 19.7538C5.60558 18.8186 5.19719 17.853 4.79836 16.8556C5.59572 16.1001 7.73291 14.1978 9.9789 13.2211C10.326 13.0703 10.6755 12.9397 11.0232 12.8407L12.126 12.527L11.2559 11.7801C11.2136 11.7441 10.5429 11.1797 9.40685 10.8657C10.6909 10.3004 12.5091 9.73541 14.3189 9.97736C14.3189 9.97736 11.6615 8.19616 4.89668 12.1913L7.34764 11.9207C8.16935 11.8298 8.85144 11.9614 9.36771 12.1414C7.25887 13.0861 5.32541 14.6971 4.31599 15.6184C4.23586 15.4088 4.15726 15.1946 4.07805 14.9822C3.59969 13.6982 3.13644 12.3667 2.69199 10.9828C4.12459 8.9513 6.96822 8.7112 6.99596 8.70904L7.85959 8.64801L7.51962 7.85219C7.20092 7.10538 6.38353 6.46798 5.64195 6.01551C7.91476 5.56058 10.673 5.87065 10.7069 5.87435L11.5949 5.9776L11.3758 5.1112C11.1655 4.28024 10.7994 3.63668 10.4274 3.15894C14.3387 3.21935 16.7477 4.7213 16.7733 4.73764L18.0761 5.57599L17.7057 4.07188C17.4449 3.01315 16.9468 2.1076 16.499 1.45079C19.7926 1.98154 22.6455 4.84274 22.6775 4.87541L23.6364 5.84908L23.7323 4.48644C23.7936 3.61264 23.6734 2.8763 23.4925 2.28976C25.5736 3.58521 26.6989 6.09781 26.7121 6.12801L26.9377 6.64397L27.4719 6.46613C27.9089 6.32065 28.297 6.06914 28.6234 5.79175C28.4508 7.1214 27.916 8.61442 27.3628 9.88551C27.135 10.4086 26.9045 10.8949 26.6942 11.3153C26.4535 10.5016 26.0294 9.58932 25.2838 8.95839C24.5281 8.31822 23.5859 8.07195 22.4827 8.22175L22.3539 8.2538C22.32 8.26644 19.5809 9.31808 18.9099 12.6308C17.7781 12.7541 14.8891 13.1517 12.5433 14.1744C12.3947 14.2391 12.248 14.306 12.1044 14.376L10.4967 15.1585L12.2455 15.533C12.26 15.5361 13.2423 15.7518 14.2539 16.2752C12.895 16.4728 11.1098 17.0285 10.0855 18.5406C13.5638 16.2465 17.6366 17.5266 17.6366 17.5266L16.4817 16.364C15.7993 15.677 14.9246 15.1955 14.1688 14.874C15.9118 14.2964 17.7756 14.0116 18.7678 13.8902C18.7545 14.3137 18.7715 14.7649 18.8279 15.2479L18.847 15.4116L18.9453 15.5441C18.9946 15.6107 19.0584 15.6825 19.1284 15.7559C19.4998 16.1439 20.1452 16.5757 20.9441 16.5353C21.0705 16.5289 21.2002 16.5107 21.3334 16.4786L21.4203 16.4577C21.4292 16.4555 21.44 16.453 21.4493 16.4509C21.2607 16.9644 20.9974 17.423 20.7133 17.8225C19.923 18.933 18.9663 19.5744 18.9663 19.5744C19.9439 19.4785 20.688 19.0914 21.2529 18.5989C22.157 17.8111 22.6002 16.7526 22.7863 16.1738C22.9352 16.1516 23.0751 16.1365 23.1984 16.1307C22.9414 16.7246 22.7413 17.387 22.6251 18.1267C22.561 18.3239 22.1345 19.5984 21.3756 20.9749C20.6233 22.3407 19.5442 23.8069 18.1677 24.4221L15.1598 25.7665L17.0337 25.6719L19.3993 25.5526C19.0557 25.834 18.6833 26.1607 18.3076 26.5167C17.4671 27.3135 16.609 28.2736 16.0092 29.3221L15.3126 30.5399L16.3825 30.297L16.6811 30.2292C17.2227 30.1062 18.0324 29.9725 18.7514 29.929C18.511 30.1676 18.2484 30.4505 17.9797 30.7723C17.0732 31.8588 16.0946 33.4125 15.6406 35.407C14.9292 34.5634 14.2135 33.6618 13.4988 32.7002ZM9.1464 25.9776C9.38897 25.4185 10.1833 24.0793 12.4465 23.2813C12.2721 24.0195 11.904 25.0471 11.1455 25.7298L9.73479 27.0003C9.53784 26.6647 9.34181 26.3241 9.1464 25.9776ZM1.49579 6.97408C1.95658 6.83877 2.70062 6.63503 3.69493 6.40757L3.77291 6.43962C4.36007 6.68158 5.24219 7.15253 5.82997 7.66017C4.84767 7.89349 3.38548 8.4187 2.25401 9.57914C1.99479 8.72723 1.74021 7.86329 1.49579 6.97408ZM29.8399 5.93384C31.4149 6.20014 32.9869 6.51976 34.5548 6.88993L34.2681 7.46784C34.2068 7.59205 33.8304 8.3663 33.5974 9.18031C32.6974 8.48065 31.1973 7.48479 29.6091 7.15408C29.7086 6.74322 29.7875 6.33452 29.8399 5.93384ZM44.6024 8.61688L44.6021 8.61719C43.6216 8.20325 41.7412 7.61455 40.0096 7.10291C38.7996 6.72719 37.5858 6.38168 36.3689 6.06791C36.2857 6.0451 36.2376 6.03216 36.2376 6.03216L36.2423 6.03586C35.9454 5.96003 35.6486 5.88329 35.3515 5.81086L35.3299 5.32572L35.1166 5.7563C33.3832 5.34051 31.6442 4.98699 29.9019 4.69603C29.8933 4.46856 29.8766 4.2451 29.8405 4.03151L29.5561 2.34986L28.6995 3.825C28.6961 3.83086 28.5245 4.11503 28.2434 4.43743C27.8615 4.38226 27.4796 4.33356 27.0977 4.28455C26.243 2.95058 24.6532 1.03346 22.3209 0.46387L20.409 0L21.7165 1.47545C21.7433 1.50565 22.1946 2.02654 22.4069 2.99466C20.9071 1.79661 18.1242 -0.00893836 15.1212 0.142705L13.7256 0.212979L14.7187 1.1962C14.7283 1.20606 15.4279 1.90664 15.9833 2.98818C14.5381 2.40997 12.0754 1.73281 8.86932 1.97445L6.85264 2.12887L8.61257 3.12565C8.62058 3.13027 9.14979 3.45205 9.61675 4.14832C4.0238 4.8039 0.71476 5.91997 0.544623 5.97853L0 6.16562L0.149486 6.72164C5.55935 26.84 14.8312 37.5722 21.6567 43.0329C21.8416 43.1809 22.0247 43.323 22.2072 43.4635C22.2087 43.4651 22.21 43.4666 22.2115 43.4678C22.9414 44.1188 24.3678 44.8739 24.3678 44.8739L24.6634 44.5972C24.664 44.5975 24.6646 44.5975 24.6649 44.5978C24.7118 44.554 24.7654 44.5025 24.8157 44.4548L24.8677 44.4064L24.8674 44.4058C25.2216 44.0683 25.6614 43.6371 26.173 43.1125L26.2791 43.2117C26.3201 43.2499 26.4766 43.3908 26.7161 43.5526C27.5517 44.0226 27.9015 44.0883 27.9015 44.0883C28.1321 44.1428 28.3777 44.1727 28.6339 44.1598C28.6789 44.1576 28.7242 44.1542 28.7698 44.149C29.4189 44.079 29.9829 43.7517 30.4505 43.1747C31.3542 43.045 32.6715 42.5093 32.9129 41.1577C33.1373 41.0101 33.4082 40.7648 33.6101 40.3672C33.9436 39.7107 33.9781 38.859 33.7238 37.8324L33.7343 37.8213C33.5641 37.097 33.1169 36.16 32.944 35.8129C32.8555 35.6446 32.7646 35.4868 32.6725 35.3339C34.3615 32.9986 36.1224 30.2742 37.7938 27.1868C38.1486 27.0302 38.4824 26.8798 38.7909 26.7365C40.3098 26.0112 42.2612 24.8024 42.2612 24.8024V24.8027C43.0249 24.21 43.0311 23.8947 43.0329 23.7144C43.0394 23.1765 43.0203 22.7833 42.9984 22.5166C43.6429 22.0673 44.3595 21.2378 44.0852 20.1995C45.4321 19.1386 44.5784 16.2509 44.5784 16.2509C44.3068 16.3698 43.3279 16.4228 42.5746 16.4463C42.5574 16.4321 42.5361 16.4133 42.5179 16.3982C43.18 14.453 43.7702 12.4185 44.2723 10.2998L44.2837 10.3065C44.2797 10.3028 44.2772 10.2991 44.2732 10.2954C44.3925 9.79274 44.5124 9.29127 44.6212 8.77931L44.6227 8.77993L44.6566 8.64L44.6024 8.61688Z" fill="#1A1919">
</svg>
