<svg width="185" height="46" viewBox="0 0 185 46" fill="none" xmlns="http://www.w3.org/2000/svg">
<path fill-rule="evenodd" clip-rule="evenodd" d="M124.326 19.8523C124.825 19.8599 125.325 19.8752 125.834 19.91C125.327 19.8766 124.824 19.8586 124.326 19.8523Z" fill="white"/>
<path fill-rule="evenodd" clip-rule="evenodd" d="M126.416 19.9617C126.801 19.995 127.184 20.0242 127.574 20.0729C127.185 20.0256 126.8 19.9943 126.416 19.9617Z" fill="white"/>
<path fill-rule="evenodd" clip-rule="evenodd" d="M73.557 4C73.557 4 74.7555 5.3806 73.4854 8.45949C72.2154 11.5377 68.8473 16.6006 71.1205 18.3044C71.1205 18.3044 71.2915 16.4052 73.5494 13.2492C75.8066 10.0931 79.5653 4.09663 73.557 4Z" fill="white"/>
<path fill-rule="evenodd" clip-rule="evenodd" d="M80.3832 23.3498C79.964 23.3505 79.5712 23.233 79.2778 22.9015C78.6299 22.1715 78.6939 20.7304 79.1611 19.8434C79.3314 19.5188 79.697 18.9967 80.2844 19.0057C80.3192 19.0064 80.3547 19.0085 80.3915 19.0134C80.9191 19.078 81.0881 19.3179 81.1763 19.5195C81.4878 20.2327 81.1562 21.6863 80.3832 23.3498ZM84.6772 21.7982C83.5483 22.5886 82.0613 22.9758 81.7443 23.0523C82.347 21.5688 82.655 20.0888 82.208 19.0683C82.005 18.6018 81.5476 18.02 80.5284 17.8956C79.5608 17.776 78.7009 18.2953 78.1635 19.3193C77.5107 20.5615 77.4336 22.5205 78.4346 23.6488C78.6904 23.9373 79.1374 24.2987 79.8354 24.428C79.4523 25.1239 79.0053 25.8358 78.5062 26.5288C77.0471 28.5552 75.729 28.8131 75.0943 28.7965C74.5333 28.2007 74.8517 26.0367 75.2049 24.0742C75.6178 21.7801 78.2539 18.419 78.2539 18.419C73.6338 18.3446 72.0279 23.0843 71.9793 26.1354C71.9417 28.4663 73.2799 29.4471 74.3234 29.7878L74.3171 29.8038C74.3408 29.8121 74.4902 29.8615 74.7273 29.8934C74.8886 29.9247 75.0359 29.94 75.1576 29.9421C75.2612 29.9442 75.3432 29.931 75.4106 29.9101C76.3873 29.8337 77.8931 29.3081 79.4204 27.1872C79.9487 26.4531 80.5771 25.4638 81.1214 24.4009C81.3821 24.3495 81.663 24.2709 81.9647 24.1583C82.2636 24.0888 83.973 23.6668 85.323 22.7214L84.6772 21.7982Z" fill="white"/>
<path fill-rule="evenodd" clip-rule="evenodd" d="M90.4274 23.5162C90.0207 23.5203 89.6161 23.3994 89.3221 23.0671C88.6749 22.3379 88.7388 20.8961 89.2053 20.0091C89.3763 19.6844 89.742 19.1623 90.3287 19.1721C90.3634 19.1728 90.3989 19.1749 90.4357 19.1797C90.9634 19.2444 91.133 19.4842 91.2213 19.6858C91.5327 20.399 91.2011 21.8526 90.4274 23.5162ZM94.7214 21.9646C93.5932 22.7543 92.1062 23.1422 91.7885 23.2186C92.3912 21.7345 92.6999 20.2552 92.2529 19.2346C92.0492 18.7682 91.5925 18.1863 90.5734 18.0619C89.6043 17.9389 88.7458 18.4616 88.2084 19.4849C87.555 20.7272 87.4785 22.6861 88.4795 23.8151C88.7353 24.1036 89.1816 24.4651 89.8796 24.5944C89.4973 25.2902 89.0496 26.0021 88.5504 26.6952C87.0927 28.7216 85.7739 28.9795 85.1393 28.9635C84.5776 28.3677 84.8966 26.203 85.2498 24.2405C85.6627 21.9465 88.2981 18.5854 88.2981 18.5854C83.678 18.511 82.0729 23.2506 82.0242 26.301C81.9867 28.6319 83.3242 29.6128 84.3676 29.9534L84.3621 29.9694C84.385 29.9784 84.5338 30.0264 84.768 30.0591C84.9314 30.0904 85.0802 30.1064 85.2025 30.1084C85.3068 30.1098 85.3888 30.0973 85.4562 30.0765C86.433 29.9993 87.9387 29.4738 89.4653 27.3535C89.9929 26.6194 90.622 25.6302 91.1663 24.5673C91.4263 24.5158 91.7072 24.4366 92.0089 24.3247C92.3085 24.2551 94.0172 23.8332 95.3672 22.8877L94.7214 21.9646Z" fill="white"/>
<mask id="mask0_2324_1487" style="mask-type:alpha" maskUnits="userSpaceOnUse" x="55" y="6" width="19" height="29">
<path fill-rule="evenodd" clip-rule="evenodd" d="M55 6.26636V34.3823H73.8022V6.26636L55 6.26636V6.26636Z" fill="white"/>
</mask>
<g mask="url(#mask0_2324_1487)">
<path fill-rule="evenodd" clip-rule="evenodd" d="M73.6911 27.7619C73.5347 27.4261 73.4249 27.089 73.3512 26.7539C71.8628 28.334 69.9177 30.3632 68.533 31.6784C67.9546 32.2283 67.4311 32.587 66.9702 32.822C65.1802 28.7831 71.6835 21.2009 71.6835 21.2009C67.6876 21.1362 65.3936 24.0108 64.1555 26.7414C62.672 27.7667 60.9605 28.642 59.8802 28.1943C57.6418 27.2662 59.1149 17.4303 62.5705 12.7435C66.0262 8.05737 68.0992 7.62151 69.3644 7.78278C70.6296 7.94406 72.8242 8.65105 71.8329 11.9378L73.1336 9.86203C73.1336 9.86203 72.7943 6.33545 68.5434 6.26732C64.2925 6.1985 58.533 9.81476 55.8691 17.8008C53.2052 25.7862 57.3484 29.6562 59.1524 29.6847C60.045 29.6993 61.7454 29.5978 63.3595 28.8992C63.0252 30.0462 62.8875 30.9722 62.882 31.3413C62.8597 32.7024 63.7454 34.3597 65.1329 34.3819C65.3331 34.3854 65.518 34.3653 65.6946 34.3347C66.583 34.2832 67.842 33.8898 69.3095 32.4953C70.5969 31.2718 72.3613 29.4414 73.8023 27.9176C73.7585 27.8766 73.7203 27.8251 73.6911 27.7619Z" fill="white"/>
</g>
<path fill-rule="evenodd" clip-rule="evenodd" d="M115.479 34.3132C114.804 34.3209 114.132 34.2298 113.518 34.0352L113.446 34.0115C113.358 33.9837 113.27 33.9559 113.192 33.9274C112.781 33.7661 112.395 33.5583 112.047 33.308C111.66 33.03 111.31 32.7477 111.005 32.4738C110.174 31.4624 109.955 30.1096 110.353 28.453C110.929 26.0616 113.01 23.4165 115.384 22.0359C116.673 21.493 118.071 21.0801 119.54 20.8062C120.86 22.843 121.181 25.5945 121.16 26.9264C121.122 29.2649 119.641 34.3716 115.479 34.3132ZM130.142 19.9163C127.303 19.3484 124.551 19.1544 121.969 19.3394C121.16 18.738 120.357 18.2083 119.645 17.7391C117.485 16.3147 115.924 15.2851 115.951 13.6028C115.99 11.1642 118.344 8.81662 120.107 8.84512C120.986 8.87501 121.73 9.24206 122.202 9.87814C122.289 9.99562 122.361 10.1242 122.427 10.257C122.909 11.0092 122.997 11.947 122.8 12.8792C121.606 15.3998 120.64 17.9977 122.144 19.1245C122.144 19.1245 122.316 17.226 124.573 14.07C126.831 10.9132 130.589 4.91743 124.581 4.8208C124.581 4.8208 125.779 6.2014 124.509 9.2796C124.326 9.72381 124.098 10.2097 123.851 10.7207C123.851 10.7179 124.011 7.15865 119.331 7.08357C118.745 7.07453 118.196 7.1371 117.685 7.25875C116.697 7.43741 115.736 7.81349 114.911 8.35781C114.683 8.54689 114.474 8.73737 114.296 8.92298C112.759 10.5323 112.14 12.5844 112.216 13.8107C112.367 16.2459 114.3 17.5493 117.371 18.8632C117.853 19.0689 118.303 19.379 118.718 19.787C118.58 19.8148 118.444 19.8434 118.312 19.8739C111.951 21.3407 108.771 25.021 108.297 26.4745C107.616 28.5594 107.352 31.324 111.39 34.2236C111.42 34.2458 111.454 34.2625 111.485 34.284C112.461 34.7568 113.436 35.0397 114.475 35.2267C116.138 35.3358 117.744 35.1655 119.313 34.599C119.325 34.5934 119.341 34.5871 119.353 34.5816C122.401 33.5847 124.238 32.2987 124.814 30.7582C126.017 27.5444 125.951 23.2052 123.239 20.4203C125.386 20.3592 127.623 20.5615 129.922 21.0203L130.198 21.0759L130.418 19.9713L130.142 19.9163Z" fill="white"/>
<path fill-rule="evenodd" clip-rule="evenodd" d="M141.09 25.9384C139.138 30.1559 136.976 29.9182 136.445 29.7833C135.757 29.3315 136.09 27.0458 136.461 24.9825C136.874 22.6885 139.51 19.3266 139.51 19.3266C134.89 19.2523 133.284 23.9919 133.236 27.043C133.227 27.5296 133.28 27.9564 133.377 28.3318C131.946 29.9578 130.663 29.807 130.272 29.7076C129.583 29.2564 129.916 26.97 130.287 24.9067C130.7 22.6127 133.337 19.2509 133.337 19.2509C128.716 19.1765 127.111 23.9161 127.061 26.9672C127.02 29.5442 128.659 30.4709 129.722 30.7065L129.72 30.7121C129.766 30.7315 130.14 30.8803 130.715 30.89C131.502 30.9026 132.666 30.6481 133.879 29.4434C134.444 30.2602 135.269 30.6433 135.897 30.7816L135.894 30.7879C135.94 30.8066 136.314 30.9561 136.89 30.9651C138.124 30.9853 140.285 30.3589 142.113 26.4118L141.09 25.9384Z" fill="white"/>
<path fill-rule="evenodd" clip-rule="evenodd" d="M163.132 27.6478C161.39 30.4869 159.656 30.2916 159.189 30.1727C158.501 29.7215 158.834 27.4358 159.206 25.3719C159.618 23.0778 162.254 19.7167 162.254 19.7167C157.633 19.6423 156.029 24.3819 155.979 27.4323C155.938 30.0093 157.576 30.936 158.64 31.1716L158.638 31.1772C158.684 31.1967 159.058 31.3454 159.633 31.3552C160.569 31.3698 162.039 31.0097 163.492 29.1146C163.203 28.7045 163.102 28.181 163.132 27.6478Z" fill="white"/>
<path fill-rule="evenodd" clip-rule="evenodd" d="M174.504 26.4957C173.796 27.553 172.723 28.8356 171.754 29.6059C171.27 30.0216 170.996 29.8582 170.979 28.8071C170.962 27.7525 172.764 22.65 172.679 21.3487C172.594 20.0473 171.121 19.9757 171.121 19.9757L171.122 19.9771C170.565 19.9333 169.839 20.2614 168.915 20.9761C168.01 21.6775 166.169 24.5006 164.758 26.7904C165.669 23.2013 167.223 19.8499 167.223 19.8499C163.562 19.7908 162.169 23.1492 162.178 27.0226C162.185 30.8961 164.115 31.3737 164.115 31.3737C164.105 30.9169 164.128 30.4373 164.176 29.9444C165.366 27.9145 166.981 25.293 168.204 23.5676C168.697 22.9024 169.047 22.5819 169.536 22.2823C170.235 21.8541 170.013 23.2388 169.494 24.8822C168.976 26.5256 168.919 28.9781 168.919 28.9781L168.922 28.9719C168.849 29.7317 168.903 30.3497 169.145 30.7717C169.327 31.0907 169.607 31.2993 169.955 31.3737C170.069 31.3987 170.185 31.4119 170.301 31.4133C172.433 31.4474 174.938 27.8742 175.441 27.122L174.504 26.4957Z" fill="white"/>
<path fill-rule="evenodd" clip-rule="evenodd" d="M103.067 13.4122C104.658 9.83211 106.324 8.15885 106.763 8.0365C107.453 9.18005 104.43 17.7688 100.835 23.3865C100.884 18.8609 102.358 15.0062 103.067 13.4122ZM107.291 7.03337C107.198 6.98332 107.098 6.94648 106.989 6.92701C106.952 6.91658 106.924 6.91033 106.924 6.91033C105.625 6.75391 103.962 9.35175 103.305 10.4731C101.052 14.3152 99.3436 19.6305 99.7169 25.0076C96.6158 29.196 95.2602 29.0389 95.1532 29.0194C95.1045 28.9972 95.0544 28.9902 95.0037 28.9826C94.5776 28.3972 94.759 26.7351 95.0392 25.0604C96.6227 19.5415 99.8219 19.2947 99.8219 19.2947C98.9627 18.4487 97.6558 18.5794 96.727 18.8276C96.6137 18.8554 96.506 18.8901 96.3975 18.9242C96.3064 18.9541 96.2216 18.9826 96.1438 19.0111C96.0402 19.05 95.9359 19.0869 95.8372 19.1314C95.703 19.1877 95.6217 19.2273 95.6217 19.2273L95.6203 19.2412C92.9787 20.5822 91.9804 23.992 91.9422 26.3785C91.8928 29.4303 94.2022 30.1713 95.1205 30.1859C95.2102 30.1873 95.2811 30.1769 95.3436 30.1609C95.9137 30.1289 96.8014 29.7945 98.0673 28.6211L98.0562 28.6364C98.5602 28.2339 99.2102 27.6312 99.9401 26.8866C100.384 29.5964 101.396 32.2797 103.187 34.7566C103.296 34.9061 103.464 34.9874 103.636 34.9902C103.752 34.9916 103.871 34.9575 103.974 34.8831C104.226 34.701 104.283 34.3493 104.101 34.0969C102.157 31.4087 101.258 28.5439 100.959 25.8105C104.221 22.2568 108.411 16.6614 109.204 12.7894C110.051 8.64477 108.128 7.38095 107.291 7.03337Z" fill="white"/>
<path fill-rule="evenodd" clip-rule="evenodd" d="M152.046 23.6689C152.195 19.3693 153.584 15.7468 154.266 14.2147C155.898 10.5421 157.608 8.87648 157.972 8.82226C157.974 8.82295 158.093 8.94252 158.116 9.45625C158.234 12.1333 155.594 19.2637 152.099 23.6112C152.081 23.6321 152.064 23.6488 152.046 23.6689ZM158.176 7.7093L158.179 7.72181C158.161 7.71903 158.14 7.71486 158.123 7.71277C156.818 7.56609 155.161 10.1542 154.503 11.2755C152.404 14.8556 150.781 19.7155 150.872 24.7124C149.691 25.5083 148.669 25.4499 147.725 25.3923C146.912 25.037 149.269 21.9206 149.29 20.6533C149.306 19.6432 148.216 19.45 147.771 19.4124C147.711 19.4055 147.651 19.4034 147.59 19.4034H147.585C147.176 19.4076 146.777 19.5584 146.592 19.6307C145.253 20.1556 143.929 22.0561 142.859 24.0429C143.7 21.4819 144.626 19.4861 144.626 19.4861C140.964 19.4277 139.572 22.7854 139.58 26.6595C139.588 30.533 141.518 31.0099 141.518 31.0099C141.508 30.5865 141.527 30.143 141.568 29.6884L141.578 29.6919C142.317 27.6488 144.514 22.4851 146.469 21.003C147.31 20.7861 146.995 20.6978 146.047 23.0308C145.091 25.3811 146.676 26.257 146.676 26.257L146.678 26.2563C146.864 26.3849 147.112 26.4844 147.447 26.5038L147.655 26.5163C148.573 26.5747 149.678 26.638 150.93 25.9887C151.186 29.2678 152.221 32.5643 154.386 35.5591C154.494 35.7085 154.662 35.7892 154.834 35.7919C154.952 35.794 155.071 35.7593 155.173 35.6856C155.425 35.5028 155.481 35.151 155.299 34.8987C153.063 31.8052 152.199 28.4767 152.055 25.3853C152.158 25.2755 152.261 25.1573 152.364 25.0405L152.327 25.0996C153.436 24.4871 154.464 23.6835 155.274 22.7214C155.701 22.2146 156.088 21.6682 156.539 21.183C156.605 21.1121 156.674 21.0426 156.742 20.9738C158.532 18.4093 160.016 15.7336 160.455 13.5883C161.525 8.35928 158.176 7.7093 158.176 7.7093Z" fill="white"/>
<path fill-rule="evenodd" clip-rule="evenodd" d="M180.5 27.5444C180.402 27.4714 180.334 27.3748 180.287 27.2712C180.11 27.5437 179.924 27.8155 179.731 28.0845C178.273 30.1088 176.955 30.3695 176.32 30.3535C175.757 29.7585 176.076 27.593 176.429 25.6299C176.842 23.3358 179.478 19.974 179.478 19.974C174.858 19.8996 173.253 24.64 173.204 27.6904C173.167 29.9726 174.449 30.9618 175.482 31.3226C175.504 31.333 175.519 31.3504 175.542 31.3588C175.565 31.3678 175.713 31.4158 175.948 31.4477C176.111 31.4797 176.259 31.4957 176.382 31.4978C176.486 31.4992 176.569 31.4867 176.636 31.4651C177.613 31.3886 179.119 30.8624 180.645 28.7428C180.733 28.6205 180.824 28.4898 180.917 28.3542C180.871 28.0386 180.756 27.7355 180.5 27.5444Z" fill="white"/>
<path fill-rule="evenodd" clip-rule="evenodd" d="M165.001 7.75928C165.001 7.75928 165.734 9.04047 164.246 11.2796C162.759 13.5194 159.299 17.0022 160.833 18.7075C160.833 18.7075 161.266 17.2302 163.548 15.0836C165.829 12.9369 169.745 8.77561 165.001 7.75928Z" fill="white"/>
<path fill-rule="evenodd" clip-rule="evenodd" d="M144.73 31.7743C144.73 31.7743 145.117 30.3499 147.753 29.8188C150.388 29.287 155.298 29.2703 155.418 26.9805C155.418 26.9805 154.068 27.7187 150.937 27.6228C147.806 27.5276 142.095 27.7021 144.73 31.7743Z" fill="white"/>
<path fill-rule="evenodd" clip-rule="evenodd" d="M170.883 44.1129C169.469 44.0754 169.355 43.5033 169.317 43.3149C168.935 41.3893 172.855 36.7316 177.537 33.6903C176.263 38.5405 174.445 43.3802 170.883 44.1129ZM183.16 20.0914C183.133 20.0935 183.107 20.0963 183.08 20.0991C183.05 20.1019 183.023 20.1033 182.992 20.1067V20.1088C182.382 20.186 181.795 20.4599 181.455 21.1349C180.514 23.0084 179.675 24.7129 178.339 30.414C178.207 30.9764 178.071 31.5527 177.93 32.1345C172.904 35.1383 167.641 40.6566 168.213 43.5338C168.361 44.2846 168.941 45.189 170.854 45.2398H170.894C175.149 45.3086 178.231 38.3702 180.265 32.1853L180.687 30.861C180.692 30.8471 180.696 30.8338 180.7 30.8206C180.702 30.7831 180.694 30.7483 180.704 30.7073C180.996 29.4762 181.315 28.3445 181.699 27.1446C181.991 26.2325 182.127 25.3212 182.551 24.4793C182.589 24.35 182.625 24.2193 182.669 24.0935C182.66 24.1053 182.651 24.1165 182.642 24.129C183.585 21.1641 184.627 20.6392 184.714 20.601L184.975 20.5308C184.975 20.5308 184.735 19.9475 183.16 20.0914Z" fill="white"/>
<path fill-rule="evenodd" clip-rule="evenodd" d="M177.858 20.1669C177.858 20.1669 180.577 19.3286 181.22 20.7578C181.22 20.7578 177.74 20.4248 176.428 25.6295L175.729 23.1075L177.858 20.1669Z" fill="white"/>
<path fill-rule="evenodd" clip-rule="evenodd" d="M34.9889 7.95704L29.5402 6.47266L29.2812 7.38992L33.9409 10.1463L35.2998 9.21272L38.2362 14.1069L38.8049 13.0824L41.8957 16.4463L43.4911 10.2733L34.9889 7.95704Z" fill="#00A0A8"/>
<path fill-rule="evenodd" clip-rule="evenodd" d="M1.84961 8.03659L1.84992 8.0369C2.00495 8.57444 2.16184 9.10704 2.32149 9.63224C2.44848 9.50187 2.58071 9.38259 2.71478 9.26793C2.74283 9.24389 2.77057 9.21954 2.79923 9.19611C2.92868 9.08947 3.06029 8.98868 3.19375 8.89529C3.22211 8.87557 3.25047 8.85738 3.27882 8.83796C3.39749 8.75752 3.51708 8.6817 3.63697 8.61081C3.66348 8.5954 3.68968 8.57844 3.71588 8.56334C3.84718 8.48844 3.97817 8.41971 4.10886 8.35498C4.15108 8.33403 4.193 8.31399 4.23523 8.29396C4.36067 8.23478 4.4855 8.17837 4.60817 8.12783H4.60848L3.54975 7.70557L1.84961 8.03659Z" fill="#00A0A8"/>
<path fill-rule="evenodd" clip-rule="evenodd" d="M29.6182 5.23975L29.5898 7.16951C29.5898 7.16951 40.8679 10.8826 43.0954 12.2752L44.0348 9.36988L29.6182 5.23975Z" fill="#00777C"/>
<path fill-rule="evenodd" clip-rule="evenodd" d="M3.74016 6.47266C2.74584 6.70012 2.0018 6.90385 1.54102 7.03916C1.63471 7.38005 1.73119 7.71447 1.82735 8.04858L3.52749 7.71755L4.58622 8.13951C5.05564 7.94656 5.5004 7.81403 5.87519 7.72526C5.28742 7.21762 4.4053 6.74666 3.81814 6.50471L3.74016 6.47266Z" fill="#00777C"/>
<path fill-rule="evenodd" clip-rule="evenodd" d="M33.9688 32.7486C34.199 32.3908 34.4462 32.0268 34.6891 31.6575C34.9693 31.1147 35.2615 30.5784 35.5756 30.0591C35.9226 29.4846 36.2314 28.8358 36.6528 28.3072C36.6432 28.2801 36.6355 28.2517 36.6253 28.2249C36.4333 28.06 36.2484 27.8858 36.0397 27.7397C35.6298 27.8307 35.272 28.1244 34.8685 28.2421C34.8287 28.2535 34.7921 28.2557 34.7575 28.2523C34.057 29.1166 33.5395 30.2101 33.0109 31.1792C32.7406 31.6751 32.4336 32.1285 31.9805 32.4071C31.9506 32.4463 31.9207 32.4857 31.8905 32.5248C31.8606 32.5218 31.8295 32.5245 31.7989 32.5236C31.586 32.7061 31.3351 32.7924 31.0851 32.9459C30.8931 33.0636 30.7143 33.1962 30.5414 33.3364C30.5294 33.3802 30.5205 33.4252 30.5137 33.4702C30.5383 33.492 30.5627 33.5155 30.5818 33.55C30.6434 33.6616 30.7115 33.7679 30.784 33.8708C31.1803 34.1168 31.5166 34.4444 31.8846 34.7317C31.9198 34.7234 31.9558 34.7163 31.9897 34.7064C32.068 34.7539 32.1509 34.7853 32.2351 34.8063C32.6465 34.4759 32.9939 34.0737 33.4134 33.758C33.402 33.717 33.389 33.676 33.3702 33.6347C33.5835 33.3527 33.7771 33.0467 33.9688 32.7486Z" fill="#00777C"/>
<path fill-rule="evenodd" clip-rule="evenodd" d="M36.5581 17.6606C36.7267 17.561 36.8666 17.4131 36.9801 17.2568C36.9425 16.7104 36.7236 16.1802 36.0628 16.0273L36.0625 16.0283C36.5137 16.7624 36.5581 17.6606 36.5581 17.6606Z" fill="#EEA52D"/>
<path fill-rule="evenodd" clip-rule="evenodd" d="M35.82 19.4409C34.4016 20.2519 32.3741 19.9171 32.3741 19.9171C34.4176 19.8432 35.1558 18.4932 35.1558 18.4932C35.1558 18.4932 33.2002 19.7285 30.8223 18.712C30.8223 18.712 31.8909 22.5016 35.82 19.4409Z" fill="#EEA52D"/>
<path fill-rule="evenodd" clip-rule="evenodd" d="M31.9769 17.2519C31.972 17.0508 31.9831 16.8467 32.0065 16.6438C31.7689 16.722 31.4385 16.7954 31.1309 16.75C31.5642 17.08 31.9769 17.2519 31.9769 17.2519Z" fill="#EEA52D"/>
<path fill-rule="evenodd" clip-rule="evenodd" d="M32.3253 23.2872C32.3253 23.2872 31.4931 22.5949 30.5281 22.5L30.1582 22.6507C30.1545 22.6526 29.8897 22.7657 29.5898 22.995C30.3203 22.9232 31.1414 22.8991 31.6472 23.065L32.3253 23.2872Z" fill="#EEA52D"/>
<path fill-rule="evenodd" clip-rule="evenodd" d="M28.2677 22.7263C28.4603 22.4896 28.6718 22.2911 28.8746 22.1317C28.3084 21.5911 27.9527 20.8896 27.7409 20.3431L27.7403 20.3425C27.7403 20.3425 27.7215 21.8405 28.2677 22.7263Z" fill="#EEA52D"/>
<path fill-rule="evenodd" clip-rule="evenodd" d="M37.7912 22.7879C37.6442 23.208 37.2814 23.457 36.9686 23.6003C36.9686 23.6003 37.7696 23.8127 38.0982 23.3818C38.0982 23.3818 40.3673 23.3427 41.2657 22.938C40.1861 23.6201 36.1169 26.1197 33.1189 27.0111C33.1189 27.0111 33.388 24.767 34.324 24.369C34.324 24.369 32.7419 24.0109 31.5621 25.2296C32.1782 24.9818 32.9426 24.7734 33.568 24.9066C33.568 24.9066 30.6476 26.0032 30.213 27.3649L30.1609 26.3342C30.1258 25.6401 30.3751 24.8144 30.6041 24.2165C29.9359 24.2257 29.0239 24.3441 28.3951 24.4637L28.0906 24.5216C28.025 24.8455 27.9753 25.1892 27.9673 25.5184C27.9673 25.5184 28.9832 24.9328 29.6422 25.0514C29.6422 25.0514 29.182 26.668 29.4545 28.2797C29.4545 28.2797 29.1836 27.7835 27.4316 27.5693C27.4316 27.5693 27.4323 27.5699 27.4323 27.5702C29.5654 29.14 30.1618 31.8375 30.3104 32.8072C30.4821 32.9033 30.708 33.0448 30.9648 33.2414C31.653 32.4903 33.6358 30.1457 33.8691 27.834L33.907 27.4608L34.2556 27.3227C37.5727 26.0094 41.3709 24.2242 41.8939 23.5612C41.897 23.0502 41.8748 22.7056 41.8554 22.5C40.2489 22.9374 37.7912 22.7879 37.7912 22.7879Z" fill="#EEA52D"/>
<path fill-rule="evenodd" clip-rule="evenodd" d="M42.9677 20.4325C42.4373 20.3521 41.7475 20.1631 41.3181 19.7261C41.3634 20.0281 41.5182 20.3977 41.9725 20.6282C41.9725 20.6282 41.5219 21.8244 37.9102 22.2325C37.9182 22.354 37.9139 22.4313 37.9139 22.4313C40.7741 22.4618 42.4379 21.4909 42.4379 21.4909C42.7329 21.2687 43.1052 20.885 42.9206 20.4529L42.9677 20.4325Z" fill="#EEA52D"/>
<path fill-rule="evenodd" clip-rule="evenodd" d="M12.6943 28.436C14.0215 27.2876 14.7557 25.5597 15.133 24.3494C14.3818 25.2457 12.9323 26.2785 10.1719 27.2038C11.3542 29.1967 12.5637 31.0004 13.7756 32.6303C13.2473 29.8594 15.2146 27.8628 15.2146 27.8628C14.2148 27.6264 12.6943 28.436 12.6943 28.436Z" fill="#EEA52D"/>
<path fill-rule="evenodd" clip-rule="evenodd" d="M13.5045 24.1841C13.4361 24.4054 13.3541 24.6372 13.2539 24.8727C13.9736 24.4578 14.7331 23.8774 15.1982 23.1165C14.7266 23.8072 13.9825 24.0781 13.5045 24.1841Z" fill="#EEA52D"/>
<path fill-rule="evenodd" clip-rule="evenodd" d="M12.5462 23.1165C10.2829 23.9144 9.48866 25.2536 9.24609 25.8128C9.4415 26.1592 9.63753 26.4998 9.83448 26.8351L11.2452 25.5649C12.0037 24.8822 12.3717 23.8546 12.5462 23.1165Z" fill="#EEA52D"/>
<path fill-rule="evenodd" clip-rule="evenodd" d="M31.7586 38.2977C31.5505 38.5951 31.2442 39.471 30.6718 39.4997C30.0997 39.5287 29.6035 38.5341 29.3985 38.895C29.3985 38.895 27.5683 30.4892 20.0352 36.2021C21.9159 36.0581 26.5263 36.1799 28.5861 40.4857L28.7454 40.8189L27.5357 42.4666C27.839 42.6435 28.2415 42.8029 28.6144 42.7619C28.9781 42.7212 29.2953 42.4974 29.5847 42.0777L29.7576 41.8274L30.0612 41.812C30.1241 41.8083 31.6618 41.7056 31.6911 40.5856L31.7028 40.1331L32.1386 40.0089C32.1349 40.0092 32.3562 39.9232 32.5002 39.6144C32.6031 39.3928 32.6786 39.0368 32.6043 38.4823C32.2406 38.297 31.86 38.1528 31.7586 38.2977Z" fill="#EEA52D"/>
<path fill-rule="evenodd" clip-rule="evenodd" d="M24.6357 20.959C24.1114 21.1837 23.8876 21.433 23.8747 21.4481L22.9873 22.4622L22.7925 21.1368C22.7919 21.1325 22.7919 21.1285 22.7913 21.1245C22.2584 22.1364 21.5458 23.2469 20.6504 24.1327L22.0975 24.0597C22.3407 23.7998 22.5968 23.4747 22.7703 23.1128L23.2456 23.8217C23.2456 23.8217 23.5837 22.8169 23.9841 22.5417C23.9841 22.5417 24.451 24.8444 25.1156 25.3844C25.1156 25.3844 24.7497 23.9592 24.7087 22.6542C24.5928 22.0381 24.5934 21.4383 24.6357 20.959Z" fill="#EEA52D"/>
<path fill-rule="evenodd" clip-rule="evenodd" d="M19.6253 25.5823L17.2598 25.7016L18.5336 26.5464C18.9094 26.1904 19.2817 25.8637 19.6253 25.5823Z" fill="#EEA52D"/>
<path fill-rule="evenodd" clip-rule="evenodd" d="M22.6395 18.0234C22.7557 17.2836 22.9557 16.6213 23.2127 16.0273C23.0895 16.0332 22.9495 16.0483 22.8007 16.0705C22.6145 16.6493 22.1713 17.7078 21.2676 18.4956C21.3813 19.0929 21.4957 19.9929 21.3899 20.8716C22.1488 19.4951 22.5754 18.2206 22.6395 18.0234Z" fill="#EEA52D"/>
<path fill-rule="evenodd" clip-rule="evenodd" d="M21.3349 16.442C21.2017 16.4741 21.072 16.4923 20.9456 16.4987C20.1467 16.5391 19.5013 16.1073 19.1299 15.7192C19.1037 15.9871 19.0994 16.2124 19.136 16.3394C19.2664 16.79 20.0138 17.542 20.7147 17.7858C20.9989 17.3864 21.2621 16.9278 21.4508 16.4143C21.4415 16.4164 21.4307 16.4189 21.4218 16.4211L21.3349 16.442Z" fill="#EEA52D"/>
<path fill-rule="evenodd" clip-rule="evenodd" d="M21.076 25.8904C20.2841 26.4711 18.9261 27.5545 17.877 28.8521C18.4191 28.7852 19.0312 28.7408 19.5783 28.7769C19.7777 28.1462 20.2364 26.946 21.076 25.8904Z" fill="#EEA52D"/>
<path fill-rule="evenodd" clip-rule="evenodd" d="M25.8906 13.9258C25.9218 13.8977 28.5324 11.5506 30.0161 11.4757C30.0161 11.4757 29.7384 11.0436 29.2616 11.0676C29.2616 11.0676 30.2402 9.66308 30.4347 8.61884C30.1055 8.49062 29.7693 8.3849 29.4318 8.32202C29.0311 9.55367 28.5099 10.7292 28.0583 11.6474C28.3699 11.5204 28.5666 11.4622 28.5777 11.4591C28.5777 11.4591 27.1676 12.3437 25.8906 13.9258Z" fill="#EEA52D"/>
<path fill-rule="evenodd" clip-rule="evenodd" d="M16.9432 30.1974L16.6445 30.2652C17.0619 30.3814 17.7196 30.5698 18.2417 30.7405C18.5105 30.4187 18.7731 30.1358 19.0135 29.8972C18.2944 29.9407 17.4847 30.0744 16.9432 30.1974Z" fill="#EEA52D"/>
<path fill-rule="evenodd" clip-rule="evenodd" d="M19.0033 12.5561C19.6743 9.24338 22.4134 8.19173 22.4473 8.1791L22.5762 8.14704C23.6793 7.99725 24.6215 8.24351 25.3773 8.88369C26.1228 9.51461 26.547 10.4269 26.7877 11.2406C26.9979 10.8202 27.2284 10.3339 27.4562 9.81081C27.1366 9.01591 26.4197 7.53615 25.2056 6.56649C25.2056 6.56649 25.3427 7.38821 25.2682 7.80615C25.2682 7.80615 22.4381 5.39988 20.075 5.93341C20.075 5.93341 20.9349 6.5591 21.2659 7.43475C21.2659 7.43475 16.7308 5.97471 13.1114 8.13317C13.1114 8.13317 16.4038 8.33413 17.8459 10.3881C17.8459 10.3881 14.2114 11.4213 12.6367 14.0994V14.0997C14.9826 13.077 17.8715 12.6794 19.0033 12.5561Z" fill="#EEA52D"/>
<path fill-rule="evenodd" clip-rule="evenodd" d="M10.1125 13.2534C7.8662 14.2302 5.729 16.1325 4.93164 16.8879C5.33048 17.8853 5.73887 18.851 6.15527 19.7861C6.35407 18.5492 7.12801 15.7158 10.1125 13.2534Z" fill="#EEA52D"/>
<path fill-rule="evenodd" clip-rule="evenodd" d="M9.2294 8.40332C9.2294 8.40332 8.42032 6.24641 5.7234 5.8562C6.46498 6.30867 7.28238 6.94606 7.60107 7.69288L7.94104 8.4887L7.07741 8.54973C7.04967 8.55189 4.20604 8.79199 2.77344 10.8235C3.21789 12.2074 3.68114 13.5389 4.1595 14.8229C4.08676 13.0463 4.63416 9.80757 9.2294 8.40332Z" fill="#EEA52D"/>
<path fill-rule="evenodd" clip-rule="evenodd" d="M18.337 20.929C15.948 17.162 12.9453 19.5442 12.9453 19.5442C16.316 18.7684 18.337 20.929 18.337 20.929Z" fill="#EEA52D"/>
<path fill-rule="evenodd" clip-rule="evenodd" d="M25.5826 18.8606C25.5826 18.8606 26.6876 16.1279 29.5552 15.4893C29.5552 15.4893 25.5265 14.5933 25.5826 18.8606Z" fill="#EEA52D"/>
<path fill-rule="evenodd" clip-rule="evenodd" d="M27.7533 40.0569C27.8091 39.4744 27.2272 38.9489 26.6514 39.0876C26.5155 39.1205 26.391 39.1717 26.2726 39.2321C23.7039 36.9886 19.9387 37.6808 19.7446 37.7188L18.9395 37.8753L19.0122 37.0585C19.077 36.3382 19.1898 35.6595 19.3303 35.0308C18.9435 34.1804 18.7271 32.9611 19.3525 31.4385C18.3724 32.569 17.232 34.3364 16.9512 36.6511C18.9284 38.8589 20.8523 40.6357 22.6098 42.0489C22.6224 42.2178 22.6834 42.391 22.8104 42.5556C23.2043 43.066 23.7533 43.3286 24.3879 43.3878C24.8052 43.427 25.1846 43.1493 25.3255 42.7671C25.3292 42.7575 25.3335 42.7483 25.3369 42.7384C25.6026 42.7412 25.8707 42.6287 26.0658 42.3436C26.2307 42.1029 26.3953 41.8621 26.5602 41.6214C26.6009 41.5619 26.7408 41.3406 26.8552 41.1576C27.3813 41.0182 27.7025 40.5867 27.7533 40.0569Z" fill="#EEA52D"/>
<path fill-rule="evenodd" clip-rule="evenodd" d="M16.3791 27.7397C16.3645 27.7543 16.3505 27.7695 16.3359 27.7841C16.3499 27.7689 16.3657 27.7556 16.3791 27.7397Z" fill="#58B893"/>
<path fill-rule="evenodd" clip-rule="evenodd" d="M12.6872 23.3013C12.7024 23.2405 12.7206 23.1754 12.7346 23.1165C12.7006 23.1286 12.6702 23.142 12.6367 23.1542C12.6531 23.2034 12.6671 23.2539 12.6872 23.3013Z" fill="#58B893"/>
<path fill-rule="evenodd" clip-rule="evenodd" d="M15.4102 29.1514C15.581 29.1301 15.7574 29.1113 15.9343 29.093C15.9155 28.9465 15.8729 28.8036 15.82 28.6643C15.682 28.8255 15.5433 28.9866 15.4102 29.1514Z" fill="#58B893"/>
<path fill-rule="evenodd" clip-rule="evenodd" d="M12.9159 19.7882C12.9159 19.7882 15.9186 17.406 18.3079 21.173C18.3079 21.173 16.2866 19.0127 12.9159 19.7882ZM18.5477 26.606L17.2714 25.7596L15.4017 25.854L18.4096 24.5095C19.7874 23.8937 20.8661 22.4256 21.6185 21.0593C21.723 20.1818 21.6086 19.2833 21.4949 18.6876C20.9299 19.1795 20.1853 19.566 19.2082 19.6618C19.2082 19.6618 20.1625 19.0207 20.9521 17.9121C20.2521 17.6667 19.5069 16.9168 19.3768 16.4665C19.3398 16.3395 19.3441 16.1133 19.3706 15.8449C19.2994 15.7712 19.2372 15.6988 19.1872 15.6316L19.0889 15.499L19.0698 15.3354C19.0522 15.1846 19.0449 15.0426 19.0347 14.898C19.0193 14.8915 19.0011 14.8844 18.9891 14.8786C19.0023 14.857 19.0159 14.8361 19.0279 14.8139C19.01 14.5251 19.0014 14.2437 19.0097 13.9777C18.0176 14.0991 16.1538 14.3839 14.4108 14.9615C15.1665 15.283 16.0413 15.7644 16.7237 16.4514L17.8785 17.614C17.8785 17.614 13.8057 16.334 10.3275 18.6281C11.3517 17.1159 13.1369 16.5602 14.4958 16.3627C13.4843 15.8393 12.502 15.6236 12.4875 15.6205L10.7387 15.246L12.3463 14.4634C12.489 14.3941 12.6379 14.3312 12.7855 14.2668V14.2646C14.3602 11.5865 17.9947 10.5533 17.9947 10.5533C16.5526 8.49937 13.2599 8.29872 13.2599 8.29872C16.8796 6.13995 21.4147 7.59999 21.4147 7.59999C21.0837 6.72465 20.2235 6.09865 20.2235 6.09865C22.5866 5.56513 25.417 7.9717 25.417 7.9717C25.4913 7.55345 25.3544 6.73204 25.3544 6.73204C26.5676 7.70078 27.2842 9.179 27.6041 9.97451C28.1577 8.7031 28.6927 7.20947 28.8653 5.8792C28.5389 6.1566 28.1509 6.4081 27.7138 6.55358L27.1797 6.73143L26.9541 6.21547C26.9408 6.18526 25.8155 3.67266 23.7344 2.37721C23.9153 2.96376 24.0355 3.70009 23.9742 4.57389L23.8783 5.93653L22.9195 4.96286C22.8874 4.93019 20.0426 2.07763 16.7545 1.54102C16.7523 1.54379 16.7499 1.54626 16.748 1.54903C17.194 2.20492 17.6881 3.10615 17.9476 4.15934L18.3181 5.66345L17.0152 4.82509C16.9896 4.80876 14.5806 3.3068 10.6693 3.24639C11.0413 3.72413 11.4075 4.36769 11.6177 5.19865L11.8368 6.06506L10.9489 5.9618C10.915 5.9581 8.1567 5.64804 5.88389 6.10297C5.88636 6.10451 5.88882 6.10605 5.89098 6.10759C8.58235 6.50057 9.39019 8.65348 9.39019 8.65348C4.80112 10.0556 4.2491 13.2876 4.31999 15.0657C4.3992 15.279 4.47749 15.4956 4.55793 15.7058C5.56735 14.7846 7.50081 13.1735 9.60965 12.2288C9.09338 12.0488 8.41129 11.9172 7.58958 12.0081L5.13862 12.2788C11.9034 8.28362 14.5609 10.0648 14.5609 10.0648C12.751 9.82287 10.9328 10.3878 9.64879 10.9531C10.7849 11.2672 11.4556 11.8315 11.4978 11.8676L12.3679 12.6144L11.2651 12.9282C10.9208 13.0262 10.5747 13.1544 10.2313 13.3036C7.24006 15.7666 6.46396 18.6031 6.26454 19.8425C6.26947 19.8539 6.27441 19.8659 6.27965 19.8773C6.72626 18.7406 7.59328 17.267 9.26876 16.0621C9.26876 16.0621 7.11338 18.9415 7.04958 21.5494C7.5865 22.6805 8.13512 23.7618 8.69239 24.7995C9.35012 23.8308 10.685 22.54 13.3095 21.9014L14.1223 21.7035L14.0702 22.5384C14.0668 22.5942 14.0175 23.3013 13.745 24.1794C14.2178 24.0749 14.9511 23.808 15.4239 23.133C15.5996 22.851 15.7367 22.5449 15.8138 22.2117C15.8138 22.2117 16.1772 23.2162 15.1003 24.503C14.7239 25.7137 13.9894 27.4459 12.6595 28.5968C12.6595 28.5968 14.1802 27.7871 15.1801 28.0232C15.1801 28.0232 13.2697 29.9628 13.7201 32.6712C13.7811 32.7861 13.8443 32.8999 13.9102 33.0111C14.5686 33.888 15.2272 34.7177 15.8825 35.4944C16.3362 33.5006 17.3139 31.9484 18.2201 30.8625C17.6955 30.6912 17.0346 30.5019 16.6182 30.3857L15.5546 30.627L16.2512 29.4096C16.8503 28.3619 17.7078 27.4025 18.5477 26.606Z" fill="#FED81C"/>
<path fill-rule="evenodd" clip-rule="evenodd" d="M35.7677 19.5315C31.8937 22.4966 30.8378 18.7496 30.8378 18.7496C33.0027 19.6752 34.8126 18.7366 35.1202 18.5606C31.4388 19.8869 30.1837 15.8702 30.1837 15.8702C30.2651 16.1877 30.6951 16.4336 31.1161 16.6038C31.4348 16.6333 31.784 16.5933 32.0312 16.5514C32.2161 15.7626 33.1796 15.0146 34.6304 15.2744C35.2345 15.3829 35.6306 15.7525 35.892 16.1766L35.8932 16.1655C36.5593 16.3196 36.7756 16.8568 36.8108 17.4082C37.0595 17.0649 37.1782 16.6817 37.1782 16.6817C37.2669 18.2265 36.6163 19.0748 35.7677 19.5315ZM25.4504 18.7135C25.3943 14.4462 29.4231 15.3422 29.4231 15.3422C26.5554 15.9808 25.4504 18.7135 25.4504 18.7135ZM33.0493 14.3152C33.0493 14.3152 30.8288 12.2505 27.8835 14.576C27.8835 14.576 29.8752 10.636 33.0493 14.3152ZM37.9564 22.1588L37.9567 22.1585C41.5684 21.7501 42.019 20.5539 42.019 20.5539C41.5709 20.3264 41.414 19.9637 41.3662 19.6638C41.0925 19.3854 40.9233 19.0076 40.9717 18.4891C41.0482 17.6736 41.1946 17.1872 41.3403 16.8938C40.706 16.3146 39.7919 15.3934 39.1255 14.3568C39.1162 14.4949 39.1169 14.6191 39.1298 14.7208L39.447 17.1995L38.0131 15.1527C37.7336 14.7532 35.8007 11.9595 34.8452 9.67653C34.783 9.92095 34.7469 10.1423 34.7556 10.3084L34.8332 11.8519L33.7141 10.7855C33.6956 10.7676 32.1557 9.3227 30.3776 8.63013C30.1782 9.67283 29.2073 11.0669 29.2073 11.0669C29.6841 11.0429 29.9618 11.475 29.9618 11.475C28.5742 11.545 26.2022 13.6017 25.8742 13.8914C24.9308 15.0482 24.0511 16.585 23.8551 18.4306L23.9223 18.4515C23.9139 18.4783 23.8822 18.5776 23.8289 18.7317C23.8018 19.1567 23.8085 19.5963 23.8619 20.0515C24.2114 19.8774 24.6623 19.7115 25.2291 19.6049L26.1926 19.4233C26.1926 19.4233 24.6019 22.3524 25.2929 24.3638C24.9465 23.8669 24.7548 23.3121 24.6527 22.7697C24.6956 24.0719 25.0596 25.4894 25.0596 25.4894C24.3951 24.9491 23.9281 22.6464 23.9281 22.6464C23.5277 22.9216 23.1896 23.9264 23.1896 23.9264L22.7144 23.2175C22.5377 23.5855 22.2758 23.9156 22.0289 24.1776L23.794 24.0886L21.8476 25.3396C21.8387 25.3455 21.5727 25.519 21.1693 25.8158C20.3386 26.8727 19.8864 28.0649 19.6913 28.6853C20.0211 28.7066 20.3287 28.7559 20.5815 28.8484L21.6982 29.2568L20.7208 29.9339C20.7057 29.9447 19.9986 30.4493 19.1837 31.3924C18.57 32.907 18.7898 34.1192 19.176 34.9647C19.7764 32.281 20.8814 30.5162 20.9387 30.4258C19.8359 33.5349 20.1534 36.1963 20.1712 36.3366L20.1722 36.3372C27.7053 30.6243 29.5356 39.0301 29.5356 39.0301C29.7405 38.6692 30.2368 39.6638 30.8088 39.6351C31.3812 39.6062 31.6875 38.7302 31.8956 38.4328C31.9967 38.2882 32.3767 38.4318 32.7401 38.6171C32.6942 38.2808 32.5937 37.8721 32.4106 37.3756C31.3861 34.5976 29.6043 33.8415 29.5294 33.8104L29.1759 33.6658C29.4015 28.0316 26.2435 26.7873 24.789 26.5121C25.8909 26.6844 26.7745 27.0934 27.4865 27.6269C27.464 27.601 27.4486 27.5834 27.4486 27.5834C29.2005 27.7977 29.4714 28.2939 29.4714 28.2939C29.199 26.6825 29.6591 25.0659 29.6591 25.0659C29.0002 24.9473 27.9843 25.5329 27.9843 25.5329C27.992 25.208 28.0404 24.869 28.1048 24.549L27.3817 24.6868L27.7121 23.6906C27.8394 23.3075 28.0373 22.9836 28.2598 22.7111C27.7263 21.8543 27.7275 20.4192 27.7282 20.3292C27.5472 19.8619 27.4717 19.5084 27.464 19.4708C27.464 19.4708 28.577 21.6333 31.572 22.1724L30.6165 22.5616C31.571 22.6661 32.3887 23.3461 32.3887 23.3461L32.3816 23.3562L32.3894 23.3587L32.071 23.9976C31.9566 24.2263 31.7396 24.721 31.5852 25.2379C32.7648 24.0269 34.341 24.3832 34.341 24.3832C33.4049 24.7811 33.1359 27.0253 33.1359 27.0253C36.1339 26.1339 40.203 23.6342 41.2827 22.9525C40.3843 23.3571 38.1151 23.396 38.1151 23.396C37.8146 23.7902 37.1205 23.6466 37.004 23.6191C36.7118 23.756 36.4582 23.8001 36.4582 23.8001C37.5859 23.0267 37.1837 20.7638 37.1837 20.7638C37.8023 21.1087 37.9314 21.8083 37.9564 22.1588Z" fill="#FED81C"/>
<path fill-rule="evenodd" clip-rule="evenodd" d="M36.6869 18.8074C36.6869 18.8074 36.6887 18.8019 36.6887 18.8013C36.685 18.8061 36.6814 18.811 36.6777 18.8159C36.6808 18.8128 36.6838 18.8104 36.6869 18.8074Z" fill="#41886D"/>
<path fill-rule="evenodd" clip-rule="evenodd" d="M30.6713 24.1902C30.4426 24.7881 30.1933 25.6139 30.2284 26.308L30.2805 27.3386C30.7151 25.9769 33.6355 24.8803 33.6355 24.8803C33.0101 24.7471 32.2457 24.9555 31.6296 25.2033C31.7843 24.68 32.0053 24.176 32.1209 23.9445L32.4393 23.3056L31.7612 23.0834C31.2554 22.9176 30.4343 22.9416 29.7038 23.0134C30.0037 22.7841 30.2685 22.671 30.2722 22.6691L30.6421 22.5184L31.6219 22.1193C28.6269 21.5802 27.5139 19.4177 27.5139 19.4177C27.5216 19.4553 27.5978 19.8107 27.7793 20.2795C27.9911 20.826 28.3467 21.5275 28.9126 22.0681C28.7101 22.2275 28.4987 22.4259 28.3061 22.6627C28.0848 22.9342 27.8884 23.2566 27.7621 23.6376L27.4316 24.6337L28.1581 24.4953L28.4626 24.4374C29.0914 24.3178 30.0034 24.1994 30.6713 24.1902Z" fill="#1A1919"/>
<path fill-rule="evenodd" clip-rule="evenodd" d="M35.3049 16.075C35.4386 16.2263 35.5912 16.4301 35.5761 16.6458C35.5641 16.819 35.4917 16.955 35.3748 17.0533C35.3674 17.0638 35.3625 17.0745 35.3536 17.0847C35.2374 17.2203 35.0783 17.2749 34.9116 17.29C34.8444 17.314 34.7707 17.3273 34.6915 17.3267C34.023 17.3202 33.581 16.3283 34.1019 15.8626C34.4687 15.5347 35.0133 15.7446 35.3049 16.075ZM33.1097 16.4415C33.5067 16.4214 33.5379 17.0369 33.1406 17.0573C32.7436 17.0773 32.7127 16.4615 33.1097 16.4415ZM32.0504 16.4452C32.027 16.55 32.0159 16.6554 32.0208 16.7592C32.0208 16.7592 31.6081 16.6705 31.1747 16.5C30.742 16.3296 30.2889 16.0778 30.2051 15.7511C30.2051 15.7511 31.4712 19.8081 35.1933 18.4242C35.1933 18.4242 34.4551 19.7742 32.4116 19.8482C32.4116 19.8482 34.4391 20.1829 35.8575 19.372C36.1475 19.2062 36.4111 18.9917 36.6277 18.717C36.6296 18.7146 36.6314 18.7121 36.6333 18.7096C37.021 18.214 37.255 17.5249 37.1995 16.5626C37.1995 16.5626 37.0811 16.9454 36.8324 17.2884C36.719 17.4447 36.5791 17.5927 36.4105 17.6922C36.4105 17.6922 36.3661 16.7941 35.9148 16.0599C35.6538 15.6345 35.2571 15.2638 34.6518 15.1553C33.1933 14.8942 32.2276 15.6515 32.0504 16.4452Z" fill="#1A1919"/>
<path fill-rule="evenodd" clip-rule="evenodd" d="M33.2146 14.2072C30.0405 10.528 28.0488 14.468 28.0488 14.468C30.9942 12.1424 33.2146 14.2072 33.2146 14.2072Z" fill="#1A1919"/>
<path fill-rule="evenodd" clip-rule="evenodd" d="M23.3102 12.8788C23.7482 12.9007 24.2161 13.0052 24.6874 13.2425C24.0984 11.1907 22.1914 10.1711 22.1914 10.1711C22.1914 10.1711 23.1577 11.5375 23.3118 12.8785L23.3102 12.8788Z" fill="#A76521"/>
<path fill-rule="evenodd" clip-rule="evenodd" d="M23.8253 14.8959C24.0103 14.6129 24.2069 14.35 24.4122 14.1071C23.7612 13.3008 22.4427 13.2318 21.7421 13.2577C21.7464 13.2608 22.2328 13.6011 22.4137 14.2418C22.4137 14.2418 21.3007 15.3893 20.0352 14.845C20.2059 15.0167 20.5838 15.3188 21.0483 15.2075L21.1343 15.1865C22.062 14.9634 23.0797 14.7199 23.8253 14.8959Z" fill="#A76521"/>
<path fill-rule="evenodd" clip-rule="evenodd" d="M22.7411 13.2723C22.549 13.2607 22.3671 13.2559 22.1914 13.2534C22.3671 13.2559 22.5496 13.2607 22.7411 13.2723Z" fill="#E1E2E0"/>
<path fill-rule="evenodd" clip-rule="evenodd" d="M24.3496 13.8699C24.4183 13.9264 24.4834 13.9866 24.5485 14.0474V14.0468C24.4834 13.986 24.4177 13.9264 24.3496 13.8699Z" fill="#E1E2E0"/>
<path fill-rule="evenodd" clip-rule="evenodd" d="M22.7634 9.26901C22.3285 9.45548 19.692 10.7596 20.0726 14.7525C21.3382 15.2969 22.4511 14.1494 22.4511 14.1494C22.2705 13.5098 21.7857 13.1695 21.7798 13.1655C21.499 13.1754 21.3166 13.2007 21.3166 13.2007C21.3628 13.1701 21.4146 13.1396 21.4688 13.1091C21.483 13.1014 21.4978 13.0937 21.5126 13.0857C21.5582 13.0616 21.606 13.0376 21.6562 13.0142C21.6698 13.008 21.6827 13.0019 21.6963 12.9957C21.8322 12.935 21.9836 12.8789 22.1482 12.8311C22.1491 12.8311 22.1497 12.8308 22.1503 12.8305C22.4921 12.7322 22.8891 12.6739 23.3157 12.6949L23.3172 12.6946C23.1631 11.3535 22.1969 9.98716 22.1969 9.98716C24.2296 10.3382 25.2525 11.8226 25.7158 12.7972C25.742 12.7765 25.7679 12.7584 25.7938 12.7383C25.7272 12.0926 25.4711 10.5309 24.5248 9.73195C24.0566 9.33713 23.48 9.18487 22.7634 9.26901Z" fill="#D19627"/>
<path fill-rule="evenodd" clip-rule="evenodd" d="M32.9919 17.2598C33.3966 17.2398 33.3648 16.6242 32.9601 16.6443C32.5554 16.6643 32.5868 17.2798 32.9919 17.2598Z" fill="#FFFFFE"/>
<path fill-rule="evenodd" clip-rule="evenodd" d="M34.1331 15.8839C33.6122 16.3496 34.0542 17.3415 34.7227 17.3477C34.8019 17.3486 34.8756 17.3353 34.9428 17.3113C35.1095 17.2962 35.2686 17.2416 35.3851 17.1057C35.3937 17.0955 35.3986 17.0847 35.406 17.0746C35.5229 16.9759 35.5953 16.8403 35.6073 16.6671C35.6224 16.4513 35.4698 16.2476 35.3361 16.096C35.0445 15.7656 34.4999 15.556 34.1331 15.8839Z" fill="#FFFFFE"/>
<path fill-rule="evenodd" clip-rule="evenodd" d="M40.0684 9.55469C40.0848 9.74526 40.1024 9.94882 40.12 10.1628C40.1024 9.94882 40.0848 9.74526 40.0684 9.55469Z" fill="#DEDFDE"/>
<path fill-rule="evenodd" clip-rule="evenodd" d="M41.2829 15.2356C40.7626 14.7045 40.0207 13.6544 40.0207 13.6544C39.7205 13.1801 39.4949 12.6996 39.4188 12.2499L38.995 9.74435L38.2235 12.1657C38.1985 12.2446 38.0873 12.6012 37.9822 13.0571C36.888 11.3363 35.4887 8.88411 35.4363 7.71442L35.4088 7.09767C36.8695 7.46075 38.3264 7.86514 39.7778 8.31884L39.7859 8.31236C41.642 8.8989 42.7586 9.44075 42.8748 9.49808C42.419 11.4864 41.8848 13.4014 41.2829 15.2356ZM42.9044 20.3841L42.8573 20.4044C43.0419 20.8365 42.6696 21.2203 42.3749 21.4425C42.3749 21.4425 40.7108 22.4134 37.8509 22.3829C37.8509 22.3829 37.8549 22.3055 37.8468 22.1841C37.8237 21.8376 37.6986 21.1257 37.0732 20.7771C37.0732 20.7771 37.4754 23.04 36.3477 23.8133C36.3477 23.8133 36.5912 23.7705 36.8756 23.6404C37.1885 23.4971 37.5513 23.248 37.6983 22.8279C37.6983 22.8279 40.156 22.9774 41.7625 22.5401C41.7819 22.7457 41.8041 23.0902 41.801 23.6013C41.2779 24.2642 37.4798 26.0495 34.1627 27.3631L33.8434 27.4895C33.8434 27.4895 32.392 31.1942 30.1167 32.3082C29.8566 31.0993 29.1563 28.9473 27.3393 27.6103C26.6338 27.0909 25.7603 26.6946 24.6785 26.5253C26.133 26.8006 29.291 28.0449 29.0654 33.6791L29.4189 33.8237C29.4938 33.8548 31.2756 34.6109 32.3001 37.3888C32.4857 37.8918 32.5865 38.3046 32.6315 38.6433C32.7058 39.1978 32.6302 39.5538 32.5273 39.7754C32.3834 40.0842 32.1621 40.1702 32.1658 40.1699L31.7299 40.2941L31.7182 40.7466C31.6889 41.8666 30.1512 41.9693 30.0884 41.973L29.7848 41.9884L29.6119 42.2387C29.3224 42.6585 29.0053 42.8822 28.6416 42.9229C28.2686 42.9639 27.8661 42.8046 27.5628 42.6276L28.7726 40.9799L28.6132 40.6467C26.5534 36.3409 21.943 36.2191 20.0623 36.3631C20.0623 36.3631 19.6952 33.6332 20.8282 30.4391C20.7709 30.5294 19.6628 32.2961 19.063 34.9841C18.9225 35.6129 18.8097 36.2916 18.745 37.0119L18.6722 37.8287L19.4773 37.6721C19.6721 37.6339 23.4586 36.9373 26.0276 39.2039C26.4511 39.3679 26.8628 40.1138 26.8628 40.1138C26.8638 40.1147 26.8644 40.116 26.865 40.1169C25.6833 41.4379 24.688 42.4418 23.9896 43.1143C23.9847 43.1082 23.9788 43.1026 23.9751 43.0955C23.6521 42.9294 22.5626 42.148 22.2109 41.8941C20.4889 40.4985 18.6121 38.7576 16.6839 36.6044C16.9647 34.2897 18.1051 32.5224 19.0852 31.3918C19.8949 30.4579 20.5952 29.9577 20.6103 29.9472L21.5874 29.27L20.471 28.8616C20.2192 28.7695 19.9144 28.7189 19.5858 28.6971C19.0387 28.661 18.4266 28.7054 17.8844 28.7723C18.9336 27.4747 20.2916 26.3913 21.0834 25.8106C21.4733 25.5246 21.7282 25.3584 21.7372 25.3529L23.6836 24.1018L21.9316 24.1903L20.4846 24.2633C21.3799 23.3775 22.0925 22.267 22.6254 21.2551C22.6261 21.2591 22.6261 21.2631 22.6267 21.2674L22.8215 22.5928L23.7088 21.5787C23.7218 21.5636 23.9455 21.3143 24.4698 21.0896C24.4276 21.5689 24.427 22.1687 24.5429 22.7848C24.6449 23.3266 24.8366 23.8808 25.1824 24.3771C24.4914 22.3656 26.0821 19.4366 26.0821 19.4366L25.1186 19.6182C24.5518 19.7248 24.1009 19.8906 23.7514 20.0648C23.698 19.6095 23.6913 19.17 23.7184 18.745C23.7717 18.5909 23.8035 18.4916 23.8115 18.4648L23.7446 18.4438C23.9378 16.6226 24.7969 15.1024 25.7264 13.9509C27.0034 12.3688 28.4135 11.4842 28.4135 11.4842C28.4024 11.4873 28.2058 11.5456 27.8941 11.6726C28.3457 10.7544 28.8669 9.57884 29.2676 8.34719C29.6051 8.41007 29.9413 8.51579 30.2705 8.64401C32.0471 9.33719 33.5851 10.7809 33.6036 10.7988L34.7227 11.8652L34.6451 10.3216C34.6364 10.1555 34.6725 9.93421 34.7348 9.68979C35.6902 11.9728 37.6231 14.7665 37.9026 15.1659L39.3365 17.2128L39.0193 14.7341C39.0064 14.6324 39.0058 14.5082 39.015 14.3701C39.6814 15.4066 40.5956 16.3279 41.2299 16.9071C41.0841 17.2005 40.9377 17.6868 40.8612 18.5024C40.8128 19.0205 40.9814 19.399 41.2548 19.6776C41.6842 20.1147 42.374 20.3036 42.9044 20.3841ZM35.2196 28.6218L31.9919 34.2425C31.9919 34.2425 31.3588 33.6329 30.9159 33.3139C31.835 32.6238 34.1331 30.7202 34.945 28.3962L34.9477 28.3984C34.9493 28.3907 34.9514 28.3833 34.9527 28.3756C35.1358 28.3022 35.3136 28.2307 35.4884 28.1598C35.398 28.3164 35.3068 28.465 35.2162 28.6194L35.2196 28.6218ZM23.9671 43.1362L23.9551 43.1159C23.9551 43.1159 23.9653 43.1199 23.9785 43.1251C23.9748 43.1288 23.9708 43.1328 23.9671 43.1362ZM24.6529 13.2232C23.2628 12.5242 21.894 12.9585 21.2767 13.3656C21.2767 13.3656 23.4996 13.0518 24.4097 14.1796C24.2045 14.4225 24.0078 14.6854 23.8229 14.9684C23.0773 14.7924 22.0596 15.0359 21.1318 15.259L21.0458 15.28C20.5813 15.3912 20.2035 15.0892 20.0327 14.9175C19.6521 10.9245 22.2886 9.62045 22.7235 9.43397C23.4401 9.34983 24.0167 9.50209 24.4849 9.89692C25.4312 10.6958 25.6873 12.2576 25.7539 12.9033C25.728 12.9233 25.7021 12.9415 25.6759 12.9622C25.2126 11.9876 24.1897 10.5032 22.157 10.1521C22.157 10.1521 24.0639 11.1717 24.6529 13.2232ZM13.4988 32.7002C12.2868 31.0703 11.0774 29.2666 9.89507 27.2737C12.6555 26.3484 14.105 25.3156 14.8562 24.4193C15.9359 23.1309 15.5718 22.1243 15.5718 22.1243C15.497 22.4476 15.3663 22.7457 15.198 23.0209C14.7329 23.7819 13.9734 24.3623 13.2537 24.7771C13.3539 24.5416 13.4359 24.3099 13.5043 24.0886C13.7759 23.212 13.8249 22.5068 13.8283 22.451L13.8803 21.616L13.0676 21.8139C10.4431 22.4525 9.10818 23.7434 8.45045 24.7121C7.89319 23.6743 7.34455 22.5931 6.80764 21.4619C6.87144 18.8541 9.02682 15.9747 9.02682 15.9747C7.35134 17.1795 6.48431 18.6531 6.03771 19.7898C6.03247 19.7781 6.02723 19.7658 6.02199 19.7538C5.60558 18.8186 5.19719 17.853 4.79836 16.8556C5.59572 16.1001 7.73291 14.1978 9.9789 13.2211C10.326 13.0703 10.6755 12.9397 11.0232 12.8407L12.126 12.527L11.2559 11.7801C11.2136 11.7441 10.5429 11.1797 9.40685 10.8657C10.6909 10.3004 12.5091 9.73541 14.3189 9.97736C14.3189 9.97736 11.6615 8.19616 4.89668 12.1913L7.34764 11.9207C8.16935 11.8298 8.85144 11.9614 9.36771 12.1414C7.25887 13.0861 5.32541 14.6971 4.31599 15.6184C4.23586 15.4088 4.15726 15.1946 4.07805 14.9822C3.59969 13.6982 3.13644 12.3667 2.69199 10.9828C4.12459 8.9513 6.96822 8.7112 6.99596 8.70904L7.85959 8.64801L7.51962 7.85219C7.20092 7.10538 6.38353 6.46798 5.64195 6.01551C7.91476 5.56058 10.673 5.87065 10.7069 5.87435L11.5949 5.9776L11.3758 5.1112C11.1655 4.28024 10.7994 3.63668 10.4274 3.15894C14.3387 3.21935 16.7477 4.7213 16.7733 4.73764L18.0761 5.57599L17.7057 4.07188C17.4449 3.01315 16.9468 2.1076 16.499 1.45079C19.7926 1.98154 22.6455 4.84274 22.6775 4.87541L23.6364 5.84908L23.7323 4.48644C23.7936 3.61264 23.6734 2.8763 23.4925 2.28976C25.5736 3.58521 26.6989 6.09781 26.7121 6.12801L26.9377 6.64397L27.4719 6.46613C27.9089 6.32065 28.297 6.06914 28.6234 5.79175C28.4508 7.1214 27.916 8.61442 27.3628 9.88551C27.135 10.4086 26.9045 10.8949 26.6942 11.3153C26.4535 10.5016 26.0294 9.58932 25.2838 8.95839C24.5281 8.31822 23.5859 8.07195 22.4827 8.22175L22.3539 8.2538C22.32 8.26644 19.5809 9.31808 18.9099 12.6308C17.7781 12.7541 14.8891 13.1517 12.5433 14.1744C12.3947 14.2391 12.248 14.306 12.1044 14.376L10.4967 15.1585L12.2455 15.533C12.26 15.5361 13.2423 15.7518 14.2539 16.2752C12.895 16.4728 11.1098 17.0285 10.0855 18.5406C13.5638 16.2465 17.6366 17.5266 17.6366 17.5266L16.4817 16.364C15.7993 15.677 14.9246 15.1955 14.1688 14.874C15.9118 14.2964 17.7756 14.0116 18.7678 13.8902C18.7545 14.3137 18.7715 14.7649 18.8279 15.2479L18.847 15.4116L18.9453 15.5441C18.9946 15.6107 19.0584 15.6825 19.1284 15.7559C19.4998 16.1439 20.1452 16.5757 20.9441 16.5353C21.0705 16.5289 21.2002 16.5107 21.3334 16.4786L21.4203 16.4577C21.4292 16.4555 21.44 16.453 21.4493 16.4509C21.2607 16.9644 20.9974 17.423 20.7133 17.8225C19.923 18.933 18.9663 19.5744 18.9663 19.5744C19.9439 19.4785 20.688 19.0914 21.2529 18.5989C22.157 17.8111 22.6002 16.7526 22.7863 16.1738C22.9352 16.1516 23.0751 16.1365 23.1984 16.1307C22.9414 16.7246 22.7413 17.387 22.6251 18.1267C22.561 18.3239 22.1345 19.5984 21.3756 20.9749C20.6233 22.3407 19.5442 23.8069 18.1677 24.4221L15.1598 25.7665L17.0337 25.6719L19.3993 25.5526C19.0557 25.834 18.6833 26.1607 18.3076 26.5167C17.4671 27.3135 16.609 28.2736 16.0092 29.3221L15.3126 30.5399L16.3825 30.297L16.6811 30.2292C17.2227 30.1062 18.0324 29.9725 18.7514 29.929C18.511 30.1676 18.2484 30.4505 17.9797 30.7723C17.0732 31.8588 16.0946 33.4125 15.6406 35.407C14.9292 34.5634 14.2135 33.6618 13.4988 32.7002ZM9.1464 25.9776C9.38897 25.4185 10.1833 24.0793 12.4465 23.2813C12.2721 24.0195 11.904 25.0471 11.1455 25.7298L9.73479 27.0003C9.53784 26.6647 9.34181 26.3241 9.1464 25.9776ZM1.49579 6.97408C1.95658 6.83877 2.70062 6.63503 3.69493 6.40757L3.77291 6.43962C4.36007 6.68158 5.24219 7.15253 5.82997 7.66017C4.84767 7.89349 3.38548 8.4187 2.25401 9.57914C1.99479 8.72723 1.74021 7.86329 1.49579 6.97408ZM29.8399 5.93384C31.4149 6.20014 32.9869 6.51976 34.5548 6.88993L34.2681 7.46784C34.2068 7.59205 33.8304 8.3663 33.5974 9.18031C32.6974 8.48065 31.1973 7.48479 29.6091 7.15408C29.7086 6.74322 29.7875 6.33452 29.8399 5.93384ZM44.6024 8.61688L44.6021 8.61719C43.6216 8.20325 41.7412 7.61455 40.0096 7.10291C38.7996 6.72719 37.5858 6.38168 36.3689 6.06791C36.2857 6.0451 36.2376 6.03216 36.2376 6.03216L36.2423 6.03586C35.9454 5.96003 35.6486 5.88329 35.3515 5.81086L35.3299 5.32572L35.1166 5.7563C33.3832 5.34051 31.6442 4.98699 29.9019 4.69603C29.8933 4.46856 29.8766 4.2451 29.8405 4.03151L29.5561 2.34986L28.6995 3.825C28.6961 3.83086 28.5245 4.11503 28.2434 4.43743C27.8615 4.38226 27.4796 4.33356 27.0977 4.28455C26.243 2.95058 24.6532 1.03346 22.3209 0.46387L20.409 0L21.7165 1.47545C21.7433 1.50565 22.1946 2.02654 22.4069 2.99466C20.9071 1.79661 18.1242 -0.00893836 15.1212 0.142705L13.7256 0.212979L14.7187 1.1962C14.7283 1.20606 15.4279 1.90664 15.9833 2.98818C14.5381 2.40997 12.0754 1.73281 8.86932 1.97445L6.85264 2.12887L8.61257 3.12565C8.62058 3.13027 9.14979 3.45205 9.61675 4.14832C4.0238 4.8039 0.71476 5.91997 0.544623 5.97853L0 6.16562L0.149486 6.72164C5.55935 26.84 14.8312 37.5722 21.6567 43.0329C21.8416 43.1809 22.0247 43.323 22.2072 43.4635C22.2087 43.4651 22.21 43.4666 22.2115 43.4678C22.9414 44.1188 24.3678 44.8739 24.3678 44.8739L24.6634 44.5972C24.664 44.5975 24.6646 44.5975 24.6649 44.5978C24.7118 44.554 24.7654 44.5025 24.8157 44.4548L24.8677 44.4064L24.8674 44.4058C25.2216 44.0683 25.6614 43.6371 26.173 43.1125L26.2791 43.2117C26.3201 43.2499 26.4766 43.3908 26.7161 43.5526C27.5517 44.0226 27.9015 44.0883 27.9015 44.0883C28.1321 44.1428 28.3777 44.1727 28.6339 44.1598C28.6789 44.1576 28.7242 44.1542 28.7698 44.149C29.4189 44.079 29.9829 43.7517 30.4505 43.1747C31.3542 43.045 32.6715 42.5093 32.9129 41.1577C33.1373 41.0101 33.4082 40.7648 33.6101 40.3672C33.9436 39.7107 33.9781 38.859 33.7238 37.8324L33.7343 37.8213C33.5641 37.097 33.1169 36.16 32.944 35.8129C32.8555 35.6446 32.7646 35.4868 32.6725 35.3339C34.3615 32.9986 36.1224 30.2742 37.7938 27.1868C38.1486 27.0302 38.4824 26.8798 38.7909 26.7365C40.3098 26.0112 42.2612 24.8024 42.2612 24.8024V24.8027C43.0249 24.21 43.0311 23.8947 43.0329 23.7144C43.0394 23.1765 43.0203 22.7833 42.9984 22.5166C43.6429 22.0673 44.3595 21.2378 44.0852 20.1995C45.4321 19.1386 44.5784 16.2509 44.5784 16.2509C44.3068 16.3698 43.3279 16.4228 42.5746 16.4463C42.5574 16.4321 42.5361 16.4133 42.5179 16.3982C43.18 14.453 43.7702 12.4185 44.2723 10.2998L44.2837 10.3065C44.2797 10.3028 44.2772 10.2991 44.2732 10.2954C44.3925 9.79274 44.5124 9.29127 44.6212 8.77931L44.6227 8.77993L44.6566 8.64L44.6024 8.61688Z" fill="#1A1919"/>
</svg>
