<svg width="31" height="22" viewBox="0 0 31 22" fill="none" xmlns="http://www.w3.org/2000/svg">
<path d="M28.1666 2.01212C28.1666 1.98163 28.1819 1.95114 28.1819 1.92065L19.5789 10.1676L28.1666 18.1554C28.1666 18.0944 28.1513 18.0334 28.1513 17.9877V2.01212H28.1666Z" fill="#DFE6EB"/>
<path d="M18.2774 11.4482L14.7566 14.8019C14.5729 14.9696 14.3433 15.061 14.1137 15.061C13.8841 15.061 13.6698 14.9848 13.4861 14.8171L9.99587 11.5702L1.34692 19.8629C1.56123 19.9391 1.77554 20.0001 2.02047 20.0001H26.2222C26.5743 20.0001 26.8957 19.8934 27.1866 19.7409L18.2774 11.4482Z" fill="#DFE6EB"/>
<path d="M14.1138 12.8811L27.2479 0.289634C26.9417 0.121951 26.605 0 26.2223 0H2.02055C1.5307 0 1.10208 0.182927 0.75 0.47256L14.1138 12.8811Z" fill="#DFE6EB"/>
<path d="M0 2.31714V17.9878C0 18.1708 0.0459236 18.3385 0.0918472 18.5061L8.63363 10.3202L0 2.31714Z" fill="#DFE6EB"/>
</svg>
