<svg width="130" height="45" viewBox="0 0 130 45" fill="none" xmlns="http://www.w3.org/2000/svg">
<path fill-rule="evenodd" clip-rule="evenodd" d="M69.3262 18.8523C69.8246 18.8599 70.3251 18.8752 70.834 18.91C70.3265 18.8766 69.8239 18.8586 69.3262 18.8523Z" fill="#1D1D1B"/>
<path fill-rule="evenodd" clip-rule="evenodd" d="M71.416 18.9615C71.8011 18.9949 72.1842 19.0241 72.5742 19.0728C72.1849 19.0255 71.8004 18.9942 71.416 18.9615Z" fill="#1D1D1B"/>
<path fill-rule="evenodd" clip-rule="evenodd" d="M18.557 2.99988C18.557 2.99988 19.7555 4.38048 18.4854 7.45937C17.2154 10.5376 13.8473 15.6005 16.1205 17.3043C16.1205 17.3043 16.2915 15.4051 18.5494 12.2491C20.8066 9.09301 24.5653 3.09651 18.557 2.99988Z" fill="#1D1D1B"/>
<path fill-rule="evenodd" clip-rule="evenodd" d="M25.3841 22.3498C24.9649 22.3505 24.5722 22.233 24.2788 21.9015C23.6309 21.1715 23.6949 19.7304 24.162 18.8434C24.3323 18.5188 24.698 17.9967 25.2854 18.0057C25.3202 18.0064 25.3556 18.0085 25.3925 18.0134C25.9201 18.078 26.089 18.3179 26.1773 18.5195C26.4888 19.2327 26.1572 20.6863 25.3841 22.3498ZM29.6782 20.7982C28.5492 21.5886 27.0623 21.9758 26.7453 22.0523C27.348 20.5688 27.6559 19.0888 27.2089 18.0683C27.006 17.6018 26.5485 17.02 25.5294 16.8956C24.5618 16.776 23.7018 17.2953 23.1645 18.3193C22.5117 19.5615 22.4345 21.5205 23.4356 22.6488C23.6914 22.9373 24.1384 23.2987 24.8363 23.428C24.4533 24.1239 24.0063 24.8358 23.5072 25.5288C22.048 27.5552 20.73 27.8131 20.0953 27.7965C19.5343 27.2007 19.8527 25.0367 20.2058 23.0742C20.6188 20.7801 23.2548 17.419 23.2548 17.419C18.6348 17.3446 17.0289 22.0843 16.9803 25.1354C16.9427 27.4663 18.2809 28.4471 19.3244 28.7878L19.3181 28.8038C19.3417 28.8121 19.4912 28.8615 19.7283 28.8934C19.8895 28.9247 20.0369 28.94 20.1586 28.9421C20.2621 28.9442 20.3442 28.931 20.4116 28.9101C21.3883 28.8337 22.894 28.3081 24.4213 26.1872C24.9497 25.4531 25.5781 24.4638 26.1224 23.4009C26.3831 23.3495 26.6639 23.2709 26.9656 23.1583C27.2646 23.0888 28.974 22.6668 30.324 21.7214L29.6782 20.7982Z" fill="#1D1D1B"/>
<path fill-rule="evenodd" clip-rule="evenodd" d="M35.4284 22.5162C35.0217 22.5203 34.6171 22.3994 34.323 22.0671C33.6758 21.3379 33.7398 19.8961 34.2063 19.0091C34.3773 18.6844 34.7429 18.1623 35.3296 18.1721C35.3644 18.1728 35.3999 18.1749 35.4367 18.1797C35.9643 18.2444 36.134 18.4842 36.2222 18.6858C36.5337 19.399 36.2021 20.8526 35.4284 22.5162ZM39.7224 20.9646C38.5941 21.7543 37.1072 22.1422 36.7895 22.2186C37.3922 20.7345 37.7009 19.2552 37.2539 18.2346C37.0502 17.7682 36.5935 17.1863 35.5743 17.0619C34.6053 16.9389 33.7468 17.4616 33.2094 18.4849C32.5559 19.7272 32.4795 21.6861 33.4805 22.8151C33.7363 23.1036 34.1826 23.4651 34.8806 23.5944C34.4982 24.2902 34.0505 25.0021 33.5514 25.6952C32.0936 27.7216 30.7749 27.9795 30.1402 27.9635C29.5785 27.3677 29.8976 25.203 30.2508 23.2405C30.6637 20.9465 33.2991 17.5854 33.2991 17.5854C28.679 17.511 27.0738 22.2506 27.0252 25.301C26.9876 27.6319 28.3251 28.6128 29.3686 28.9534L29.363 28.9694C29.386 28.9784 29.5347 29.0264 29.769 29.0591C29.9324 29.0904 30.0811 29.1064 30.2035 29.1084C30.3078 29.1098 30.3898 29.0973 30.4572 29.0765C31.4339 28.9993 32.9397 28.4738 34.4663 26.3535C34.9939 25.6194 35.623 24.6302 36.1673 23.5673C36.4273 23.5158 36.7082 23.4366 37.0099 23.3247C37.3095 23.2551 39.0182 22.8332 40.3682 21.8877L39.7224 20.9646Z" fill="#1D1D1B"/>
<mask id="mask0_768_508" style="mask-type:alpha" maskUnits="userSpaceOnUse" x="0" y="5" width="19" height="29">
<path fill-rule="evenodd" clip-rule="evenodd" d="M0 5.26636V33.3823H18.8022V5.26636L0 5.26636L0 5.26636Z" fill="white"/>
</mask>
<g mask="url(#mask0_768_508)">
<path fill-rule="evenodd" clip-rule="evenodd" d="M18.6911 26.7619C18.5347 26.4261 18.4249 26.089 18.3512 25.7539C16.8628 27.334 14.9177 29.3632 13.533 30.6784C12.9546 31.2283 12.4311 31.587 11.9702 31.822C10.1802 27.7831 16.6835 20.2009 16.6835 20.2009C12.6876 20.1362 10.3936 23.0108 9.15551 25.7414C7.67202 26.7667 5.96052 27.642 4.88023 27.1943C2.6418 26.2662 4.11485 16.4303 7.57053 11.7435C11.0262 7.05737 13.0992 6.62151 14.3644 6.78278C15.6296 6.94406 17.8242 7.65105 16.8329 10.9378L18.1336 8.86203C18.1336 8.86203 17.7943 5.33545 13.5434 5.26732C9.29245 5.1985 3.533 8.81476 0.86912 16.8008C-1.79476 24.7862 2.34843 28.6562 4.15239 28.6847C5.04499 28.6993 6.74536 28.5978 8.35954 27.8992C8.02517 29.0462 7.88752 29.9722 7.88196 30.3413C7.85972 31.7024 8.74536 33.3597 10.1329 33.3819C10.3331 33.3854 10.518 33.3653 10.6946 33.3347C11.583 33.2832 12.842 32.8898 14.3095 31.4953C15.5969 30.2718 17.3613 28.4414 18.8023 26.9176C18.7585 26.8766 18.7203 26.8251 18.6911 26.7619Z" fill="#1D1D1B"/>
</g>
<path fill-rule="evenodd" clip-rule="evenodd" d="M60.4787 33.3134C59.8044 33.321 59.1322 33.2299 58.5184 33.0353L58.4461 33.0117C58.3578 32.9839 58.2702 32.9561 58.1923 32.9276C57.7808 32.7663 57.395 32.5584 57.0467 32.3082C56.6602 32.0301 56.3098 31.7479 56.0047 31.474C55.1739 30.4625 54.9549 29.1097 55.3533 27.4531C55.9289 25.0617 58.0102 22.4166 60.3835 21.036C61.673 20.4931 63.071 20.0802 64.5399 19.8063C65.86 21.8431 66.1812 24.5946 66.1596 25.9265C66.1221 28.2651 64.6414 33.3718 60.4787 33.3134ZM75.1419 18.9165C72.3028 18.3485 69.5507 18.1546 66.9688 18.3395C66.1603 17.7382 65.3567 17.2084 64.6449 16.7392C62.485 15.3148 60.9243 14.2853 60.9515 12.603C60.9904 10.1643 63.3442 7.81674 65.1072 7.84524C65.9859 7.87513 66.7304 8.24218 67.2017 8.87826C67.2886 8.99574 67.3609 9.12435 67.4269 9.25713C67.9087 10.0093 67.997 10.9471 67.7995 11.8793C66.6059 14.4 65.6397 16.9978 67.144 18.1247C67.144 18.1247 67.3157 16.2262 69.5729 13.0701C71.8308 9.91336 75.5889 3.91755 69.5806 3.82092C69.5806 3.82092 70.779 5.20152 69.509 8.27972C69.3261 8.72393 69.0981 9.20986 68.8513 9.7208C68.8513 9.71802 69.0112 6.15877 64.3314 6.08369C63.7446 6.07465 63.1962 6.13722 62.6845 6.25887C61.6967 6.43753 60.736 6.81362 59.9108 7.35793C59.6835 7.54702 59.4735 7.73749 59.2956 7.9231C57.7586 9.53241 57.1399 11.5845 57.2163 12.8108C57.3672 15.246 59.3004 16.5494 62.371 17.8633C62.8527 18.0691 63.3032 18.3791 63.7175 18.7872C63.5799 18.815 63.4443 18.8435 63.3115 18.8741C56.9515 20.3409 53.7711 24.0211 53.297 25.4747C52.6157 27.5595 52.3522 30.3242 56.3898 33.2237C56.4204 33.2459 56.4537 33.2626 56.485 33.2842C57.461 33.7569 58.4356 34.0398 59.4749 34.2268C61.1385 34.336 62.7436 34.1656 64.3126 33.5991C64.3251 33.5935 64.3411 33.5873 64.3529 33.5817C67.4005 32.5848 69.2378 31.2988 69.8141 29.7583C71.0175 26.5445 70.9514 22.2053 68.2389 19.4205C70.3856 19.3593 72.6226 19.5616 74.9215 20.0204L75.1975 20.076L75.4179 18.9714L75.1419 18.9165Z" fill="#1D1D1B"/>
<path fill-rule="evenodd" clip-rule="evenodd" d="M86.0905 24.9384C84.1384 29.1559 81.9758 28.9182 81.4454 28.7833C80.7571 28.3315 81.0901 26.0458 81.4613 23.9825C81.8743 21.6885 84.5103 18.3266 84.5103 18.3266C79.8896 18.2523 78.2844 22.9919 78.2358 26.043C78.2274 26.5296 78.2803 26.9564 78.3769 27.3318C76.9462 28.9578 75.663 28.807 75.2716 28.7076C74.5827 28.2564 74.9164 25.97 75.2869 23.9067C75.6998 21.6127 78.3366 18.2509 78.3366 18.2509C73.7158 18.1765 72.1107 22.9161 72.0613 25.9672C72.0203 28.5442 73.6588 29.4709 74.7224 29.7065L74.7203 29.7121C74.7662 29.7315 75.1402 29.8803 75.7151 29.89C76.502 29.9026 77.6657 29.6481 78.8788 28.4434C79.444 29.2602 80.2691 29.6433 80.8969 29.7816L80.8941 29.7879C80.94 29.8066 81.314 29.9561 81.8896 29.9651C83.1242 29.9853 85.2855 29.3589 87.1131 25.4118L86.0905 24.9384Z" fill="#1D1D1B"/>
<path fill-rule="evenodd" clip-rule="evenodd" d="M108.132 26.6478C106.39 29.4869 104.656 29.2916 104.189 29.1727C103.501 28.7215 103.834 26.4358 104.206 24.3719C104.618 22.0778 107.254 18.7167 107.254 18.7167C102.633 18.6423 101.029 23.3819 100.979 26.4323C100.938 29.0093 102.576 29.936 103.64 30.1716L103.638 30.1772C103.684 30.1967 104.058 30.3454 104.633 30.3552C105.569 30.3698 107.039 30.0097 108.492 28.1146C108.203 27.7045 108.102 27.181 108.132 26.6478Z" fill="#1D1D1B"/>
<path fill-rule="evenodd" clip-rule="evenodd" d="M119.504 25.4958C118.796 26.5532 117.723 27.8357 116.754 28.606C116.27 29.0217 115.996 28.8583 115.979 27.8072C115.962 26.7527 117.764 21.6501 117.679 20.3488C117.594 19.0474 116.121 18.9758 116.121 18.9758L116.122 18.9772C115.565 18.9334 114.839 19.2615 113.915 19.9762C113.01 20.6776 111.169 23.5007 109.758 25.7906C110.669 22.2014 112.223 18.85 112.223 18.85C108.562 18.7909 107.169 22.1493 107.178 26.0227C107.185 29.8962 109.115 30.3738 109.115 30.3738C109.105 29.9171 109.128 29.4374 109.176 28.9445C110.366 26.9146 111.981 24.2932 113.204 22.5678C113.697 21.9025 114.047 21.582 114.536 21.2824C115.235 20.8542 115.013 22.2389 114.494 23.8823C113.976 25.5257 113.919 27.9782 113.919 27.9782L113.922 27.972C113.849 28.7318 113.903 29.3498 114.145 29.7718C114.327 30.0909 114.607 30.2994 114.955 30.3738C115.069 30.3988 115.185 30.412 115.301 30.4134C117.433 30.4475 119.938 26.8743 120.441 26.1221L119.504 25.4958Z" fill="#1D1D1B"/>
<path fill-rule="evenodd" clip-rule="evenodd" d="M48.0669 12.4122C49.6582 8.83211 51.3238 7.15885 51.7631 7.0365C52.4534 8.18005 49.4302 16.7688 45.8355 22.3865C45.8841 17.8609 47.3579 14.0062 48.0669 12.4122ZM52.2915 6.03337C52.1983 5.98332 52.0975 5.94648 51.9891 5.92701C51.9515 5.91658 51.9244 5.91033 51.9244 5.91033C50.6251 5.75391 48.9616 8.35175 48.3047 9.47306C46.0523 13.3152 44.3436 18.6305 44.7169 24.0076C41.6158 28.196 40.2602 28.0389 40.1532 28.0194C40.1045 27.9972 40.0544 27.9902 40.0037 27.9826C39.5776 27.3972 39.759 25.7351 40.0392 24.0604C41.6227 18.5415 44.8219 18.2947 44.8219 18.2947C43.9627 17.4487 42.6558 17.5794 41.727 17.8276C41.6137 17.8554 41.506 17.8901 41.3975 17.9242C41.3064 17.9541 41.2216 17.9826 41.1438 18.0111C41.0402 18.05 40.9359 18.0869 40.8372 18.1314C40.703 18.1877 40.6217 18.2273 40.6217 18.2273L40.6203 18.2412C37.9787 19.5822 36.9804 22.992 36.9422 25.3785C36.8928 28.4303 39.2022 29.1713 40.1205 29.1859C40.2102 29.1873 40.2811 29.1769 40.3436 29.1609C40.9137 29.1289 41.8014 28.7945 43.0673 27.6211L43.0562 27.6364C43.5602 27.2339 44.2102 26.6312 44.9401 25.8866C45.3836 28.5964 46.3965 31.2797 48.1872 33.7566C48.2956 33.9061 48.4639 33.9874 48.6356 33.9902C48.7524 33.9916 48.8712 33.9575 48.9741 33.8831C49.2258 33.701 49.2828 33.3493 49.1006 33.0969C47.157 30.4087 46.2581 27.5439 45.9592 24.8105C49.2209 21.2568 53.4114 15.6614 54.2039 11.7894C55.0513 7.64477 53.1278 6.38095 52.2915 6.03337Z" fill="#1D1D1B"/>
<path fill-rule="evenodd" clip-rule="evenodd" d="M97.0458 22.6689C97.1953 18.3693 98.5842 14.7468 99.2655 13.2147C100.898 9.5421 102.608 7.87648 102.972 7.82226C102.974 7.82295 103.093 7.94252 103.116 8.45625C103.234 11.1333 100.594 18.2637 97.0994 22.6112C97.0813 22.6321 97.0639 22.6488 97.0458 22.6689ZM103.176 6.7093L103.179 6.72181C103.161 6.71903 103.14 6.71486 103.123 6.71277C101.818 6.56609 100.161 9.1542 99.5033 10.2755C97.4038 13.8556 95.7813 18.7155 95.8717 23.7124C94.6906 24.5083 93.6687 24.4499 92.7254 24.3923C91.912 24.037 94.2693 20.9206 94.2902 19.6533C94.3062 18.6432 93.2162 18.45 92.7713 18.4124C92.7108 18.4055 92.651 18.4034 92.5898 18.4034H92.585C92.1762 18.4076 91.7772 18.5584 91.5923 18.6307C90.2527 19.1556 88.9291 21.0561 87.8585 23.0429C88.7004 20.4819 89.6256 18.4861 89.6256 18.4861C85.9642 18.4277 84.5725 21.7854 84.5801 25.6595C84.5885 29.533 86.5175 30.0099 86.5175 30.0099C86.5078 29.5865 86.5273 29.143 86.5683 28.6884L86.578 28.6919C87.317 26.6488 89.5137 21.4851 91.4685 20.003C92.3104 19.7861 91.9955 19.6978 91.0472 22.0308C90.0914 24.3811 91.6764 25.257 91.6764 25.257L91.6778 25.2563C91.8641 25.3849 92.1115 25.4844 92.4466 25.5038L92.6552 25.5163C93.5735 25.5747 94.6781 25.638 95.9301 24.9887C96.1859 28.2678 97.221 31.5643 99.3865 34.5591C99.4942 34.7085 99.6624 34.7892 99.8342 34.7919C99.9516 34.794 100.071 34.7593 100.173 34.6856C100.425 34.5028 100.481 34.151 100.299 33.8987C98.0629 30.8052 97.1988 27.4767 97.0549 24.3853C97.1585 24.2755 97.2606 24.1573 97.3635 24.0405L97.3267 24.0996C98.4362 23.4871 99.4643 22.6835 100.274 21.7214C100.701 21.2146 101.088 20.6682 101.539 20.183C101.605 20.1121 101.674 20.0426 101.742 19.9738C103.532 17.4093 105.016 14.7336 105.455 12.5883C106.525 7.35928 103.176 6.7093 103.176 6.7093Z" fill="#1D1D1B"/>
<path fill-rule="evenodd" clip-rule="evenodd" d="M125.5 26.5444C125.402 26.4714 125.333 26.3748 125.286 26.2712C125.109 26.5437 124.924 26.8155 124.73 27.0845C123.273 29.1088 121.955 29.3695 121.319 29.3535C120.757 28.7585 121.076 26.593 121.429 24.6299C121.841 22.3358 124.478 18.974 124.478 18.974C119.857 18.8996 118.252 23.64 118.203 26.6904C118.167 28.9726 119.448 29.9618 120.481 30.3226C120.503 30.333 120.518 30.3504 120.541 30.3588C120.564 30.3678 120.713 30.4158 120.947 30.4477C121.111 30.4797 121.259 30.4957 121.382 30.4978C121.486 30.4992 121.568 30.4867 121.635 30.4651C122.613 30.3886 124.119 29.8624 125.644 27.7428C125.732 27.6205 125.823 27.4898 125.916 27.3542C125.87 27.0386 125.756 26.7355 125.5 26.5444Z" fill="#1D1D1B"/>
<path fill-rule="evenodd" clip-rule="evenodd" d="M110.001 6.75916C110.001 6.75916 110.734 8.04035 109.246 10.2795C107.759 12.5193 104.299 16.0021 105.833 17.7073C105.833 17.7073 106.266 16.2301 108.548 14.0834C110.829 11.9368 114.745 7.77549 110.001 6.75916Z" fill="#1D1D1B"/>
<path fill-rule="evenodd" clip-rule="evenodd" d="M89.7293 30.7743C89.7293 30.7743 90.1165 29.3499 92.7519 28.8188C95.3873 28.287 100.297 28.2703 100.418 25.9805C100.418 25.9805 99.0675 26.7187 95.9358 26.6228C92.8047 26.5276 87.0939 26.7021 89.7293 30.7743Z" fill="#1D1D1B"/>
<path fill-rule="evenodd" clip-rule="evenodd" d="M115.884 43.1128C114.47 43.0753 114.356 42.5031 114.318 42.3148C113.936 40.3891 117.856 35.7315 122.538 32.6902C121.264 37.5403 119.446 42.3801 115.884 43.1128ZM128.16 19.0913C128.134 19.0934 128.108 19.0962 128.081 19.099C128.051 19.1017 128.024 19.1031 127.993 19.1066V19.1087C127.383 19.1859 126.796 19.4598 126.456 20.1348C125.515 22.0082 124.676 23.7128 123.34 29.4138C123.208 29.9762 123.072 30.5525 122.931 31.1344C117.905 34.1382 112.642 39.6564 113.214 42.5337C113.362 43.2845 113.942 44.1889 115.855 44.2397H115.895C120.15 44.3085 123.232 37.37 125.266 31.1851L125.688 29.8608C125.693 29.8469 125.697 29.8337 125.701 29.8205C125.703 29.783 125.695 29.7482 125.705 29.7072C125.997 28.4761 126.316 27.3443 126.7 26.1445C126.992 25.2324 127.128 24.3211 127.552 23.4792C127.59 23.3499 127.626 23.2192 127.67 23.0934C127.661 23.1052 127.652 23.1163 127.643 23.1288C128.586 20.164 129.628 19.6391 129.715 19.6009L129.976 19.5307C129.976 19.5307 129.736 18.9474 128.16 19.0913Z" fill="#1D1D1B"/>
<path fill-rule="evenodd" clip-rule="evenodd" d="M122.859 19.1671C122.859 19.1671 125.578 18.3287 126.221 19.7579C126.221 19.7579 122.741 19.425 121.429 24.6297L120.729 22.1076L122.859 19.1671Z" fill="#1D1D1B"/>
</svg>
