<svg width="45" height="36" fill="none" xmlns="http://www.w3.org/2000/svg"><mask id="a" style="mask-type:luminance" maskUnits="userSpaceOnUse" x="0" y="0" width="45" height="36"><path fill-rule="evenodd" clip-rule="evenodd" d="M22.306.36H0V36h44.612V.36H22.306Z" fill="#fff"/></mask><g mask="url(#a)"><path fill-rule="evenodd" clip-rule="evenodd" d="M6.489 15.481H-.027v18.503C-.027 35.1.873 36 1.989 36h40.319a2.32 2.32 0 0 0 2.304-2.305V8.676a2.182 2.182 0 0 0-2.195-2.195H32.049c-1.08 0-1.98-.793-2.125-1.837l-.358-2.377C29.384 1.225 28.484.36 27.44.36H17.073c-1.08 0-1.98.828-2.124 1.907l-.36 2.377c-.144 1.044-1.081 1.837-2.123 1.837H2.133c-1.188 0-2.16.972-2.16 2.158v1.8h6.516a2.49 2.49 0 0 1 2.484 2.486v.035c0 1.405-1.116 2.521-2.484 2.521Zm32.363-4.97a2.505 2.505 0 0 1 2.52 2.521 2.505 2.505 0 0 1-2.52 2.521 2.505 2.505 0 0 1-2.519-2.52 2.528 2.528 0 0 1 2.519-2.521Zm-16.451.9c5.976 0 10.8 4.826 10.8 10.8 0 5.977-4.824 10.8-10.8 10.8-5.977 0-10.8-4.823-10.8-10.8 0-5.974 4.86-10.8 10.8-10.8Z" fill="#DFE6EB"/></g><path fill-rule="evenodd" clip-rule="evenodd" d="M27.694 22.212a5.4 5.4 0 1 1-10.8 0 5.4 5.4 0 0 1 10.8 0Z" fill="#DFE6EB"/></svg>