<svg width="300" height="73" viewBox="0 0 300 73" fill="none" xmlns="http://www.w3.org/2000/svg">
<g clip-path="url(#clip0_9873_27144)">
<path d="M204.893 30.2336C205.539 30.2982 206.121 30.3628 206.768 30.4274C206.121 30.3628 205.474 30.2982 204.893 30.2336Z" fill="white"/>
<path d="M120.388 4.78052C120.388 4.78052 122.327 6.97698 120.258 11.8867C118.189 16.7964 112.823 24.8717 116.508 27.5849C116.508 27.5849 116.767 24.5487 120.388 19.5097C124.008 14.4708 130.021 4.90972 120.388 4.78052Z" fill="white"/>
<path d="M138.168 33.1409C136.358 34.4329 133.966 35.0143 133.513 35.1435C134.483 32.7533 135 30.4276 134.224 28.8125C133.901 28.0373 133.19 27.1329 131.509 26.9391C129.957 26.7453 128.599 27.5851 127.759 29.2002C126.724 31.2028 126.595 34.3037 128.211 36.1125C128.599 36.5648 129.31 37.1462 130.474 37.34C129.892 38.4382 129.116 39.601 128.341 40.6993C126.013 43.9294 123.879 44.317 122.91 44.317C122.004 43.3479 122.522 39.924 123.104 36.7586C123.75 33.0763 127.953 27.7143 127.953 27.7143C120.582 27.5851 117.996 35.1435 117.931 40.0532C117.866 43.8002 120 45.3506 121.681 45.8674C121.746 45.8674 121.94 45.932 122.328 45.9966C122.586 46.0612 122.845 46.0612 123.039 46.0612C123.233 46.0612 123.362 46.0612 123.427 45.9966C124.979 45.8674 127.371 45.0276 129.828 41.6683C130.668 40.5055 131.703 38.8904 132.543 37.2108C132.931 37.1462 133.384 37.017 133.901 36.8232C134.354 36.694 137.134 36.0479 139.267 34.5621L138.168 33.1409ZM131.315 35.6603C130.668 35.6603 130.022 35.4665 129.569 34.9497C128.535 33.7869 128.664 31.4612 129.375 30.04C129.634 29.5232 130.216 28.6833 131.185 28.6833C131.25 28.6833 131.315 28.6833 131.379 28.6833C132.22 28.8125 132.479 29.2002 132.608 29.5232C133.06 30.686 132.543 33.0117 131.315 35.6603Z" fill="white"/>
<path d="M154.203 33.4639C152.393 34.7559 150.001 35.3373 149.548 35.4665C150.518 33.0762 151.035 30.7506 150.259 29.1355C149.936 28.3603 149.225 27.4559 147.544 27.2621C145.992 27.0683 144.634 27.9081 143.794 29.5232C142.759 31.5258 142.63 34.6267 144.246 36.4355C144.634 36.8878 145.346 37.4692 146.509 37.663C145.927 38.7612 145.152 39.924 144.376 41.0223C142.048 44.2524 139.915 44.64 138.945 44.64C138.04 43.6709 138.557 40.247 139.139 37.0816C139.785 33.3993 143.988 28.0373 143.988 28.0373C136.617 27.9081 134.031 35.4665 133.966 40.3762C133.902 44.1231 136.035 45.6736 137.716 46.1904C137.781 46.1904 137.975 46.255 138.363 46.3196C138.621 46.3842 138.88 46.3842 139.074 46.3842C139.268 46.3842 139.397 46.3842 139.462 46.3196C141.014 46.1904 143.406 45.3506 145.863 41.9913C146.703 40.8285 147.738 39.2134 148.578 37.5338C148.966 37.4692 149.419 37.34 149.936 37.1462C150.389 37.017 153.169 36.3709 155.302 34.8851L154.203 33.4639ZM147.35 35.9187C146.703 35.9187 146.057 35.7249 145.604 35.2081C144.57 34.0453 144.699 31.7196 145.41 30.2984C145.669 29.7816 146.251 28.9417 147.221 28.9417C147.285 28.9417 147.35 28.9417 147.415 28.9417C148.255 29.0709 148.514 29.4585 148.643 29.7816C149.16 30.9444 148.578 33.2701 147.35 35.9187Z" fill="white"/>
<path d="M120.647 42.7016C120.388 42.1848 120.194 41.6034 120.13 41.0866C117.737 43.6061 114.634 46.8362 112.436 48.968C111.53 49.8724 110.69 50.3893 109.914 50.7769C107.069 44.3167 117.414 32.2362 117.414 32.2362C111.013 32.107 107.392 36.6937 105.388 41.0866C102.996 42.7016 100.28 44.1229 98.5347 43.4123C94.9787 41.9264 97.3063 26.2282 102.802 18.7344C108.298 11.2406 111.66 10.53 113.664 10.7884C115.668 11.0468 119.224 12.145 117.608 17.4423L119.677 14.1477C119.677 14.1477 119.16 8.5273 112.371 8.3981C105.582 8.2689 96.4011 14.0831 92.1339 26.8096C87.8666 39.5362 94.5261 45.7379 97.3709 45.8025C98.7934 45.8025 101.509 45.6733 104.095 44.5751C103.578 46.3839 103.319 47.8698 103.319 48.4512C103.255 50.6477 104.677 53.2963 106.94 53.2963C107.263 53.2963 107.586 53.2963 107.845 53.2317C109.267 53.1671 111.272 52.5211 113.599 50.3247C115.668 48.3866 118.449 45.4795 120.776 43.0247C120.711 42.8954 120.647 42.7662 120.647 42.7016Z" fill="white"/>
<path d="M210.84 30.1691C206.314 29.2647 201.918 28.9417 197.78 29.2647C196.487 28.2957 195.194 27.4558 194.095 26.6806C190.668 24.4196 188.146 22.7399 188.211 20.0912C188.276 16.2151 192.026 12.4682 194.87 12.4682C196.293 12.5328 197.457 13.1143 198.233 14.1479C198.362 14.3417 198.491 14.5355 198.62 14.7293C199.396 15.9567 199.526 17.4426 199.202 18.9284C197.327 22.9337 195.776 27.0682 198.168 28.8771C198.168 28.8771 198.427 25.8408 202.047 20.8019C205.668 15.7629 211.681 6.20186 202.047 6.00806C202.047 6.00806 203.987 8.20452 201.918 13.1143C201.595 13.8249 201.271 14.6001 200.883 15.4399C200.883 15.4399 201.142 9.75496 193.642 9.62576C192.737 9.62576 191.832 9.69036 190.991 9.88416C189.439 10.1426 187.888 10.7886 186.53 11.6284C186.142 11.9514 185.819 12.2098 185.56 12.5328C183.103 15.1169 182.133 18.347 182.263 20.3497C182.521 24.2258 185.625 26.293 190.474 28.4249C191.25 28.7479 191.961 29.2647 192.608 29.9107C192.414 29.9753 192.155 29.9753 191.961 30.0399C181.81 32.3656 176.702 38.2443 175.991 40.57C174.892 43.9293 174.504 48.3222 180.905 52.9735C180.97 53.0381 181.034 53.0381 181.034 53.0381C182.586 53.8134 184.138 54.2656 185.819 54.524C188.47 54.7178 191.056 54.3948 193.577 53.4904H193.642C198.491 51.8753 201.465 49.8727 202.37 47.4178C204.31 42.3143 204.181 35.3373 199.849 30.9443C203.276 30.8151 206.832 31.1381 210.517 31.9134L210.97 31.978L211.293 30.2337L210.84 30.1691ZM187.37 53.1674C186.271 53.1674 185.237 53.0381 184.267 52.7151L184.138 52.6505C184.008 52.5859 183.879 52.5859 183.75 52.5213C183.103 52.2629 182.457 51.9399 181.939 51.5523C181.293 51.1001 180.776 50.6479 180.258 50.1957C178.901 48.5806 178.577 46.4488 179.224 43.8001C180.129 39.9886 183.491 35.7895 187.241 33.5284C189.31 32.6886 191.508 31.978 193.901 31.5904C196.034 34.8204 196.552 39.2134 196.487 41.3452C196.422 45.0921 194.03 53.232 187.37 53.1674Z" fill="white"/>
<path d="M228.298 39.7946C225.195 46.5132 221.703 46.1256 220.863 45.9318C219.764 45.2212 220.281 41.5389 220.863 38.2442C221.509 34.5619 225.712 29.1999 225.712 29.1999C218.341 29.0707 215.755 36.6291 215.691 41.5389C215.691 42.3141 215.755 43.0247 215.884 43.6061C213.622 46.1902 211.553 45.9318 210.906 45.8026C209.807 45.092 210.324 41.4097 210.906 38.115C211.553 34.4327 215.755 29.0707 215.755 29.0707C208.384 28.9415 205.798 36.4999 205.734 41.4097C205.669 45.5442 208.255 47.03 210.001 47.353C210.065 47.353 210.647 47.6114 211.617 47.6114C212.846 47.6114 214.721 47.2238 216.66 45.2858C217.566 46.5778 218.859 47.2238 219.893 47.4176C219.958 47.4176 220.54 47.676 221.509 47.676C223.514 47.676 226.941 46.707 229.85 40.376L228.298 39.7946Z" fill="white"/>
<path d="M263.535 42.508C260.755 47.0301 257.975 46.7071 257.263 46.5133C256.164 45.8027 256.682 42.1204 257.263 38.8257C257.91 35.1434 262.113 29.7814 262.113 29.7814C254.742 29.7168 252.156 37.2752 252.091 42.185C252.026 46.3195 254.613 47.8053 256.358 48.1283C256.423 48.1283 257.005 48.3867 257.975 48.3867C259.462 48.3867 261.789 47.8053 264.117 44.8336C263.664 44.1876 263.47 43.3478 263.535 42.508Z" fill="white"/>
<path d="M281.702 40.6346C280.539 42.3142 278.858 44.3815 277.306 45.6089C276.53 46.2549 276.077 45.9965 276.077 44.3169C276.077 42.6372 278.922 34.4974 278.793 32.4302C278.664 30.3629 276.271 30.2337 276.271 30.2337C275.366 30.1691 274.202 30.6859 272.715 31.8487C271.293 32.947 268.319 37.4691 266.056 41.1514C267.543 35.4018 270 30.0399 270 30.0399C264.181 29.9753 261.918 35.3372 261.918 41.4744C261.918 47.6762 265.021 48.4514 265.021 48.4514C265.021 47.7408 265.021 46.9655 265.151 46.1903C267.026 42.9602 269.612 38.7611 271.616 35.9832C272.392 34.9496 272.974 34.4328 273.75 33.916C274.849 33.2054 274.526 35.4664 273.685 38.0505C272.845 40.6992 272.78 44.5753 272.78 44.5753C272.651 45.8027 272.78 46.7717 273.168 47.4178C273.491 47.9346 273.879 48.2576 274.461 48.3868C274.655 48.4514 274.849 48.4514 275.043 48.4514C278.47 48.516 282.478 42.831 283.254 41.6036L281.702 40.6346Z" fill="white"/>
<path d="M174.31 9.62579C174.181 9.56119 173.987 9.49659 173.857 9.43199C173.793 9.43199 173.728 9.43199 173.728 9.43199C171.659 9.17358 169.008 13.3081 167.974 15.1169C164.353 21.2541 161.637 29.7169 162.219 38.309C157.241 44.963 155.107 44.7692 154.913 44.7046C154.849 44.6399 154.784 44.6399 154.655 44.6399C153.943 43.7355 154.267 41.0223 154.719 38.3736C157.241 29.5877 162.349 29.2001 162.349 29.2001C160.991 27.8435 158.857 28.0373 157.435 28.4249C157.241 28.4895 157.112 28.5541 156.918 28.5541C156.788 28.6187 156.659 28.6187 156.53 28.6833C156.336 28.7479 156.206 28.8125 156.012 28.8771C155.818 28.9417 155.689 29.0063 155.689 29.0063C151.487 31.1382 149.87 36.5647 149.806 40.3762C149.741 45.2214 153.426 46.4488 154.913 46.4488C155.043 46.4488 155.172 46.4488 155.301 46.3842C156.206 46.3196 157.629 45.8028 159.633 43.9293C160.409 43.2833 161.508 42.3143 162.672 41.1515C163.383 45.4798 164.999 49.7435 167.844 53.6842C168.038 53.9426 168.297 54.0718 168.556 54.0718C168.75 54.0718 168.943 54.0072 169.073 53.878C169.461 53.555 169.59 53.0382 169.267 52.6506C166.163 48.3869 164.741 43.8001 164.224 39.4072C169.461 33.7223 176.12 24.8072 177.413 18.6054C178.706 12.1453 175.668 10.1426 174.31 9.62579ZM167.586 19.7683C170.107 14.0833 172.758 11.37 173.469 11.1762C174.568 12.9851 169.719 26.7453 164.03 35.6603C164.094 28.4895 166.422 22.3523 167.586 19.7683Z" fill="white"/>
<path d="M255.581 10.6593H255.516C253.447 10.4009 250.797 14.5354 249.762 16.3442C246.4 22.0292 243.814 29.846 243.943 37.792C242.068 39.0841 240.452 38.9549 238.9 38.8903C237.607 38.3088 241.357 33.3345 241.422 31.3318C241.422 29.7168 239.676 29.3938 238.965 29.3292C238.9 29.3292 238.771 29.3292 238.706 29.3292C238.059 29.3292 237.413 29.5876 237.09 29.7168C234.956 30.5566 232.822 33.5929 231.141 36.7584C232.499 32.6885 233.986 29.4584 233.986 29.4584C228.167 29.3938 225.904 34.7557 225.904 40.8929C225.904 47.0301 229.008 47.8699 229.008 47.8699C229.008 47.2239 229.008 46.5133 229.072 45.738C230.236 42.508 233.792 34.2389 236.896 31.8487C238.253 31.5257 237.736 31.3318 236.249 35.0788C234.697 38.8257 237.284 40.2469 237.284 40.2469C237.607 40.4407 237.995 40.6345 238.512 40.6345H238.835C240.322 40.6991 242.068 40.8283 244.072 39.7947C244.46 45.0274 246.141 50.2602 249.568 55.0407C249.762 55.2991 250.021 55.4283 250.279 55.4283C250.473 55.4283 250.667 55.3637 250.797 55.2345C251.184 54.9115 251.314 54.3947 250.991 54.0071C247.434 49.0973 246.012 43.7354 245.818 38.8257C246.012 38.6318 246.141 38.438 246.335 38.2442L246.271 38.3088C248.016 37.3398 249.697 36.0478 250.991 34.4973C251.702 33.6575 252.284 32.8177 252.995 32.0425C253.124 31.9133 253.189 31.8487 253.318 31.7195C256.163 27.6495 258.555 23.3858 259.266 19.9619C260.947 11.6929 255.581 10.6593 255.581 10.6593ZM245.818 36.177C246.077 29.3292 248.275 23.515 249.374 21.0602C251.96 15.1814 254.741 12.5327 255.322 12.4681C255.322 12.4681 255.516 12.6619 255.581 13.5018C255.775 17.7655 251.572 29.1354 245.947 36.1124C245.883 36.1124 245.818 36.1124 245.818 36.177Z" fill="white"/>
<path d="M291.272 42.314C291.143 42.1848 291.014 42.0556 290.949 41.8618C290.69 42.314 290.367 42.7016 290.044 43.1538C287.716 46.3839 285.583 46.7715 284.613 46.7715C283.708 45.8025 284.225 42.3786 284.807 39.2131C285.453 35.5308 289.656 30.1689 289.656 30.1689C282.285 30.0397 279.699 37.5981 279.634 42.5078C279.57 46.1255 281.639 47.7406 283.255 48.322C283.32 48.322 283.32 48.3866 283.32 48.3866C283.384 48.3866 283.578 48.4512 283.966 48.5158C284.225 48.5804 284.483 48.5804 284.677 48.5804C284.871 48.5804 285.001 48.5804 285.065 48.5158C286.617 48.3866 289.009 47.5467 291.466 44.1875C291.595 43.9937 291.725 43.7998 291.919 43.5414C291.854 43.1538 291.66 42.637 291.272 42.314Z" fill="white"/>
<path d="M266.51 10.7239C266.51 10.7239 267.674 12.7911 265.282 16.3442C262.89 19.8973 257.394 25.4531 259.851 28.231C259.851 28.231 260.562 25.9053 264.183 22.4168C267.868 18.9929 274.075 12.4035 266.51 10.7239Z" fill="white"/>
<path d="M234.116 49.0974C234.116 49.0974 234.762 46.8363 238.965 45.9965C243.167 45.1567 250.991 45.0921 251.185 41.4744C251.185 41.4744 249.051 42.6372 244.008 42.508C239.03 42.3142 229.913 42.5726 234.116 49.0974Z" fill="white"/>
<path d="M295.54 30.4275C295.475 30.4275 295.475 30.4275 295.411 30.4275C295.346 30.4275 295.346 30.4275 295.282 30.4275C294.312 30.5567 293.342 31.0089 292.825 32.0425C291.338 35.0142 289.98 37.7275 287.846 46.8363C287.652 47.7408 287.394 48.6452 287.2 49.6142C279.182 54.3947 270.777 63.2452 271.682 67.8319C271.941 69.0593 272.846 70.4806 275.885 70.5452H275.95C282.738 70.6744 287.652 59.5629 290.95 49.6788L291.596 47.547V47.4824C291.596 47.4178 291.596 47.3532 291.596 47.2885C292.049 45.3505 292.566 43.5417 293.213 41.6036C293.665 40.1178 293.924 38.6965 294.57 37.3399C294.635 37.1461 294.7 36.9523 294.764 36.6939C294.764 36.6939 294.764 36.7585 294.7 36.7585C296.187 32.0425 297.868 31.2027 297.997 31.1381L298.385 31.0089C298.45 31.1381 298.062 30.2337 295.54 30.4275ZM275.885 68.8009C273.622 68.7363 273.428 67.8319 273.363 67.5089C272.782 64.408 278.988 56.9788 286.488 52.1337C284.484 59.8859 281.575 67.6381 275.885 68.8009Z" fill="white"/>
<path d="M287.069 30.5567C287.069 30.5567 291.401 29.2 292.435 31.5257C292.435 31.5257 286.875 31.0089 284.806 39.2779L283.707 35.2726L287.069 30.5567Z" fill="white"/>
<path d="M51.1416 39.6007C50.7536 40.5698 50.3657 41.9264 50.4304 43.0892L50.495 44.7689C51.2062 42.5724 55.9907 40.7636 55.9907 40.7636C54.9562 40.5698 53.7278 40.8928 52.6933 41.2804C52.9519 40.4406 53.3398 39.6007 53.4692 39.2131L53.9864 38.1795L52.8873 37.7919C52.0467 37.5335 50.689 37.5335 49.5252 37.6627C50.0424 37.2751 50.4304 37.0813 50.4304 37.0813L51.0123 36.8229L52.6286 36.1769C47.7148 35.2724 45.9045 31.7839 45.9045 31.7839C45.9045 31.8485 46.0338 32.43 46.3571 33.2052C46.6804 34.1096 47.2623 35.2724 48.2321 36.1123C47.9088 36.3707 47.5855 36.6937 47.2623 37.0813C46.8743 37.5335 46.551 38.0503 46.3571 38.6963L45.8398 40.3114L47.0036 40.1176L47.5209 40.053C48.5554 39.7946 50.0424 39.6007 51.1416 39.6007Z" fill="white"/>
<path d="M53.4704 27.0681C53.4058 27.2619 53.4058 27.3911 53.4058 27.5849C53.4058 27.5849 52.7592 27.4557 52.048 27.1327C51.3368 26.8743 50.6256 26.4221 50.4316 25.9053C50.4316 25.9053 52.5006 32.5592 58.5782 30.2982C58.5782 30.2982 57.3497 32.4946 54.0523 32.6238C54.0523 32.6238 57.3497 33.1407 59.6773 31.8486C60.1299 31.5902 60.5825 31.2026 60.9058 30.7504C61.5523 29.9106 61.9403 28.8123 61.811 27.2619C61.811 27.2619 61.617 27.9079 61.2291 28.4247C61.0351 28.6831 60.8411 28.9415 60.5178 29.0708C60.5178 29.0708 60.4532 27.5849 59.6773 26.4221C59.2247 25.7115 58.5782 25.13 57.6084 24.9362C55.3454 24.5486 53.7291 25.7761 53.4704 27.0681ZM55.2161 27.0681C55.8627 27.0035 55.9273 28.0371 55.2808 28.1017C54.5696 28.1017 54.5696 27.1327 55.2161 27.0681ZM58.7722 26.4867C58.9661 26.7451 59.2247 27.0681 59.2247 27.3911C59.2247 27.6495 59.0954 27.9079 58.9015 28.0371C58.9015 28.0371 58.9015 28.1017 58.8368 28.1017C58.6428 28.2955 58.3842 28.4247 58.1256 28.4247C57.9963 28.4893 57.867 28.4893 57.7377 28.4893C56.6385 28.4893 55.9273 26.8743 56.7678 26.0991C57.4144 25.5823 58.3196 25.9053 58.7722 26.4867Z" fill="white"/>
<path d="M74.224 14.0832C72.6076 13.4372 69.5688 12.4681 66.724 11.6283C64.7197 11.0469 62.78 10.4655 60.7757 9.94867C60.6464 9.88407 60.5818 9.88407 60.5818 9.88407C60.0645 9.75487 59.6119 9.62566 59.0947 9.49646L59.03 8.72124L58.7068 9.43186C55.8619 8.72124 53.0171 8.20442 50.1723 7.68761C50.1723 7.3 50.1076 6.97699 50.043 6.58938L49.5904 3.8115L48.168 6.20177C48.168 6.20177 47.9093 6.65398 47.3921 7.1708C46.7456 7.10619 46.1637 6.97699 45.5171 6.91239C44.0947 4.71593 41.5085 1.61504 37.6938 0.646018L34.655 0L36.7887 2.39027C36.8533 2.45487 37.5645 3.29469 37.8878 4.84513C35.4309 2.90708 30.905 -0.0646018 25.9912 0.193805L23.7283 0.323009L25.3447 1.93805C25.3447 1.93805 26.5085 3.10088 27.4137 4.84513C25.0214 3.87611 21.0128 2.77788 15.7757 3.16549L12.4783 3.42389L15.3231 5.03894C15.3231 5.03894 16.2283 5.55575 16.9395 6.71858C7.8878 7.81681 2.45676 9.69027 2.19814 9.75487L1.29297 10.0779L1.55159 10.9823C10.4093 43.8646 25.5387 61.3717 36.724 70.2867C37.0473 70.5451 37.3059 70.7389 37.6292 70.9973C38.793 72.031 41.1852 73.323 41.1852 73.323L41.6378 72.8708C41.7024 72.8062 41.8318 72.7416 41.8964 72.6124L41.9611 72.5478C42.543 71.9664 43.2542 71.3204 44.0947 70.4159L44.2887 70.6097C44.3533 70.6743 44.6119 70.9327 44.9999 71.1911C46.3576 71.9664 46.9395 72.0956 46.9395 72.0956C47.3274 72.1602 47.7154 72.2248 48.168 72.2248C48.2326 72.2248 48.2973 72.2248 48.3619 72.2248C49.3964 72.0956 50.3662 71.5788 51.0774 70.6097C52.5645 70.4159 54.6981 69.5115 55.0861 67.315C55.474 67.0566 55.9266 66.669 56.2499 66.023C56.7671 64.9248 56.8318 63.5681 56.4438 61.8885C56.1852 60.7257 55.4093 59.1752 55.1507 58.5938C55.0214 58.3354 54.8274 58.077 54.6981 57.8186C57.4783 54.0071 60.3231 49.5496 63.0387 44.5106C63.6205 44.2522 64.1378 43.9938 64.655 43.8C67.1119 42.6372 70.3447 40.6345 70.3447 40.6345C71.5731 39.6655 71.5731 39.1487 71.6378 38.8257C71.6378 37.9212 71.6378 37.2752 71.5731 36.8876C72.6076 36.177 73.7714 34.8204 73.3188 33.0761C75.5171 31.3319 74.0947 26.6159 74.0947 26.6159C73.6421 26.8097 72.0257 26.8743 70.7973 26.9389L70.7326 26.8743C71.8318 23.7088 72.8016 20.3496 73.5774 16.9257C73.7714 16.0858 73.9654 15.3106 74.1593 14.4708L74.224 14.2124V14.0832ZM50.043 9.69026C52.6292 10.1425 55.2154 10.6593 57.7369 11.2407L57.2843 12.2097C57.155 12.4035 56.5731 13.6956 56.1852 14.9876C54.6981 13.8248 52.2412 12.2097 49.655 11.6929C49.849 10.9823 49.9783 10.3363 50.043 9.69026ZM3.74987 11.3699C4.52573 11.1761 5.68952 10.7885 7.37055 10.4655L7.49987 10.5301C8.46969 10.9177 9.89211 11.6929 10.8619 12.5327C9.24555 12.9204 6.85331 13.7602 5.04297 15.6982C4.52573 14.277 4.1378 12.8558 3.74987 11.3699ZM16.2283 42.4434C16.6162 41.5389 17.9093 39.3425 21.5947 38.0504C21.3361 39.2779 20.6895 40.9575 19.4611 42.0557L17.1335 44.123C16.8749 43.5416 16.5516 42.9602 16.2283 42.4434ZM23.3404 53.4257C21.4007 50.7124 19.3964 47.8053 17.4568 44.5752C21.9826 43.0894 24.3102 41.3451 25.5387 39.9239C27.2843 37.792 26.7024 36.177 26.7024 36.177C26.5731 36.6938 26.3792 37.2106 26.1206 37.6628C25.3447 38.8903 24.1162 39.8593 22.9524 40.5053C23.1464 40.1177 23.2757 39.7301 23.3404 39.4071C23.793 37.9858 23.8576 36.823 23.8576 36.7584L23.9223 35.4018L22.6292 35.5956C18.3619 36.6292 16.1637 38.7611 15.0645 40.3115C14.1593 38.6319 13.2542 36.823 12.349 35.0142C12.4783 30.7504 15.9697 26.0345 15.9697 26.0345C13.2542 27.9726 11.8318 30.4274 11.0559 32.2363V32.1717C10.3447 30.6212 9.69814 29.0708 9.05159 27.4558C10.3447 26.2283 13.8361 23.1274 17.5214 21.5124C18.1033 21.254 18.6852 21.0602 19.2024 20.8664L21.0128 20.3496L19.5904 19.1221C19.5257 19.0575 18.4266 18.1531 16.5516 17.6363C18.6206 16.7319 21.5947 15.7628 24.5688 16.215C24.5688 16.215 20.2369 13.308 9.1809 19.8327L13.1895 19.3805C14.5473 19.2513 15.6464 19.4451 16.4869 19.7681C13.0602 21.3186 9.89211 23.9673 8.21107 25.4531C8.08176 25.1301 7.95245 24.7425 7.82314 24.4195C7.04728 22.3522 6.27142 20.1558 5.56021 17.8947C7.8878 14.6 12.543 14.2124 12.6076 14.2124L14.03 14.0832L13.4481 12.7911C12.9309 11.5637 11.5731 10.5301 10.4093 9.81947C14.0947 9.04425 18.6206 9.56106 18.6852 9.56106L20.1076 9.75487L19.7197 8.33363C19.3964 6.97699 18.7499 5.94336 18.168 5.16814C24.5688 5.29734 28.5128 7.68761 28.5128 7.75221L30.6464 9.10885L30.0645 6.65398C29.6119 4.90973 28.8361 3.42389 28.0602 2.39027C33.6206 3.23009 38.3404 7.88142 38.3404 7.94602L39.8921 9.56106L40.0214 7.3646C40.1507 5.94336 39.9568 4.71593 39.6335 3.7469C43.0602 5.87876 44.8706 9.94867 44.8706 10.0133L45.2585 10.8531L46.1637 10.5947C46.8749 10.3363 47.5214 9.94867 48.0387 9.49646C47.78 11.6929 46.8749 14.0832 45.9697 16.1504C45.5818 16.9903 45.1938 17.8301 44.8706 18.4761C44.4826 17.1195 43.7714 15.6336 42.543 14.6C41.3145 13.5664 39.7628 13.1788 37.9524 13.3726L37.7585 13.4372C37.6938 13.4372 33.2326 15.1814 32.1335 20.608C30.2585 20.8018 25.5387 21.4478 21.724 23.1274C21.4654 23.2566 21.2714 23.3212 21.0128 23.4504L18.3619 24.7425L21.2068 25.3239C21.2068 25.3239 22.8231 25.7115 24.5042 26.5513C22.3059 26.8743 19.3964 27.7788 17.7154 30.2336C23.405 26.4867 30.0645 28.554 30.0645 28.554L28.1895 26.6805C27.0904 25.5823 25.668 24.7425 24.4395 24.2257C27.2843 23.2566 30.3231 22.8044 31.9395 22.6106C31.9395 23.3212 31.9395 24.0319 32.0688 24.8071V25.0655L32.1981 25.2593C32.2628 25.3885 32.3921 25.5177 32.5214 25.5823C33.1033 26.2283 34.2024 26.9389 35.4956 26.8743C35.6895 26.8743 35.8835 26.8097 36.1421 26.8097L36.2714 26.7451C36.2714 26.7451 36.2714 26.7451 36.3361 26.7451C36.0128 27.585 35.6249 28.3602 35.1076 29.0062C33.8145 30.815 32.2628 31.8487 32.2628 31.8487C33.8792 31.7195 35.1076 31.0735 36.0128 30.2336C37.4999 28.9416 38.2111 27.1973 38.5343 26.2929C38.793 26.2283 38.9869 26.2283 39.1809 26.2283C38.793 27.1973 38.405 28.2956 38.2757 29.4584C38.1464 29.9106 37.4999 31.9779 36.2068 34.2389C34.9783 36.5 33.2326 38.8903 30.9697 39.8593L26.0559 42.0557L29.0947 41.9265L32.974 41.7327C32.3921 42.185 31.8102 42.7018 31.1637 43.2832C29.8059 44.5752 28.3835 46.1257 27.4137 47.8699L26.2499 49.8726L27.9956 49.485L28.5128 49.3558C29.418 49.1619 30.7111 48.9681 31.8749 48.8389C31.4869 49.2265 31.0343 49.6788 30.5818 50.1956C29.0947 51.9398 27.4783 54.5239 26.7671 57.754C25.668 56.4619 24.5042 54.9761 23.3404 53.4257ZM41.5731 21.577C39.3102 20.4142 37.0473 21.1248 36.0774 21.8354C36.0774 21.8354 39.6981 21.3186 41.1852 23.192C40.8619 23.5796 40.5387 24.0319 40.2154 24.4841C38.9869 24.2257 37.3059 24.6133 35.8188 24.9363L35.6895 25.0009C34.9137 25.1947 34.3318 24.6779 34.0085 24.4195C33.3619 17.8947 37.6938 15.7628 38.405 15.4398C39.5688 15.3106 40.5387 15.569 41.3145 16.215C42.8662 17.5071 43.2542 20.0912 43.3835 21.1248C43.3188 21.1894 43.3188 21.1894 43.2542 21.1894C42.4783 19.5743 40.7973 17.1841 37.4999 16.6027C37.4999 16.6027 40.6033 18.2177 41.5731 21.577ZM58.8361 46.7717L53.5343 55.9451C53.5343 55.9451 52.4999 54.9761 51.7887 54.4593C53.2757 53.3611 57.0257 50.1956 58.3835 46.4487C58.3835 46.4487 58.3835 46.4487 58.3835 46.3841C58.7068 46.2549 58.9654 46.1257 59.2887 46.0611C59.1593 46.2549 59.03 46.5133 58.8361 46.7717ZM71.4438 33.2699L71.3792 33.3345C71.7024 34.0451 71.0559 34.6912 70.6033 35.0142C70.6033 35.0142 67.8878 36.6292 63.2326 36.5646C63.2326 36.5646 63.2326 36.4354 63.2326 36.2416C63.168 35.6602 62.974 34.4973 61.9395 33.9159C61.9395 33.9159 62.5861 37.5982 60.7757 38.8903C60.7757 38.8903 61.1637 38.8257 61.6162 38.6319C62.1335 38.3734 62.7154 37.9858 62.974 37.2752C62.974 37.2752 66.9826 37.5336 69.6335 36.823C69.6335 37.146 69.6981 37.7274 69.6981 38.5673C68.8576 39.6655 62.6507 42.5726 57.2197 44.7044L56.7024 44.8982C56.7024 44.8982 54.3102 50.9708 50.6249 52.7796C50.1723 50.777 49.0731 47.2885 46.099 45.092C44.9352 44.2522 43.5128 43.6062 41.7671 43.3478C44.1593 43.8 49.3318 45.8027 48.9438 55.0407L49.5257 55.2991C49.655 55.3637 52.5645 56.5911 54.2456 61.1133C54.5688 61.9531 54.6981 62.5991 54.7628 63.1805C54.8921 64.085 54.7628 64.6664 54.5688 65.054C54.3102 65.5708 53.9869 65.7 53.9869 65.7L53.2757 65.8938V66.6044C53.2111 68.4133 50.6895 68.6071 50.6249 68.6071H50.1076L49.849 68.9947C49.3964 69.7053 48.8792 70.0283 48.2326 70.0929C47.6507 70.1575 46.9395 69.8991 46.4869 69.6407L48.4912 66.9274L48.2326 66.4106C44.8706 59.369 37.3059 59.1752 34.2671 59.4336C34.2671 59.4336 33.6852 54.9761 35.4956 49.7434C35.4309 49.8726 33.6206 52.7796 32.5861 57.1726C32.3274 58.2062 32.1981 59.3044 32.0688 60.4673L31.9395 61.8239L33.2326 61.5655C33.5559 61.5009 39.7628 60.338 43.9654 64.085C44.6766 64.3434 45.3231 65.5708 45.3231 65.5708C43.3835 67.7027 41.7671 69.3823 40.6033 70.4805C40.0861 70.2221 38.2757 68.9301 37.6938 68.5425C34.849 66.2814 31.8102 63.4389 28.6421 59.8858C29.0947 56.0743 30.9697 53.2319 32.5861 51.3584C33.8792 49.808 35.043 49.0327 35.1076 48.9681L36.724 47.8699L34.9137 47.2239C34.5257 47.0947 34.0085 46.9655 33.4912 46.9655C32.5861 46.9009 31.6162 46.9655 30.7111 47.0947C32.4568 44.9628 34.655 43.2186 35.9481 42.2496C36.5947 41.7973 36.9826 41.5389 37.0473 41.4743L40.2154 39.4071L37.3706 39.5363L34.9783 39.6655C36.4654 38.2442 37.6292 36.4354 38.4697 34.7557L38.793 36.9522L40.2154 35.2726C40.2154 35.2726 40.6033 34.8204 41.4438 34.4973C41.3792 35.2726 41.3792 36.2416 41.5731 37.2752C41.7671 38.1796 42.0257 39.0841 42.6076 39.8593C41.5085 36.5646 44.0947 31.7841 44.0947 31.7841L42.543 32.1071C41.6378 32.3009 40.8619 32.5593 40.28 32.8177C40.2154 32.0425 40.1507 31.3319 40.2154 30.6858C40.28 30.4274 40.3447 30.2982 40.3447 30.2336L40.0861 30.1044C40.4093 27.1327 41.8318 24.6779 43.3188 22.7398C45.3878 20.1558 47.7154 18.7345 47.7154 18.7345C47.7154 18.7345 47.3921 18.8637 46.8749 19.0575C47.5861 17.5717 48.4912 15.6336 49.1378 13.631C49.7197 13.7602 50.2369 13.8894 50.7542 14.1478C53.6637 15.3106 56.1852 17.6363 56.1852 17.6363L57.9955 19.3805L57.8662 16.8611C57.8662 16.6027 57.9309 16.215 57.9955 15.8274C59.5473 19.5743 62.7154 24.0965 63.168 24.7425L65.4956 28.1018L64.9783 24.0319C64.9783 23.8381 64.9783 23.6442 64.9783 23.4504C66.0774 25.1301 67.5645 26.6159 68.599 27.585C68.3404 28.0372 68.1464 28.877 68.0171 30.169C67.9524 31.0088 68.2111 31.6549 68.6637 32.1071C69.4395 32.8823 70.5387 33.1407 71.4438 33.2699ZM68.793 24.8717C67.9524 24.0319 66.724 22.2876 66.724 22.2876C66.2068 21.5124 65.8835 20.7372 65.7542 19.9619L65.043 15.892L63.7499 19.8327C63.7499 20.0265 63.5559 20.608 63.3619 21.3186C61.5516 18.4761 59.2887 14.4708 59.224 12.5973L59.1593 11.5637C61.5516 12.1451 63.9438 12.7912 66.2714 13.5664C69.3102 14.5354 71.1206 15.4398 71.3145 15.5044C70.6033 18.7345 69.7628 21.9 68.793 24.8717Z" fill="white"/>
</g>
<defs>
<clipPath id="clip0_9873_27144">
<rect width="300" height="73" fill="white"/>
</clipPath>
</defs>
</svg>
