<svg width="16" height="14" viewBox="0 0 16 14" fill="none" xmlns="http://www.w3.org/2000/svg">
<path d="M15.3334 6.16699C15.3334 5.81337 15.1929 5.47423 14.9429 5.22418C14.6928 4.97413 14.3537 4.83366 14.0001 4.83366H9.78675L10.4267 1.78699C10.4401 1.72033 10.4467 1.64699 10.4467 1.57366C10.4467 1.30033 10.3334 1.04699 10.1534 0.866992L9.44675 0.166992L5.06008 4.55366C4.81342 4.80033 4.66675 5.13366 4.66675 5.50033V12.167C4.66675 12.5206 4.80722 12.8598 5.05727 13.1098C5.30732 13.3598 5.64646 13.5003 6.00008 13.5003H12.0001C12.5534 13.5003 13.0267 13.167 13.2267 12.687L15.2401 7.98699C15.3001 7.83366 15.3334 7.67366 15.3334 7.50033V6.16699ZM0.666748 13.5003H3.33341V5.50033H0.666748V13.5003Z" fill="#DFE6EB"/>
</svg>
