<svg width="20" height="20" viewBox="0 0 20 20" fill="none" xmlns="http://www.w3.org/2000/svg">
<path fill-rule="evenodd" clip-rule="evenodd" d="M18.8961 0H1.1038C0.494127 0 0 0.494127 0 1.1038V18.8961C0 19.5057 0.494127 20 1.1038 20H10.6826V12.2549H8.07621V9.23652H10.6826V7.01055C10.6826 4.42736 12.2603 3.02074 14.5648 3.02074C15.6686 3.02074 16.6173 3.10287 16.8938 3.13959V5.83923L15.2955 5.83997C14.0423 5.83997 13.7996 6.43549 13.7996 7.30939V9.23652H16.7885L16.3994 12.2549H13.7996V20H18.8961C19.5057 20 19.9999 19.5057 19.9999 18.8961V1.1038C19.9999 0.494127 19.5057 0 18.8961 0Z" fill="#8494A1"/>
</svg>
