<svg width="20" height="20" viewBox="0 0 20 20" fill="none" xmlns="http://www.w3.org/2000/svg">
<path fill-rule="evenodd" clip-rule="evenodd" d="M17.6928 19.9996H2.30721C1.0331 19.9996 0 18.9661 0 17.6912V2.30718C0 1.03291 1.0331 0 2.30721 0H17.6928C18.9671 0 20 1.03291 20 2.30718V17.6912C20 18.9661 18.9671 19.9996 17.6928 19.9996ZM9.99991 6.15349C7.87558 6.15349 6.15374 7.87513 6.15374 9.99944C6.15374 12.1234 7.87558 13.8459 9.99991 13.8459C12.1242 13.8459 13.8464 12.1234 13.8464 9.99944C13.8464 7.87513 12.1242 6.15349 9.99991 6.15349ZM17.6928 3.0763C17.6928 2.65172 17.3482 2.30718 16.9228 2.30718H14.6156C14.1906 2.30718 13.8464 2.65172 13.8464 3.0763V5.38437C13.8464 5.80895 14.1906 6.15349 14.6156 6.15349H16.9228C17.3482 6.15349 17.6928 5.80895 17.6928 5.38437V3.0763ZM17.6928 8.4605H15.9517C16.0786 8.95292 16.1535 9.46744 16.1535 9.99944C16.1535 13.3986 13.3985 16.1533 9.99991 16.1533C6.60147 16.1533 3.84635 13.3986 3.84635 9.99944C3.84635 9.46744 3.92162 8.95292 4.04848 8.4605H2.30721V16.9226C2.30721 17.3468 2.65175 17.6912 3.07722 17.6912H16.9228C17.3482 17.6912 17.6928 17.3468 17.6928 16.9226V8.4605Z" fill="#8494A1"/>
</svg>
