<svg width="130" height="42" viewBox="0 0 130 42" fill="none" xmlns="http://www.w3.org/2000/svg">
<path fill-rule="evenodd" clip-rule="evenodd" d="M69.3262 15.8523C69.8246 15.8599 70.3251 15.8752 70.834 15.91C70.3265 15.8766 69.8239 15.8586 69.3262 15.8523Z" fill="white"/>
<path fill-rule="evenodd" clip-rule="evenodd" d="M71.416 15.9615C71.8011 15.9949 72.1842 16.0241 72.5742 16.0728C72.1849 16.0255 71.8004 15.9942 71.416 15.9615Z" fill="white"/>
<path fill-rule="evenodd" clip-rule="evenodd" d="M18.557 -0.00012207C18.557 -0.00012207 19.7555 1.38048 18.4854 4.45937C17.2154 7.53757 13.8473 12.6005 16.1205 14.3043C16.1205 14.3043 16.2915 12.4051 18.5494 9.24907C20.8066 6.09301 24.5653 0.0965061 18.557 -0.00012207Z" fill="white"/>
<path fill-rule="evenodd" clip-rule="evenodd" d="M25.3832 19.3498C24.964 19.3505 24.5712 19.233 24.2778 18.9015C23.6299 18.1715 23.6939 16.7304 24.1611 15.8434C24.3314 15.5188 24.697 14.9967 25.2844 15.0057C25.3192 15.0064 25.3547 15.0085 25.3915 15.0134C25.9191 15.078 26.0881 15.3179 26.1763 15.5195C26.4878 16.2327 26.1562 17.6863 25.3832 19.3498ZM29.6772 17.7982C28.5483 18.5886 27.0613 18.9758 26.7443 19.0523C27.347 17.5688 27.655 16.0888 27.208 15.0683C27.005 14.6018 26.5476 14.02 25.5284 13.8956C24.5608 13.776 23.7009 14.2953 23.1635 15.3193C22.5107 16.5615 22.4336 18.5205 23.4346 19.6488C23.6904 19.9373 24.1374 20.2987 24.8354 20.428C24.4523 21.1239 24.0053 21.8358 23.5062 22.5288C22.0471 24.5552 20.729 24.8131 20.0943 24.7965C19.5333 24.2007 19.8517 22.0367 20.2049 20.0742C20.6178 17.7801 23.2539 14.419 23.2539 14.419C18.6338 14.3446 17.0279 19.0843 16.9793 22.1354C16.9417 24.4663 18.2799 25.4471 19.3234 25.7878L19.3171 25.8038C19.3408 25.8121 19.4902 25.8615 19.7273 25.8934C19.8886 25.9247 20.0359 25.94 20.1576 25.9421C20.2612 25.9442 20.3432 25.931 20.4106 25.9101C21.3873 25.8337 22.8931 25.3081 24.4204 23.1872C24.9487 22.4531 25.5771 21.4638 26.1214 20.4009C26.3821 20.3495 26.663 20.2709 26.9647 20.1583C27.2636 20.0888 28.973 19.6668 30.323 18.7214L29.6772 17.7982Z" fill="white"/>
<path fill-rule="evenodd" clip-rule="evenodd" d="M35.4274 19.5162C35.0207 19.5203 34.6161 19.3994 34.3221 19.0671C33.6749 18.3379 33.7388 16.8961 34.2053 16.0091C34.3763 15.6844 34.742 15.1623 35.3287 15.1721C35.3634 15.1728 35.3989 15.1749 35.4357 15.1797C35.9634 15.2444 36.133 15.4842 36.2213 15.6858C36.5327 16.399 36.2011 17.8526 35.4274 19.5162ZM39.7214 17.9646C38.5932 18.7543 37.1062 19.1422 36.7885 19.2186C37.3912 17.7345 37.6999 16.2552 37.2529 15.2346C37.0492 14.7682 36.5925 14.1863 35.5734 14.0619C34.6043 13.9389 33.7458 14.4616 33.2084 15.4849C32.555 16.7272 32.4785 18.6861 33.4795 19.8151C33.7353 20.1036 34.1816 20.4651 34.8796 20.5944C34.4973 21.2902 34.0496 22.0021 33.5504 22.6952C32.0927 24.7216 30.7739 24.9795 30.1393 24.9635C29.5776 24.3677 29.8966 22.203 30.2498 20.2405C30.6627 17.9465 33.2981 14.5854 33.2981 14.5854C28.678 14.511 27.0729 19.2506 27.0242 22.301C26.9867 24.6319 28.3242 25.6128 29.3676 25.9534L29.3621 25.9694C29.385 25.9784 29.5338 26.0264 29.768 26.0591C29.9314 26.0904 30.0802 26.1064 30.2025 26.1084C30.3068 26.1098 30.3888 26.0973 30.4562 26.0765C31.433 25.9993 32.9387 25.4738 34.4653 23.3535C34.9929 22.6194 35.622 21.6302 36.1663 20.5673C36.4263 20.5158 36.7072 20.4366 37.0089 20.3247C37.3085 20.2551 39.0172 19.8332 40.3672 18.8877L39.7214 17.9646Z" fill="white"/>
<mask id="mask0_0_31327" style="mask-type:alpha" maskUnits="userSpaceOnUse" x="0" y="2" width="19" height="29">
<path fill-rule="evenodd" clip-rule="evenodd" d="M0 2.26636V30.3823H18.8022V2.26636L0 2.26636L0 2.26636Z" fill="white"/>
</mask>
<g mask="url(#mask0_0_31327)">
<path fill-rule="evenodd" clip-rule="evenodd" d="M18.6911 23.7619C18.5347 23.4261 18.4249 23.089 18.3512 22.7539C16.8628 24.334 14.9177 26.3632 13.533 27.6784C12.9546 28.2283 12.4311 28.587 11.9702 28.822C10.1802 24.7831 16.6835 17.2009 16.6835 17.2009C12.6876 17.1362 10.3936 20.0108 9.15551 22.7414C7.67202 23.7667 5.96052 24.642 4.88023 24.1943C2.6418 23.2662 4.11485 13.4303 7.57053 8.74349C11.0262 4.05737 13.0992 3.62151 14.3644 3.78278C15.6296 3.94406 17.8242 4.65105 16.8329 7.9378L18.1336 5.86203C18.1336 5.86203 17.7943 2.33545 13.5434 2.26732C9.29245 2.1985 3.533 5.81476 0.86912 13.8008C-1.79476 21.7862 2.34843 25.6562 4.15239 25.6847C5.04499 25.6993 6.74536 25.5978 8.35954 24.8992C8.02517 26.0462 7.88752 26.9722 7.88196 27.3413C7.85972 28.7024 8.74536 30.3597 10.1329 30.3819C10.3331 30.3854 10.518 30.3653 10.6946 30.3347C11.583 30.2832 12.842 29.8898 14.3095 28.4953C15.5969 27.2718 17.3613 25.4414 18.8023 23.9176C18.7585 23.8766 18.7203 23.8251 18.6911 23.7619Z" fill="white"/>
</g>
<path fill-rule="evenodd" clip-rule="evenodd" d="M60.4787 30.3134C59.8044 30.321 59.1322 30.2299 58.5184 30.0353L58.4461 30.0117C58.3578 29.9839 58.2702 29.9561 58.1923 29.9276C57.7808 29.7663 57.395 29.5584 57.0467 29.3082C56.6602 29.0301 56.3098 28.7479 56.0047 28.474C55.1739 27.4625 54.9549 26.1097 55.3533 24.4531C55.9289 22.0617 58.0102 19.4166 60.3835 18.036C61.673 17.4931 63.071 17.0802 64.5399 16.8063C65.86 18.8431 66.1812 21.5946 66.1596 22.9265C66.1221 25.2651 64.6414 30.3718 60.4787 30.3134ZM75.1419 15.9165C72.3028 15.3485 69.5507 15.1546 66.9688 15.3395C66.1603 14.7382 65.3567 14.2084 64.6449 13.7392C62.485 12.3148 60.9243 11.2853 60.9515 9.60296C60.9904 7.16432 63.3442 4.81674 65.1072 4.84524C65.9859 4.87513 66.7304 5.24218 67.2017 5.87826C67.2886 5.99574 67.3609 6.12435 67.4269 6.25713C67.9087 7.0093 67.997 7.94708 67.7995 8.87929C66.6059 11.4 65.6397 13.9978 67.144 15.1247C67.144 15.1247 67.3157 13.2262 69.5729 10.0701C71.8308 6.91336 75.5889 0.917551 69.5806 0.820923C69.5806 0.820923 70.779 2.20152 69.509 5.27972C69.3261 5.72393 69.0981 6.20986 68.8513 6.7208C68.8513 6.71802 69.0112 3.15877 64.3314 3.08369C63.7446 3.07465 63.1962 3.13722 62.6845 3.25887C61.6967 3.43753 60.736 3.81362 59.9108 4.35793C59.6835 4.54702 59.4735 4.73749 59.2956 4.9231C57.7586 6.53241 57.1399 8.58454 57.2163 9.81082C57.3672 12.246 59.3004 13.5494 62.371 14.8633C62.8527 15.0691 63.3032 15.3791 63.7175 15.7872C63.5799 15.815 63.4443 15.8435 63.3115 15.8741C56.9515 17.3409 53.7711 21.0211 53.297 22.4747C52.6157 24.5595 52.3522 27.3242 56.3898 30.2237C56.4204 30.2459 56.4537 30.2626 56.485 30.2842C57.461 30.7569 58.4356 31.0398 59.4749 31.2268C61.1385 31.336 62.7436 31.1656 64.3126 30.5991C64.3251 30.5935 64.3411 30.5873 64.3529 30.5817C67.4005 29.5848 69.2378 28.2988 69.8141 26.7583C71.0175 23.5445 70.9514 19.2053 68.2389 16.4205C70.3856 16.3593 72.6226 16.5616 74.9215 17.0204L75.1975 17.076L75.4179 15.9714L75.1419 15.9165Z" fill="white"/>
<path fill-rule="evenodd" clip-rule="evenodd" d="M86.0905 21.9384C84.1384 26.1559 81.9758 25.9182 81.4454 25.7833C80.7571 25.3315 81.0901 23.0458 81.4613 20.9825C81.8743 18.6885 84.5103 15.3266 84.5103 15.3266C79.8896 15.2523 78.2844 19.9919 78.2358 23.043C78.2274 23.5296 78.2803 23.9564 78.3769 24.3318C76.9462 25.9578 75.663 25.807 75.2716 25.7076C74.5827 25.2564 74.9164 22.97 75.2869 20.9067C75.6998 18.6127 78.3366 15.2509 78.3366 15.2509C73.7158 15.1765 72.1107 19.9161 72.0613 22.9672C72.0203 25.5442 73.6588 26.4709 74.7224 26.7065L74.7203 26.7121C74.7662 26.7315 75.1402 26.8803 75.7151 26.89C76.502 26.9026 77.6657 26.6481 78.8788 25.4434C79.444 26.2602 80.2691 26.6433 80.8969 26.7816L80.8941 26.7879C80.94 26.8066 81.314 26.9561 81.8896 26.9651C83.1242 26.9853 85.2855 26.3589 87.1131 22.4118L86.0905 21.9384Z" fill="white"/>
<path fill-rule="evenodd" clip-rule="evenodd" d="M108.132 23.6478C106.39 26.4869 104.656 26.2916 104.189 26.1727C103.501 25.7215 103.834 23.4358 104.206 21.3719C104.618 19.0778 107.254 15.7167 107.254 15.7167C102.633 15.6423 101.029 20.3819 100.979 23.4323C100.938 26.0093 102.576 26.936 103.64 27.1716L103.638 27.1772C103.684 27.1967 104.058 27.3454 104.633 27.3552C105.569 27.3698 107.039 27.0097 108.492 25.1146C108.203 24.7045 108.102 24.181 108.132 23.6478Z" fill="white"/>
<path fill-rule="evenodd" clip-rule="evenodd" d="M119.504 22.4958C118.796 23.5532 117.723 24.8357 116.754 25.606C116.27 26.0217 115.996 25.8583 115.979 24.8072C115.962 23.7527 117.764 18.6501 117.679 17.3488C117.594 16.0474 116.121 15.9758 116.121 15.9758L116.122 15.9772C115.565 15.9334 114.839 16.2615 113.915 16.9762C113.01 17.6776 111.169 20.5007 109.758 22.7906C110.669 19.2014 112.223 15.85 112.223 15.85C108.562 15.7909 107.169 19.1493 107.178 23.0227C107.185 26.8962 109.115 27.3738 109.115 27.3738C109.105 26.9171 109.128 26.4374 109.176 25.9445C110.366 23.9146 111.981 21.2932 113.204 19.5678C113.697 18.9025 114.047 18.582 114.536 18.2824C115.235 17.8542 115.013 19.2389 114.494 20.8823C113.976 22.5257 113.919 24.9782 113.919 24.9782L113.922 24.972C113.849 25.7318 113.903 26.3498 114.145 26.7718C114.327 27.0909 114.607 27.2994 114.955 27.3738C115.069 27.3988 115.185 27.412 115.301 27.4134C117.433 27.4475 119.938 23.8743 120.441 23.1221L119.504 22.4958Z" fill="white"/>
<path fill-rule="evenodd" clip-rule="evenodd" d="M48.0669 9.41222C49.6582 5.83211 51.3238 4.15885 51.7631 4.0365C52.4534 5.18005 49.4302 13.7688 45.8355 19.3865C45.8841 14.8609 47.3579 11.0062 48.0669 9.41222ZM52.2915 3.03337C52.1983 2.98332 52.0975 2.94648 51.9891 2.92701C51.9515 2.91658 51.9244 2.91033 51.9244 2.91033C50.6251 2.75391 48.9616 5.35175 48.3047 6.47306C46.0523 10.3152 44.3436 15.6305 44.7169 21.0076C41.6158 25.196 40.2602 25.0389 40.1532 25.0194C40.1045 24.9972 40.0544 24.9902 40.0037 24.9826C39.5776 24.3972 39.759 22.7351 40.0392 21.0604C41.6227 15.5415 44.8219 15.2947 44.8219 15.2947C43.9627 14.4487 42.6558 14.5794 41.727 14.8276C41.6137 14.8554 41.506 14.8901 41.3975 14.9242C41.3064 14.9541 41.2216 14.9826 41.1438 15.0111C41.0402 15.05 40.9359 15.0869 40.8372 15.1314C40.703 15.1877 40.6217 15.2273 40.6217 15.2273L40.6203 15.2412C37.9787 16.5822 36.9804 19.992 36.9422 22.3785C36.8928 25.4303 39.2022 26.1713 40.1205 26.1859C40.2102 26.1873 40.2811 26.1769 40.3436 26.1609C40.9137 26.1289 41.8014 25.7945 43.0673 24.6211L43.0562 24.6364C43.5602 24.2339 44.2102 23.6312 44.9401 22.8866C45.3836 25.5964 46.3965 28.2797 48.1872 30.7566C48.2956 30.9061 48.4639 30.9874 48.6356 30.9902C48.7524 30.9916 48.8712 30.9575 48.9741 30.8831C49.2258 30.701 49.2828 30.3493 49.1006 30.0969C47.157 27.4087 46.2581 24.5439 45.9592 21.8105C49.2209 18.2568 53.4114 12.6614 54.2039 8.78935C55.0513 4.64477 53.1278 3.38095 52.2915 3.03337Z" fill="white"/>
<path fill-rule="evenodd" clip-rule="evenodd" d="M97.0458 19.6689C97.1953 15.3693 98.5842 11.7468 99.2655 10.2147C100.898 6.5421 102.608 4.87648 102.972 4.82226C102.974 4.82295 103.093 4.94252 103.116 5.45625C103.234 8.13334 100.594 15.2637 97.0994 19.6112C97.0813 19.6321 97.0639 19.6488 97.0458 19.6689ZM103.176 3.7093L103.179 3.72181C103.161 3.71903 103.14 3.71486 103.123 3.71277C101.818 3.56609 100.161 6.1542 99.5033 7.2755C97.4038 10.8556 95.7813 15.7155 95.8717 20.7124C94.6906 21.5083 93.6687 21.4499 92.7254 21.3923C91.912 21.037 94.2693 17.9206 94.2902 16.6533C94.3062 15.6432 93.2162 15.45 92.7713 15.4124C92.7108 15.4055 92.651 15.4034 92.5898 15.4034H92.585C92.1762 15.4076 91.7772 15.5584 91.5923 15.6307C90.2527 16.1556 88.9291 18.0561 87.8585 20.0429C88.7004 17.4819 89.6256 15.4861 89.6256 15.4861C85.9642 15.4277 84.5725 18.7854 84.5801 22.6595C84.5885 26.533 86.5175 27.0099 86.5175 27.0099C86.5078 26.5865 86.5273 26.143 86.5683 25.6884L86.578 25.6919C87.317 23.6488 89.5137 18.4851 91.4685 17.003C92.3104 16.7861 91.9955 16.6978 91.0472 19.0308C90.0914 21.3811 91.6764 22.257 91.6764 22.257L91.6778 22.2563C91.8641 22.3849 92.1115 22.4844 92.4466 22.5038L92.6552 22.5163C93.5735 22.5747 94.6781 22.638 95.9301 21.9887C96.1859 25.2678 97.221 28.5643 99.3865 31.5591C99.4942 31.7085 99.6624 31.7892 99.8342 31.7919C99.9516 31.794 100.071 31.7593 100.173 31.6856C100.425 31.5028 100.481 31.151 100.299 30.8987C98.0629 27.8052 97.1988 24.4767 97.0549 21.3853C97.1585 21.2755 97.2606 21.1573 97.3635 21.0405L97.3267 21.0996C98.4362 20.4871 99.4643 19.6835 100.274 18.7214C100.701 18.2146 101.088 17.6682 101.539 17.183C101.605 17.1121 101.674 17.0426 101.742 16.9738C103.532 14.4093 105.016 11.7336 105.455 9.58832C106.525 4.35928 103.176 3.7093 103.176 3.7093Z" fill="white"/>
<path fill-rule="evenodd" clip-rule="evenodd" d="M125.5 23.5444C125.402 23.4714 125.334 23.3748 125.287 23.2712C125.11 23.5437 124.924 23.8155 124.731 24.0845C123.273 26.1088 121.955 26.3695 121.32 26.3535C120.757 25.7585 121.076 23.593 121.429 21.6299C121.842 19.3358 124.478 15.974 124.478 15.974C119.858 15.8996 118.253 20.64 118.204 23.6904C118.167 25.9726 119.449 26.9618 120.482 27.3226C120.504 27.333 120.519 27.3504 120.542 27.3588C120.565 27.3678 120.713 27.4158 120.948 27.4477C121.111 27.4797 121.259 27.4957 121.382 27.4978C121.486 27.4992 121.569 27.4867 121.636 27.4651C122.613 27.3886 124.119 26.8624 125.645 24.7428C125.733 24.6205 125.824 24.4898 125.917 24.3542C125.871 24.0386 125.756 23.7355 125.5 23.5444Z" fill="white"/>
<path fill-rule="evenodd" clip-rule="evenodd" d="M110.001 3.75916C110.001 3.75916 110.734 5.04035 109.246 7.27948C107.759 9.51931 104.299 13.0021 105.833 14.7073C105.833 14.7073 106.266 13.2301 108.548 11.0834C110.829 8.93676 114.745 4.77549 110.001 3.75916Z" fill="white"/>
<path fill-rule="evenodd" clip-rule="evenodd" d="M89.7303 27.7743C89.7303 27.7743 90.1175 26.3499 92.7529 25.8188C95.3883 25.287 100.298 25.2703 100.418 22.9805C100.418 22.9805 99.0685 23.7187 95.9367 23.6228C92.8057 23.5276 87.0949 23.7021 89.7303 27.7743Z" fill="white"/>
<path fill-rule="evenodd" clip-rule="evenodd" d="M115.883 40.1128C114.469 40.0753 114.355 39.5031 114.317 39.3148C113.935 37.3891 117.855 32.7315 122.537 29.6902C121.263 34.5403 119.445 39.3801 115.883 40.1128ZM128.16 16.0913C128.133 16.0934 128.107 16.0962 128.08 16.099C128.05 16.1017 128.023 16.1031 127.992 16.1066V16.1087C127.382 16.1859 126.795 16.4598 126.455 17.1348C125.514 19.0082 124.675 20.7128 123.339 26.4138C123.207 26.9762 123.071 27.5525 122.93 28.1344C117.904 31.1382 112.641 36.6564 113.213 39.5337C113.361 40.2845 113.941 41.1889 115.854 41.2397H115.894C120.149 41.3085 123.231 34.37 125.265 28.1851L125.687 26.8608C125.692 26.8469 125.696 26.8337 125.7 26.8205C125.702 26.783 125.694 26.7482 125.704 26.7072C125.996 25.4761 126.315 24.3443 126.699 23.1445C126.991 22.2324 127.127 21.3211 127.551 20.4792C127.589 20.3499 127.625 20.2192 127.669 20.0934C127.66 20.1052 127.651 20.1163 127.642 20.1288C128.585 17.164 129.627 16.6391 129.714 16.6009L129.975 16.5307C129.975 16.5307 129.735 15.9474 128.16 16.0913Z" fill="white"/>
<path fill-rule="evenodd" clip-rule="evenodd" d="M122.858 16.1671C122.858 16.1671 125.577 15.3287 126.22 16.7579C126.22 16.7579 122.74 16.425 121.428 21.6297L120.729 19.1076L122.858 16.1671Z" fill="white"/>
</svg>
