<svg width="20" height="20" viewBox="0 0 20 20" fill="none" xmlns="http://www.w3.org/2000/svg">
<path fill-rule="evenodd" clip-rule="evenodd" d="M0 1.12637V18.8736C0 19.4945 0.505494 20 1.12637 20H18.8736C19.4945 20 20 19.4945 20 18.8736V1.12637C20 0.505494 19.4945 0 18.8736 0H1.12637C0.505494 0 0 0.505494 0 1.12637ZM16.9176 4.42308L14.5659 15.7253C14.511 15.9945 14.1978 16.1154 13.978 15.9505L10.7692 13.6264C10.5769 13.4835 10.3077 13.4945 10.1209 13.6429L8.34066 15.0934C8.13187 15.2637 7.82418 15.1703 7.74176 14.9121L6.67033 11.467C6.56593 11.1319 6.31319 10.8681 5.98901 10.7473L3.31868 9.74725C2.99451 9.62637 2.99451 9.17033 3.31319 9.04396L16.4066 3.99451C16.6868 3.89011 16.978 4.13187 16.9176 4.42308Z" fill="#8494A1">
<path fill-rule="evenodd" clip-rule="evenodd" d="M13.7853 6.4669L7.54898 10.3076C7.30723 10.4559 7.19734 10.7416 7.27426 11.0164L7.95008 13.3845C7.99953 13.5548 8.24129 13.5328 8.26327 13.3625L8.43909 12.0658C8.47206 11.824 8.58745 11.5933 8.76877 11.4284L13.9171 6.64273C14.0105 6.55482 13.8951 6.40097 13.7853 6.4669Z" fill="#8494A1">
</svg>
