<svg width="20" height="20" viewBox="0 0 20 20" fill="none" xmlns="http://www.w3.org/2000/svg">
<path d="M18.7256 0H1.27726C0.57159 0 0 0.57159 0 1.27584V18.7242C0 19.4284 0.57159 20 1.27726 20H18.7242C19.4284 20 20 19.4284 20 18.7242V1.27584C20.0014 0.570179 19.4298 0 18.7256 0ZM16.5902 12.1869C16.9558 12.5595 17.7489 13.1847 17.605 13.8212C17.4723 14.4055 16.6001 14.1924 15.7533 14.2262C14.7865 14.2672 14.2135 14.2883 13.6321 13.8212C13.3583 13.5996 13.1974 13.3371 12.9349 13.0435C12.6964 12.7782 12.3957 12.3026 11.9865 12.3209C11.2511 12.3576 11.4812 13.3823 11.2201 14.0809C7.13288 14.7244 5.4915 12.1996 4.04347 9.74949C3.34204 8.56256 2.3287 6.01369 2.3287 6.01369L5.21911 6.00381C5.21911 6.00381 6.14635 7.69035 6.39193 8.12504C6.6008 8.49481 6.83085 8.78837 7.06795 9.11862C7.26695 9.39242 7.58168 9.92873 7.92605 9.88498C8.48634 9.813 8.58796 7.63954 8.24077 6.9113C8.10246 6.61633 7.7708 6.5133 7.42785 6.4131C7.54357 5.68203 10.6697 5.5296 11.1749 6.09696C11.9088 6.92118 10.6669 9.216 11.6717 9.88498C13.0831 9.14544 14.2883 6.04897 14.2883 6.04897L17.6727 6.07014C17.6727 6.07014 17.1435 7.74398 16.5888 8.48635C16.2656 8.92104 15.193 9.88921 15.2353 10.6076C15.2692 11.1763 16.1414 11.7296 16.5902 12.1869Z" fill="#8494A1">
</svg>
