<svg width="20" height="20" viewBox="0 0 20 20" fill="none" xmlns="http://www.w3.org/2000/svg">
<path d="M19.5823 5.25C19.3573 4.4 18.6823 3.725 17.8323 3.5C16.3073 3.075 10.0073 3.075 10.0073 3.075C10.0073 3.075 3.70731 3.075 2.18231 3.5C1.33231 3.725 0.657313 4.4 0.432313 5.25C0.00731277 6.775 0.00731277 10 0.00731277 10C0.00731277 10 0.00731277 13.225 0.432313 14.75C0.657313 15.6 1.33231 16.275 2.18231 16.5C3.70731 16.925 10.0073 16.925 10.0073 16.925C10.0073 16.925 16.3073 16.925 17.8323 16.5C18.6823 16.275 19.3573 15.6 19.5823 14.75C20.0073 13.225 20.0073 10 20.0073 10C20.0073 10 20.0073 6.775 19.5823 5.25ZM7.97231 12.85V7.15L13.2073 10L7.97231 12.85Z" fill="#8494A1"/>
</svg>
