<svg width="49" height="48" fill="none" xmlns="http://www.w3.org/2000/svg"><path d="M5.416 38V14h38v24c0 2.2-1.8 4-4 4h-30c-2.2 0-4-1.8-4-4Z" fill="#fff"/><path d="M43.416 10v6h-38v-6c0-2.2 1.8-4 4-4h30c2.2 0 4 1.8 4 4Z" fill="#3DABF7"/><path d="M33.416 13a3 3 0 1 0 0-6 3 3 0 0 0 0 6ZM15.416 13a3 3 0 1 0 0-6 3 3 0 0 0 0 6Z" fill="#3DABF7"/><path d="M33.416 3c-1.1 0-2 .9-2 2v5c0 1.1.9 2 2 2s2-.9 2-2V5c0-1.1-.9-2-2-2ZM15.416 3c-1.1 0-2 .9-2 2v5c0 1.1.9 2 2 2s2-.9 2-2V5c0-1.1-.9-2-2-2Z" fill="#8494A1"/><path d="M13.416 21h6v6h-6v-6ZM21.416 21h6v6h-6v-6ZM29.416 21h6v6h-6v-6ZM13.416 29h6v6h-6v-6ZM21.416 29h6v6h-6v-6Z" fill="#DFE6EB"/><path d="M29.416 29h6v6h-6v-6Z" fill="#22E0A5"/></svg>