<svg width="36" height="6" viewBox="0 0 36 6" fill="none" xmlns="http://www.w3.org/2000/svg">
<path fill-rule="evenodd" clip-rule="evenodd" d="M6.82812 3C6.82812 4.65685 5.46399 6 3.78125 6C2.09851 6 0.734375 4.65685 0.734375 3C0.734375 1.34315 2.09851 0 3.78125 0C5.46399 0 6.82812 1.34315 6.82812 3ZM18 6C19.6827 6 21.0469 4.65685 21.0469 3C21.0469 1.34315 19.6827 0 18 0C16.3173 0 14.9531 1.34315 14.9531 3C14.9531 4.65685 16.3173 6 18 6ZM32.2188 6C33.9015 6 35.2656 4.65685 35.2656 3C35.2656 1.34315 33.9015 0 32.2188 0C30.536 0 29.1719 1.34315 29.1719 3C29.1719 4.65685 30.536 6 32.2188 6Z" fill="white"/>
</svg>
