<svg width="40" height="40" viewBox="0 0 40 40" fill="none" xmlns="http://www.w3.org/2000/svg">
<path d="M34.9997 3.33325H4.99967C4.0792 3.33325 3.33301 4.07944 3.33301 4.99992V34.9999C3.33301 35.9204 4.0792 36.6666 4.99967 36.6666H34.9997C35.9201 36.6666 36.6663 35.9204 36.6663 34.9999V4.99992C36.6663 4.07944 35.9201 3.33325 34.9997 3.33325Z" stroke="#8494A1" stroke-width="1.66667" stroke-linecap="round" stroke-linejoin="round"/>
<path d="M3.33301 11.6667H36.6663" stroke="#8494A1" stroke-width="1.66667" stroke-linecap="round" stroke-linejoin="round"/>
<path d="M36.667 9.16675V19.1667" stroke="#8494A1" stroke-width="1.66667" stroke-linecap="round" stroke-linejoin="round"/>
<path d="M10 18.3333H13.3333" stroke="#8494A1" stroke-width="1.66667" stroke-linecap="round" stroke-linejoin="round"/>
<path d="M18.333 18.3333H21.6663" stroke="#8494A1" stroke-width="1.66667" stroke-linecap="round" stroke-linejoin="round"/>
<path d="M26.667 18.3333H30.0003" stroke="#8494A1" stroke-width="1.66667" stroke-linecap="round" stroke-linejoin="round"/>
<path d="M10 24.1667H13.3333" stroke="#8494A1" stroke-width="1.66667" stroke-linecap="round" stroke-linejoin="round"/>
<path d="M18.333 24.1667H21.6663" stroke="#8494A1" stroke-width="1.66667" stroke-linecap="round" stroke-linejoin="round"/>
<path d="M26.667 24.1667H30.0003" stroke="#8494A1" stroke-width="1.66667" stroke-linecap="round" stroke-linejoin="round"/>
<path d="M10 30H13.3333" stroke="#8494A1" stroke-width="1.66667" stroke-linecap="round" stroke-linejoin="round"/>
<path d="M18.333 30H21.6663" stroke="#8494A1" stroke-width="1.66667" stroke-linecap="round" stroke-linejoin="round"/>
<path d="M26.667 30H30.0003" stroke="#8494A1" stroke-width="1.66667" stroke-linecap="round" stroke-linejoin="round"/>
<path d="M3.33301 9.16675V19.1667" stroke="#8494A1" stroke-width="1.66667" stroke-linecap="round" stroke-linejoin="round"/>
</svg>
