<svg width="40" height="40" viewBox="0 0 40 40" fill="none" xmlns="http://www.w3.org/2000/svg">
<path d="M3.33301 35H36.6663" stroke="#8494A1" stroke-width="1.66667" stroke-linecap="round" stroke-linejoin="round">
<path d="M15.0003 18.3333H8.33366C7.41318 18.3333 6.66699 19.0794 6.66699 19.9999V33.3333C6.66699 34.2537 7.41318 34.9999 8.33366 34.9999H15.0003C15.9208 34.9999 16.667 34.2537 16.667 33.3333V19.9999C16.667 19.0794 15.9208 18.3333 15.0003 18.3333Z" stroke="#8494A1" stroke-width="1.66667" stroke-linejoin="round">
<path d="M31.667 3.33325H18.3337C17.4132 3.33325 16.667 4.07944 16.667 4.99992V33.3333C16.667 34.2537 17.4132 34.9999 18.3337 34.9999H31.667C32.5875 34.9999 33.3337 34.2537 33.3337 33.3333V4.99992C33.3337 4.07944 32.5875 3.33325 31.667 3.33325Z" stroke="#8494A1" stroke-width="1.66667" stroke-linejoin="round">
<path d="M23.333 26.6736H26.6663" stroke="#8494A1" stroke-width="1.66667" stroke-linecap="round" stroke-linejoin="round">
<path d="M10 26.6736H13.3333" stroke="#8494A1" stroke-width="1.66667" stroke-linecap="round" stroke-linejoin="round">
<path d="M23.333 19.1736H26.6663" stroke="#8494A1" stroke-width="1.66667" stroke-linecap="round" stroke-linejoin="round">
<path d="M23.333 11.6736H26.6663" stroke="#8494A1" stroke-width="1.66667" stroke-linecap="round" stroke-linejoin="round">
</svg>
