<svg width="40" height="40" viewBox="0 0 40 40" fill="none" xmlns="http://www.w3.org/2000/svg">
<path d="M19.9997 36.6666C24.602 36.6666 28.7687 34.8011 31.7848 31.785C34.8008 28.7689 36.6663 24.6023 36.6663 19.9999C36.6663 15.3976 34.8008 11.2309 31.7848 8.2148C28.7687 5.19873 24.602 3.33325 19.9997 3.33325C15.3973 3.33325 11.2307 5.19873 8.21456 8.2148C5.19849 11.2309 3.33301 15.3976 3.33301 19.9999C3.33301 24.6023 5.19849 28.7689 8.21456 31.785C11.2307 34.8011 15.3973 36.6666 19.9997 36.6666Z" stroke="#8494A1" stroke-width="1.66667" stroke-linejoin="round">
<path d="M20 23.8541V20.5208C22.7614 20.5208 25 18.2822 25 15.5208C25 12.7593 22.7614 10.5208 20 10.5208C17.2386 10.5208 15 12.7593 15 15.5208" stroke="#8494A1" stroke-width="1.66667" stroke-linecap="round" stroke-linejoin="round">
<path fill-rule="evenodd" clip-rule="evenodd" d="M20.0003 31.3539C21.1509 31.3539 22.0837 30.4212 22.0837 29.2706C22.0837 28.12 21.1509 27.1873 20.0003 27.1873C18.8497 27.1873 17.917 28.12 17.917 29.2706C17.917 30.4212 18.8497 31.3539 20.0003 31.3539Z" fill="#8494A1">
</svg>
