<svg width="40" height="40" viewBox="0 0 40 40" fill="none" xmlns="http://www.w3.org/2000/svg">
<path d="M37.9203 8.93246L36.5684 8.14742C36.827 7.38177 36.827 6.55236 36.5684 5.7867L37.9278 5.00166C38.0901 4.89845 38.2063 4.73651 38.2521 4.54965C38.2979 4.3628 38.2697 4.16548 38.1734 3.99893C38.0771 3.83237 37.9202 3.70945 37.7355 3.65585C37.5507 3.60225 37.3524 3.62211 37.1819 3.71128L35.8188 4.49633C35.2829 3.88994 34.5642 3.47433 33.7714 3.31224V1.74588C33.7714 1.54806 33.6928 1.35834 33.5529 1.21846C33.413 1.07858 33.2233 1 33.0255 1C32.8277 1 32.6379 1.07858 32.4981 1.21846C32.3582 1.35834 32.2796 1.54806 32.2796 1.74588V3.31224C31.4894 3.47584 30.7736 3.89132 30.2396 4.49633L28.8765 3.71128C28.7916 3.65732 28.6967 3.62108 28.5974 3.60475C28.4982 3.58843 28.3966 3.59235 28.2989 3.61628C28.2012 3.64021 28.1093 3.68366 28.0289 3.74402C27.9484 3.80437 27.8809 3.88038 27.8306 3.96747C27.7803 4.05457 27.7481 4.15094 27.7359 4.25081C27.7238 4.35067 27.732 4.45195 27.76 4.54856C27.788 4.64518 27.8353 4.73512 27.899 4.81299C27.9627 4.89085 28.0415 4.95503 28.1306 5.00166L29.4825 5.7867C29.2239 6.55236 29.2239 7.38177 29.4825 8.14742L28.1232 8.93246C27.9813 9.01473 27.8706 9.14143 27.808 9.29297C27.7454 9.44451 27.7345 9.61244 27.777 9.7708C27.8194 9.92916 27.9129 10.0691 28.0429 10.169C28.1729 10.2689 28.3322 10.3232 28.4961 10.3235C28.6272 10.324 28.756 10.2892 28.8691 10.2228L30.2322 9.4378C30.7681 10.0442 31.4867 10.4598 32.2796 10.6219V12.1882C32.2796 12.3861 32.3582 12.5758 32.4981 12.7157C32.6379 12.8555 32.8277 12.9341 33.0255 12.9341C33.2233 12.9341 33.413 12.8555 33.5529 12.7157C33.6928 12.5758 33.7714 12.3861 33.7714 12.1882V10.6219C34.5616 10.4583 35.2774 10.0428 35.8114 9.4378L37.1745 10.2228C37.2875 10.2892 37.4163 10.324 37.5474 10.3235C37.7113 10.3232 37.8706 10.2689 38.0006 10.169C38.1306 10.0691 38.2241 9.92916 38.2665 9.7708C38.309 9.61244 38.2981 9.44451 38.2355 9.29297C38.1729 9.14143 38.0622 9.01473 37.9203 8.93246ZM33.0255 9.20471C32.5829 9.20471 32.1503 9.07347 31.7823 8.8276C31.4143 8.58172 31.1275 8.23225 30.9582 7.82337C30.7888 7.4145 30.7445 6.96458 30.8308 6.53052C30.9172 6.09646 31.1303 5.69775 31.4432 5.38481C31.7562 5.07186 32.1549 4.85875 32.5889 4.77241C33.023 4.68607 33.4729 4.73038 33.8818 4.89974C34.2907 5.06911 34.6401 5.35591 34.886 5.72389C35.1319 6.09187 35.2631 6.5245 35.2631 6.96706C35.2631 7.56052 35.0274 8.12968 34.6077 8.54932C34.1881 8.96896 33.6189 9.20471 33.0255 9.20471ZM37.1278 16.6747C36.9331 16.7076 36.7594 16.8164 36.6447 16.9772C36.53 17.138 36.4838 17.3377 36.5162 17.5325C36.6742 18.4778 36.754 19.4345 36.7549 20.393C36.7564 22.639 36.3153 24.8633 35.4569 26.9389C34.5984 29.0144 33.3395 30.9005 31.7519 32.4893C29.8989 29.3914 26.9283 27.1222 23.4521 26.1493C25.0683 25.2897 26.3507 23.9144 27.0952 22.242C27.8396 20.5696 28.0034 18.6963 27.5605 16.9201C27.1176 15.1439 26.0933 13.5668 24.6508 12.4398C23.2082 11.3128 21.4302 10.7006 19.5996 10.7006C17.769 10.7006 15.991 11.3128 14.5484 12.4398C13.1058 13.5668 12.0816 15.1439 11.6387 16.9201C11.1957 18.6963 11.3595 20.5696 12.104 22.242C12.8485 23.9144 14.1308 25.2897 15.7471 26.1493C12.2709 27.1222 9.30027 29.3914 7.4473 32.4893C5.05852 30.087 3.4345 27.0312 2.77999 23.7072C2.12549 20.3833 2.46981 16.9399 3.76954 13.8113C5.06928 10.6828 7.26622 8.00905 10.0834 6.12733C12.9005 4.2456 16.2118 3.24012 19.5996 3.23765C20.558 3.23775 21.5147 3.31696 22.4601 3.47447C22.6543 3.50511 22.8527 3.45783 23.0123 3.3429C23.1718 3.22797 23.2795 3.0547 23.312 2.86077C23.3444 2.66685 23.299 2.46795 23.1855 2.30736C23.0721 2.14676 22.8998 2.03745 22.7062 2.00321C18.8126 1.35049 14.8124 1.95175 11.2827 3.72023C7.7531 5.4887 4.87664 8.33292 3.06849 11.8424C1.26034 15.3519 0.614028 19.3451 1.22282 23.2458C1.83162 27.1464 3.66403 30.7528 6.45561 33.5444C9.2472 36.336 12.8536 38.1684 16.7542 38.7772C20.6549 39.386 24.6481 38.7397 28.1576 36.9315C31.6671 35.1234 34.5113 32.2469 36.2798 28.7173C38.0482 25.1876 38.6495 21.1874 37.9968 17.2938C37.9815 17.1956 37.9467 17.1014 37.8944 17.0169C37.8422 16.9323 37.7736 16.859 37.6926 16.8014C37.6117 16.7437 37.52 16.7028 37.423 16.681C37.326 16.6593 37.2257 16.6571 37.1278 16.6747ZM12.8866 18.9012C12.8866 17.5735 13.2804 16.2756 14.018 15.1717C14.7556 14.0677 15.804 13.2073 17.0307 12.6992C18.2573 12.1911 19.607 12.0582 20.9092 12.3172C22.2114 12.5762 23.4075 13.2156 24.3464 14.1544C25.2852 15.0932 25.9245 16.2894 26.1835 17.5916C26.4426 18.8937 26.3096 20.2435 25.8015 21.4701C25.2935 22.6967 24.433 23.7452 23.3291 24.4828C22.2252 25.2204 20.9273 25.6141 19.5996 25.6141C17.8192 25.6141 16.1117 24.9069 14.8528 23.648C13.5939 22.389 12.8866 20.6816 12.8866 18.9012ZM8.57358 33.5242C9.68017 31.575 11.2837 29.954 13.2207 28.8262C15.1577 27.6985 17.3591 27.1043 19.6005 27.1043C21.8419 27.1043 24.0433 27.6985 25.9803 28.8262C27.9174 29.954 29.5209 31.575 30.6275 33.5242C27.5409 36.1232 23.6356 37.5484 19.6005 37.5484C15.5655 37.5484 11.6601 36.1232 8.57358 33.5242Z" fill="#8494A1">
</svg>
