<svg width="40" height="40" viewBox="0 0 40 40" fill="none" xmlns="http://www.w3.org/2000/svg">
<path d="M36.8314 16.9042C37.0609 18.0436 37.1761 19.2034 37.1751 20.366C37.1751 23.8871 36.1382 27.3292 34.1955 30.2569C32.2529 33.1846 29.4916 35.4665 26.2611 36.814C23.0305 38.1615 19.4757 38.514 16.0461 37.8271C12.6166 37.1402 9.46632 35.4446 6.99375 32.9547C4.52117 30.4649 2.83733 27.2927 2.15515 23.8392C1.47297 20.3857 1.82309 16.8061 3.16124 13.553C4.49938 10.2998 6.76545 7.51935 9.67289 5.56311C12.5803 3.60687 15.9985 2.56272 19.4953 2.56272C20.5931 2.56226 21.6884 2.66825 22.7661 2.87923M7.66943 33.6392C8.88699 31.573 10.6175 29.8613 12.6909 28.6724C14.7644 27.4835 17.1093 26.8583 19.4953 26.8583C21.8813 26.8583 24.2262 27.4835 26.2996 28.6724C28.3731 29.8613 30.1036 31.573 31.3211 33.6392M31.606 10.228C33.2334 10.228 34.5526 8.89954 34.5526 7.2608C34.5526 5.62206 33.2334 4.29359 31.606 4.29359M31.606 10.228C29.9786 10.228 28.6593 8.89954 28.6593 7.2608C28.6593 5.62206 29.9786 4.29359 31.606 4.29359M31.606 10.228V12.7007M31.606 4.29359V1.82092M29.0522 5.7772L26.9307 4.54086M36.2813 9.98074L34.1597 8.7444M36.2813 4.54086L34.1597 5.7772M29.0522 8.7444L26.9307 9.98074M26.8619 19.3769C26.8619 23.4737 23.5638 26.7949 19.4953 26.7949C15.4268 26.7949 12.1287 23.4737 12.1287 19.3769C12.1287 15.28 15.4268 11.9589 19.4953 11.9589C23.5638 11.9589 26.8619 15.28 26.8619 19.3769Z" stroke="#8494A1" stroke-width="1.67" stroke-linecap="round" stroke-linejoin="round"/>
</svg>
