<svg width="40" height="40" viewBox="0 0 40 40" fill="none" xmlns="http://www.w3.org/2000/svg">
<path d="M3.33398 34.1673C3.33398 26.8035 10.0497 20.834 18.334 20.834M25.834 9.16732C25.834 12.389 23.2223 15.0007 20.0007 15.0007C16.779 15.0007 14.1673 12.389 14.1673 9.16732C14.1673 5.94566 16.779 3.33398 20.0007 3.33398C23.2223 3.33398 25.834 5.94566 25.834 9.16732ZM26.5423 23.334C24.7704 23.334 23.334 25.0078 23.334 27.0726C23.334 30.8112 27.1256 34.2101 29.1673 35.0006C31.209 34.2101 35.0006 30.8112 35.0006 27.0726C35.0006 25.0078 33.5642 23.334 31.7923 23.334C30.7072 23.334 29.7479 23.9617 29.1673 24.9225C28.5867 23.9617 27.6274 23.334 26.5423 23.334Z" stroke="#8494A1" stroke-width="1.67" stroke-linecap="round" stroke-linejoin="round"/>
</svg>
