<svg width="45" height="36" viewBox="0 0 45 36" fill="none" xmlns="http://www.w3.org/2000/svg">
<mask id="mask0_1476_122" style="mask-type:luminance" maskUnits="userSpaceOnUse" x="0" y="0" width="45" height="36">
<path fill-rule="evenodd" clip-rule="evenodd" d="M22.3063 0.360352H0V35.9999H44.6125V0.360352H22.3063Z" fill="white">
</mask>
<g mask="url(#mask0_1476_122)">
<path fill-rule="evenodd" clip-rule="evenodd" d="M6.4889 15.4813H-0.0270996V33.9839C-0.0270996 35.0999 0.8729 35.9999 1.9889 35.9999H42.308C43.5684 35.9999 44.6124 34.9559 44.6124 33.6954V8.67635C44.6124 7.45325 43.6404 6.48125 42.4169 6.48125H32.0494C30.9685 6.48125 30.0684 5.68835 29.9244 4.64435L29.5658 2.26745C29.3844 1.22525 28.4845 0.360352 27.4405 0.360352H17.0729C15.9938 0.360352 15.0938 1.18835 14.9494 2.26745L14.5889 4.64435C14.4449 5.68835 13.508 6.48125 12.4658 6.48125H2.13335C0.9449 6.48125 -0.0270996 7.45325 -0.0270996 8.63945V10.4395H6.4889C7.8569 10.4395 8.9729 11.5559 8.9729 12.9253V12.9604C8.9729 14.3648 7.8569 15.4813 6.4889 15.4813ZM38.852 10.5119C40.2569 10.5119 41.3729 11.6279 41.3729 13.0324C41.3729 14.4368 40.2569 15.5533 38.852 15.5533C37.4494 15.5533 36.3334 14.4368 36.3334 13.0324C36.3334 11.6648 37.4494 10.5119 38.852 10.5119ZM22.4009 11.4119C28.3774 11.4119 33.2009 16.2368 33.2009 22.2119C33.2009 28.1884 28.3774 33.0119 22.4009 33.0119C16.4245 33.0119 11.6009 28.1884 11.6009 22.2119C11.6009 16.2368 16.4614 11.4119 22.4009 11.4119Z" fill="#CBD3D8">
</g>
<path fill-rule="evenodd" clip-rule="evenodd" d="M27.6938 22.212C27.6938 25.1951 25.275 27.612 22.2938 27.612C19.3107 27.612 16.8938 25.1951 16.8938 22.212C16.8938 19.2308 19.3107 16.812 22.2938 16.812C25.275 16.812 27.6938 19.2308 27.6938 22.212Z" fill="#CBD3D8">
</svg>
