<svg width="40" height="40" viewBox="0 0 40 40" fill="none" xmlns="http://www.w3.org/2000/svg">
<path d="M31.6665 3.33331H8.33317C7.4127 3.33331 6.6665 4.07951 6.6665 4.99998V35C6.6665 35.9205 7.4127 36.6666 8.33317 36.6666H31.6665C32.587 36.6666 33.3332 35.9205 33.3332 35V4.99998C33.3332 4.07951 32.587 3.33331 31.6665 3.33331Z" stroke="#8494A1" stroke-width="1.66667" stroke-linejoin="round"/>
<path d="M17.5 11.6667H27.5" stroke="#8494A1" stroke-width="1.66667" stroke-linecap="round" stroke-linejoin="round"/>
<path d="M17.5 20H27.5" stroke="#8494A1" stroke-width="1.66667" stroke-linecap="round" stroke-linejoin="round"/>
<path d="M17.5 28.3333H27.5" stroke="#8494A1" stroke-width="1.66667" stroke-linecap="round" stroke-linejoin="round"/>
<path fill-rule="evenodd" clip-rule="evenodd" d="M12.5002 13.3333C13.4207 13.3333 14.1668 12.5872 14.1668 11.6667C14.1668 10.7462 13.4207 10 12.5002 10C11.5797 10 10.8335 10.7462 10.8335 11.6667C10.8335 12.5872 11.5797 13.3333 12.5002 13.3333Z" fill="#8494A1"/>
<path fill-rule="evenodd" clip-rule="evenodd" d="M12.5002 21.6666C13.4207 21.6666 14.1668 20.9205 14.1668 20C14.1668 19.0795 13.4207 18.3333 12.5002 18.3333C11.5797 18.3333 10.8335 19.0795 10.8335 20C10.8335 20.9205 11.5797 21.6666 12.5002 21.6666Z" fill="#8494A1"/>
<path fill-rule="evenodd" clip-rule="evenodd" d="M12.5002 30C13.4207 30 14.1668 29.2539 14.1668 28.3334C14.1668 27.4129 13.4207 26.6667 12.5002 26.6667C11.5797 26.6667 10.8335 27.4129 10.8335 28.3334C10.8335 29.2539 11.5797 30 12.5002 30Z" fill="#8494A1"/>
</svg>
