<svg xmlns="http://www.w3.org/2000/svg" width="20" height="20" fill="#fff" xmlns:v="https://vecta.io/nano"><path d="M10 5.667c.413 0 .808-.164 1.1-.456s.456-.687.456-1.1a1.48 1.48 0 0 0-.226-.801L10 1 8.67 3.31a1.48 1.48 0 0 0-.226.801A1.56 1.56 0 0 0 10 5.667zm3.578 7.77l-.832-.832-.84.832a2.76 2.76 0 0 1-3.803 0l-.832-.832-.848.832a2.67 2.67 0 0 1-1.898.786c-.568 0-1.089-.179-1.524-.474v3.586a.78.78 0 0 0 .778.778h12.444a.78.78 0 0 0 .778-.778v-3.586c-.436.296-.957.474-1.524.474a2.67 2.67 0 0 1-1.898-.786zM14.667 8h-3.889V6.444H9.222V8H5.333A2.33 2.33 0 0 0 3 10.333v1.198a1.53 1.53 0 0 0 1.524 1.524c.404 0 .793-.156 1.073-.443l1.664-1.657 1.657 1.657c.576.576 1.579.576 2.154 0l1.665-1.657 1.657 1.657c.288.288.669.443 1.073.443a1.53 1.53 0 0 0 1.524-1.524v-1.198A2.32 2.32 0 0 0 14.667 8z"/></svg>
