<svg width="21" height="20" viewBox="0 0 21 20" fill="none" xmlns="http://www.w3.org/2000/svg">
<path fill-rule="evenodd" clip-rule="evenodd" d="M14.1567 7.63C13.9767 4.84 12.8467 2.12 10.7267 0C8.58675 2.14 7.40675 4.86 7.17675 7.63C8.45675 8.31 9.63675 9.19 10.6667 10.26C11.6967 9.2 12.8767 8.32 14.1567 7.63ZM7.65675 10.28C7.51675 10.18 7.35675 10.09 7.20675 9.99C7.35675 10.1 7.51675 10.18 7.65675 10.28ZM10.6667 13.45C8.51675 10.17 4.84675 8 0.666748 8C0.666748 13.32 4.02675 17.82 8.69675 19.49C9.32675 19.72 9.98675 19.89 10.6667 20C11.3467 19.88 11.9967 19.71 12.6367 19.49C17.3067 17.82 20.6667 13.32 20.6667 8C16.4867 8 12.8167 10.17 10.6667 13.45Z" />
</svg>
