<svg width="21" height="20" viewBox="0 0 21 20" fill="none" xmlns="http://www.w3.org/2000/svg">
<path fill-rule="evenodd" clip-rule="evenodd" d="M14.8333 9.99997C16.2134 9.99997 17.3236 8.87982 17.3236 7.50016C17.3236 6.12001 16.2134 4.99985 14.8333 4.99985C13.4536 4.99985 12.3335 6.12001 12.3335 7.50016C12.3335 8.87982 13.4536 9.99997 14.8333 9.99997ZM7.33335 9.00005C8.99354 9.00005 10.3236 7.65997 10.3236 6.00028C10.3236 4.34008 8.99354 3 7.33335 3C5.67315 3 4.33357 4.34008 4.33357 6.00028C4.33357 7.65997 5.67315 9.00005 7.33335 9.00005ZM14.8333 12.0003C13.0033 12.0003 9.3332 12.9201 9.3332 14.7501V16.9999H20.3334V14.7501C20.3334 12.9201 16.6633 12.0003 14.8333 12.0003ZM7.33335 10.9999C5.00336 10.9999 0.333374 12.1702 0.333374 14.5001V16.9999H7.33335V14.7501C7.33335 13.9 7.66348 12.4101 9.70341 11.2799C8.83324 11.1001 7.99312 10.9999 7.33335 10.9999Z" />
</svg>
