<svg width="20" height="20" viewBox="0 0 20 20" fill="none" xmlns="http://www.w3.org/2000/svg">
<path d="M9.55 3.28024C9.55 4.53958 8.54264 5.56048 7.3 5.56048C6.05736 5.56048 5.05 4.53958 5.05 3.28024C5.05 2.0209 6.05736 1 7.3 1C8.54264 1 9.55 2.0209 9.55 3.28024Z" />
<path d="M3.25 9.20887C4.49264 9.20887 5.5 8.18797 5.5 6.92863C5.5 5.66929 4.49264 4.64839 3.25 4.64839C2.00736 4.64839 1 5.66929 1 6.92863C1 8.18797 2.00736 9.20887 3.25 9.20887Z" />
<path d="M13.9993 10.8557C13.5339 10.2998 13.0816 9.75956 12.574 9.16327C12.16 8.67073 11.629 8.1782 10.999 7.9593C10.9 7.92281 10.801 7.89545 10.702 7.87721C10.477 7.84073 10.234 7.84073 10 7.84073C9.766 7.84073 9.523 7.84073 9.289 7.88633C9.19 7.90457 9.091 7.93194 8.992 7.96842C8.362 8.18732 7.84 8.67985 7.417 9.17239C7.1359 9.50638 6.87104 9.82275 6.61034 10.1341C6.14487 10.6901 5.69267 11.2302 5.185 11.8266C5.11447 11.8981 5.04298 11.97 4.97095 12.0425C3.83889 13.1815 2.57318 14.4549 2.827 16.1955C3.088 17.1259 3.745 18.0471 4.924 18.3116C5.22934 18.3752 5.84572 18.293 6.64212 18.1868C7.55932 18.0644 8.71534 17.9103 9.91 17.9103H10.072C11.2768 17.9103 12.4422 18.0644 13.3631 18.1862C14.1483 18.29 14.7556 18.3704 15.058 18.3116C16.237 18.0471 16.894 17.1167 17.155 16.1955C17.4174 14.4455 16.1512 13.1715 15.0188 12.0321C14.9472 11.9601 14.8761 11.8885 14.806 11.8175C14.5249 11.4835 14.26 11.167 13.9993 10.8557Z" />
<path d="M12.7 5.56048C13.9426 5.56048 14.95 4.53958 14.95 3.28024C14.95 2.0209 13.9426 1 12.7 1C11.4574 1 10.45 2.0209 10.45 3.28024C10.45 4.53958 11.4574 5.56048 12.7 5.56048Z" />
<path d="M19 6.92863C19 8.18797 17.9926 9.20887 16.75 9.20887C15.5074 9.20887 14.5 8.18797 14.5 6.92863C14.5 5.66929 15.5074 4.64839 16.75 4.64839C17.9926 4.64839 19 5.66929 19 6.92863Z" />
</svg>
