<svg width="18" height="16" viewBox="0 0 18 16" fill="none" xmlns="http://www.w3.org/2000/svg">
<path fill-rule="evenodd" clip-rule="evenodd" d="M8.81494 14.3269C7.92311 13.4464 -0.766982 8.94409 1.78091 3.85363C4.23685 -1.05312 8.81494 3.85363 8.81494 3.85363M8.81494 14.3269C9.70677 13.4464 18.3969 8.94409 15.849 3.85363C13.393 -1.05312 8.81494 3.85363 8.81494 3.85363" fill="#FCC3C3"/>
<path d="M8.11235 15.0385C8.50536 15.4265 9.13851 15.4225 9.52654 15.0295C9.91457 14.6365 9.91053 14.0033 9.51753 13.6153L8.11235 15.0385ZM1.78091 3.85363L0.886669 3.40604L1.78091 3.85363ZM8.08377 4.53582C8.46054 4.93964 9.09332 4.96156 9.49714 4.5848C9.90095 4.20803 9.92288 3.57525 9.54611 3.17143L8.08377 4.53582ZM8.11235 13.6153C7.71935 14.0033 7.71532 14.6365 8.10334 15.0295C8.49137 15.4225 9.12452 15.4265 9.51753 15.0385L8.11235 13.6153ZM15.849 3.85363L16.7432 3.40604L15.849 3.85363ZM8.08377 3.17143C7.70701 3.57525 7.72893 4.20803 8.13275 4.5848C8.53656 4.96156 9.16934 4.93964 9.54611 4.53582L8.08377 3.17143ZM9.51753 13.6153C9.32747 13.4277 9.00634 13.2054 8.71638 13.0073C8.38291 12.7794 8.00017 12.525 7.55188 12.2136C6.66672 11.5986 5.62533 10.8283 4.69769 9.94486C3.76174 9.05346 2.99952 8.10069 2.60545 7.13572C2.22645 6.20768 2.18675 5.277 2.67515 4.30122L0.886669 3.40604C0.101128 4.97548 0.192223 6.51651 0.753895 7.89186C1.30048 9.23028 2.2888 10.4126 3.31837 11.3931C4.35624 12.3816 5.49535 13.2201 6.41079 13.8561C6.8628 14.1701 7.28538 14.4517 7.5879 14.6585C7.74474 14.7657 7.8705 14.8534 7.96755 14.925C8.01566 14.9605 8.05217 14.9886 8.07902 15.0104C8.10745 15.0335 8.11594 15.0421 8.11235 15.0385L9.51753 13.6153ZM2.67515 4.30122C3.20124 3.25014 3.75944 2.87326 4.20074 2.74222C4.67043 2.60275 5.22151 2.67775 5.82967 2.93474C6.43336 3.18983 6.99866 3.58558 7.42723 3.93694C7.6377 4.1095 7.80673 4.26433 7.92146 4.3743C7.97866 4.42913 8.02191 4.47237 8.04959 4.50054C8.06342 4.51461 8.07332 4.52489 8.07909 4.53092C8.08198 4.53394 8.08383 4.53589 8.08462 4.53673C8.08501 4.53715 8.08514 4.53729 8.085 4.53714C8.08493 4.53706 8.08479 4.53692 8.08459 4.5367C8.08449 4.53659 8.08428 4.53637 8.08423 4.53632C8.08401 4.53608 8.08377 4.53582 8.81494 3.85363C9.54611 3.17143 9.54584 3.17114 9.54555 3.17083C9.54543 3.1707 9.54512 3.17037 9.54488 3.17011C9.54439 3.16959 9.54384 3.169 9.54321 3.16834C9.54196 3.167 9.54043 3.16537 9.53861 3.16345C9.53498 3.15961 9.53023 3.1546 9.52438 3.14848C9.51268 3.13625 9.49657 3.11957 9.47627 3.0989C9.43568 3.05759 9.37817 3.0002 9.3054 2.93045C9.16017 2.79125 8.95235 2.60108 8.69525 2.39029C8.18868 1.97497 7.45596 1.45071 6.60813 1.09246C5.76478 0.736097 4.71085 0.504431 3.63142 0.824966C2.52359 1.15393 1.58855 2.00374 0.886669 3.40604L2.67515 4.30122ZM9.51753 15.0385C9.51394 15.0421 9.52243 15.0335 9.55087 15.0104C9.57771 14.9886 9.61422 14.9605 9.66233 14.925C9.75939 14.8534 9.88514 14.7657 10.042 14.6585C10.3445 14.4517 10.7671 14.1701 11.2191 13.8561C12.1345 13.2201 13.2736 12.3816 14.3115 11.3931C15.3411 10.4126 16.3294 9.23028 16.876 7.89186C17.4377 6.51651 17.5288 4.97548 16.7432 3.40604L14.9547 4.30122C15.4431 5.277 15.4034 6.20768 15.0244 7.13572C14.6304 8.10069 13.8681 9.05346 12.9322 9.94486C12.0046 10.8283 10.9632 11.5986 10.078 12.2136C9.62971 12.525 9.24697 12.7794 8.91351 13.0073C8.62354 13.2054 8.30241 13.4277 8.11235 13.6153L9.51753 15.0385ZM16.7432 3.40604C16.0413 2.00374 15.1063 1.15393 13.9985 0.824966C12.919 0.504431 11.8651 0.736097 11.0217 1.09246C10.1739 1.45071 9.44121 1.97497 8.93463 2.39029C8.67753 2.60108 8.46971 2.79125 8.32448 2.93045C8.25171 3.0002 8.1942 3.05759 8.15362 3.0989C8.13331 3.11957 8.11721 3.13625 8.10551 3.14848C8.09966 3.1546 8.0949 3.15961 8.09127 3.16345C8.08946 3.16537 8.08792 3.167 8.08667 3.16834C8.08605 3.169 8.08549 3.16959 8.08501 3.17011C8.08477 3.17037 8.08446 3.1707 8.08434 3.17083C8.08405 3.17114 8.08377 3.17143 8.81494 3.85363C9.54611 4.53582 9.54587 4.53608 9.54565 4.53632C9.5456 4.53637 9.5454 4.53659 9.54529 4.5367C9.54509 4.53692 9.54495 4.53706 9.54488 4.53714C9.54474 4.53729 9.54487 4.53715 9.54527 4.53673C9.54606 4.53589 9.54791 4.53394 9.55079 4.53092C9.55657 4.52489 9.56647 4.51461 9.58029 4.50054C9.60797 4.47237 9.65122 4.42913 9.70842 4.3743C9.82315 4.26433 9.99218 4.1095 10.2027 3.93694C10.6312 3.58558 11.1965 3.18983 11.8002 2.93474C12.4084 2.67775 12.9595 2.60275 13.4291 2.74222C13.8704 2.87326 14.4286 3.25014 14.9547 4.30122L16.7432 3.40604Z" fill="white"/>
</svg>
