<svg width="18" height="18" viewBox="0 0 18 18" fill="none" xmlns="http://www.w3.org/2000/svg">
<path d="M10.65 2.15625C9.73005 2.15625 8.84775 2.52171 8.1972 3.17222C7.54672 3.82274 7.18125 4.70503 7.18125 5.625V7.55625H5.325C5.2318 7.55625 5.15625 7.63177 5.15625 7.725V10.275C5.15625 10.3682 5.2318 10.4438 5.325 10.4438H7.18125V15.675C7.18125 15.7682 7.25681 15.8438 7.35 15.8438H9.9C9.99323 15.8438 10.0688 15.7682 10.0688 15.675V10.4438H11.9414C12.0189 10.4438 12.0864 10.391 12.1051 10.3159L12.7427 7.76595C12.7693 7.65945 12.6887 7.55625 12.5789 7.55625H10.0688V5.625C10.0688 5.47084 10.13 5.323 10.239 5.21399C10.348 5.10499 10.4959 5.04375 10.65 5.04375H12.6C12.6932 5.04375 12.7687 4.96819 12.7687 4.875V2.325C12.7687 2.2318 12.6932 2.15625 12.6 2.15625H10.65Z" fill="#8494A1">
</svg>
