<svg width="18" height="18" viewBox="0 0 18 18" fill="none" xmlns="http://www.w3.org/2000/svg">
<path d="M9 6.5625C7.65383 6.5625 6.5625 7.65383 6.5625 9C6.5625 10.3462 7.65383 11.4375 9 11.4375C10.3462 11.4375 11.4375 10.3462 11.4375 9C11.4375 7.65383 10.3462 6.5625 9 6.5625Z" fill="#8494A1">
<path fill-rule="evenodd" clip-rule="evenodd" d="M5.07668 2.31111C7.6628 2.02207 10.3363 2.02207 12.9224 2.31111C14.3462 2.47023 15.4946 3.59207 15.6617 5.02086C15.9709 7.66463 15.9709 10.3354 15.6617 12.9791C15.4946 14.408 14.3462 15.5298 12.9224 15.6889C10.3363 15.9779 7.6628 15.9779 5.07668 15.6889C3.65288 15.5298 2.50449 14.408 2.33738 12.9791C2.02817 10.3354 2.02817 7.66463 2.33738 5.02086C2.50449 3.59207 3.65288 2.47023 5.07668 2.31111ZM12.7495 4.5C12.3353 4.5 11.9995 4.83579 11.9995 5.25C11.9995 5.66421 12.3353 6 12.7495 6C13.1638 6 13.4995 5.66421 13.4995 5.25C13.4995 4.83579 13.1638 4.5 12.7495 4.5ZM5.43703 9C5.43703 7.03249 7.03202 5.4375 8.99953 5.4375C10.9671 5.4375 12.562 7.03249 12.562 9C12.562 10.9676 10.9671 12.5625 8.99953 12.5625C7.03202 12.5625 5.43703 10.9676 5.43703 9Z" fill="#8494A1">
</svg>
