<svg width="18" height="18" viewBox="0 0 18 18" fill="none" xmlns="http://www.w3.org/2000/svg">
<path d="M16.1276 13.7858H14.4165C13.7691 13.7858 13.5744 13.2615 12.4133 12.1004C11.4 11.1235 10.9719 11.0015 10.7151 11.0015C10.3609 11.0015 10.2635 11.0988 10.2635 11.5879V13.1266C10.2635 13.543 10.1287 13.7869 9.04148 13.7869C7.98638 13.716 6.96317 13.3955 6.0562 12.8516C5.14923 12.3078 4.38444 11.5563 3.82481 10.659C2.49621 9.00533 1.57178 7.06451 1.125 4.99082C1.125 4.73397 1.22234 4.50176 1.7114 4.50176H3.42137C3.86117 4.50176 4.0195 4.69762 4.1919 5.14915C5.02225 7.5933 6.43901 9.71843 7.01369 9.71843C7.23417 9.71843 7.33034 9.62108 7.33034 9.07103V6.55418C7.25763 5.40599 6.64777 5.30865 6.64777 4.89347C6.6556 4.78397 6.70578 4.68182 6.78766 4.60869C6.86955 4.53557 6.9767 4.49721 7.0864 4.50176H9.77445C10.1416 4.50176 10.2635 4.68472 10.2635 5.12452V8.52098C10.2635 8.8881 10.4219 9.01005 10.5321 9.01005C10.7526 9.01005 10.9226 8.8881 11.3261 8.4846C12.1927 7.42786 12.9007 6.25051 13.4278 4.98965C13.4817 4.83819 13.5836 4.70853 13.7181 4.62044C13.8526 4.53235 14.0122 4.49066 14.1725 4.50176H15.8837C16.3962 4.50176 16.5053 4.7586 16.3962 5.12452C15.774 6.51833 15.0041 7.8414 14.0998 9.07103C13.9157 9.3525 13.8418 9.49913 14.0998 9.82868C14.2699 10.0855 14.8692 10.5863 15.2726 11.0624C15.8589 11.6473 16.3458 12.3239 16.714 13.0656C16.8606 13.5418 16.6155 13.7858 16.1276 13.7858Z" fill="#8494A1">
</svg>
