<svg width="45" height="36" viewBox="0 0 45 36" fill="none" xmlns="http://www.w3.org/2000/svg">
<g opacity="0.5">
<mask id="mask0_1633_1740" style="mask-type:alpha" maskUnits="userSpaceOnUse" x="0" y="0" width="45" height="36">
<path fill-rule="evenodd" clip-rule="evenodd" d="M22.5 0H0V36H45V0H22.5Z" fill="white">
</mask>
<g mask="url(#mask0_1633_1740)">
<path fill-rule="evenodd" clip-rule="evenodd" d="M6.56861 15.2738H0V33.9636C0 35.0909 0.907267 36 2.03228 36H42.6769C43.9476 36 45 34.9454 45 33.6722V8.40011C45 7.16464 44.0201 6.18281 42.7867 6.18281H32.3355C31.2458 6.18281 30.3386 5.38189 30.1934 4.32733L29.8319 1.92639C29.649 0.873647 28.7418 0 27.6893 0H17.2381C16.1503 0 15.243 0.836374 15.0974 1.92639L14.734 4.32733C14.5889 5.38189 13.6444 6.18281 12.5938 6.18281H2.17789C0.979849 6.18281 0 7.16464 0 8.36283V10.181H6.56861C7.94766 10.181 9.07267 11.3088 9.07267 12.692V12.7274C9.07267 14.1461 7.94766 15.2738 6.56861 15.2738ZM39.4989 10C40.8928 10 42 11.1068 42 12.4998C42 13.8927 40.8928 15 39.4989 15C38.1072 15 37 13.8927 37 12.4998C37 11.1434 38.1072 10 39.4989 10ZM23 11C29.0871 11 34 15.9142 34 22C34 28.0871 29.0871 33 23 33C16.9129 33 12 28.0871 12 22C12 15.9142 16.9505 11 23 11Z" fill="#ECF1F4">
</g>
<path fill-rule="evenodd" clip-rule="evenodd" d="M28 22.5C28 25.5383 25.5365 28 22.5 28C19.4617 28 17 25.5383 17 22.5C17 19.4635 19.4617 17 22.5 17C25.5365 17 28 19.4635 28 22.5Z" fill="#ECF1F4">
</g>
</svg>
