<?xml version="1.0" standalone="no"?>
<!DOCTYPE svg PUBLIC "-//W3C//DTD SVG 20010904//EN"
 "http://www.w3.org/TR/2001/REC-SVG-20010904/DTD/svg10.dtd">
<svg version="1.0" xmlns="http://www.w3.org/2000/svg"
 width="512.000000pt" height="512.000000pt" viewBox="0 0 512.000000 512.000000"
 preserveAspectRatio="xMidYMid meet">

<g transform="translate(0.000000,512.000000) scale(0.100000,-0.100000)"
fill="#000000" stroke="none">
<path d="M2325 5029 c-312 -32 -570 -106 -850 -244 -513 -253 -889 -628 -1140
-1140 -185 -375 -267 -755 -252 -1165 15 -389 96 -704 272 -1050 351 -689
1028 -1186 1790 -1314 417 -71 871 -31 1252 109 346 128 653 324 913 585 394
393 634 881 711 1440 17 124 17 496 0 620 -100 726 -486 1348 -1089 1754 -129
86 -383 215 -535 271 -320 117 -733 169 -1072 134z m545 -494 c211 -35 436
-109 610 -201 93 -49 310 -191 310 -202 0 -9 -2793 -2802 -2802 -2802 -11 0
-153 217 -202 310 -211 400 -277 889 -180 1340 180 837 887 1475 1739 1569
122 13 408 6 525 -14z m1344 -857 c93 -141 142 -233 200 -373 207 -509 190
-1100 -47 -1598 -396 -831 -1302 -1288 -2198 -1107 -181 37 -395 113 -549 197
-59 32 -226 140 -275 178 -19 15 44 79 1380 1415 770 770 1403 1400 1407 1400
4 0 41 -51 82 -112z"/>
</g>
</svg>
