<?xml version="1.0" standalone="no"?>
<!DOCTYPE svg PUBLIC "-//W3C//DTD SVG 20010904//EN"
 "http://www.w3.org/TR/2001/REC-SVG-20010904/DTD/svg10.dtd">
<svg version="1.0" xmlns="http://www.w3.org/2000/svg"
 width="512.000000pt" height="512.000000pt" viewBox="0 0 512.000000 512.000000"
 preserveAspectRatio="xMidYMid meet">

<g transform="translate(0.000000,512.000000) scale(0.100000,-0.100000)"
fill="#000000" stroke="none">
<path d="M2253 4786 c-85 -27 -151 -84 -195 -169 -16 -31 -23 -67 -27 -142
l-6 -100 -638 -3 -638 -2 3 -103 3 -102 1805 0 1805 0 3 102 3 103 -638 2
-638 3 -6 100 c-4 76 -11 110 -28 143 -33 65 -87 118 -149 149 l-57 28 -280 2
c-211 2 -290 -1 -322 -11z m562 -210 c46 -20 65 -61 65 -141 l0 -65 -320 0
-320 0 0 65 c0 79 19 121 63 140 47 21 464 21 512 1z"/>
<path d="M970 3914 c0 -64 179 -3278 185 -3321 9 -62 61 -158 103 -191 20 -16
57 -40 82 -53 l45 -24 1175 0 1175 0 63 34 c91 49 152 137 167 236 6 41 185
3253 185 3319 l0 36 -1590 0 -1590 0 0 -36z m995 -620 c69 -32 65 35 65 -1158
0 -908 -2 -1082 -14 -1111 -15 -35 -59 -65 -96 -65 -37 0 -81 30 -96 65 -12
29 -14 203 -14 1111 0 1189 -4 1125 63 1158 40 20 51 20 92 0z m640 0 c69 -32
65 35 65 -1158 0 -908 -2 -1082 -14 -1111 -15 -35 -59 -65 -96 -65 -37 0 -81
30 -96 65 -12 29 -14 203 -14 1111 0 1189 -4 1125 63 1158 40 20 51 20 92 0z
m640 0 c69 -32 65 35 65 -1158 0 -908 -2 -1082 -14 -1111 -15 -35 -59 -65 -96
-65 -37 0 -81 30 -96 65 -12 29 -14 203 -14 1111 0 1189 -4 1125 63 1158 40
20 51 20 92 0z"/>
</g>
</svg>
