<?xml version="1.0" standalone="no"?>
<!DOCTYPE svg PUBLIC "-//W3C//DTD SVG 20010904//EN"
 "http://www.w3.org/TR/2001/REC-SVG-20010904/DTD/svg10.dtd">
<svg version="1.0" xmlns="http://www.w3.org/2000/svg"
 width="512.000000pt" height="512.000000pt" viewBox="0 0 512.000000 512.000000"
 preserveAspectRatio="xMidYMid meet">

<g transform="translate(0.000000,512.000000) scale(0.100000,-0.100000)"
fill="#000000" stroke="none">
<path d="M2395 4259 c-684 -64 -1311 -498 -1735 -1199 -35 -58 -100 -179 -144
-270 -75 -155 -80 -169 -80 -230 0 -61 5 -75 80 -230 253 -519 593 -914 1010
-1172 328 -203 665 -301 1034 -301 312 0 564 60 855 202 480 235 889 667 1173
1240 92 186 96 196 96 260 0 62 -4 75 -80 231 -424 872 -1103 1397 -1899 1470
-124 11 -180 11 -310 -1z m340 -430 c353 -43 697 -222 991 -514 183 -182 337
-394 457 -632 l62 -123 -62 -122 c-359 -710 -983 -1157 -1619 -1158 -639 -1
-1267 446 -1627 1158 l-62 122 62 123 c147 290 357 561 581 747 375 313 794
451 1217 399z"/>
<path d="M2385 3395 c-294 -64 -536 -282 -636 -573 -33 -95 -34 -101 -34 -262
0 -160 1 -168 33 -260 47 -136 111 -239 212 -340 101 -101 205 -166 340 -211
79 -27 115 -33 216 -37 71 -3 149 0 188 7 294 51 554 268 655 547 42 116 55
204 49 340 -5 99 -11 136 -38 216 -99 296 -355 522 -655 577 -78 15 -256 13
-330 -4z m321 -436 c189 -71 306 -266 275 -460 -38 -233 -257 -396 -482 -360
-233 38 -396 257 -360 482 36 224 235 382 456 362 33 -3 83 -14 111 -24z"/>
</g>
</svg>
