<svg xmlns="http://www.w3.org/2000/svg" width="40" height="40" fill="none"><path fill="#8494A1" d="M8.333 15a.833.833 0 1 0 0-1.666V15Zm-5-.833v-.833a.833.833 0 0 0-.833.833h.833Zm0 21.667H2.5c0 .46.373.833.833.833v-.833Zm33.333 0v.833c.46 0 .834-.373.834-.833h-.834Zm0-21.667h.834a.833.833 0 0 0-.834-.833v.833Zm-5-.833a.833.833 0 0 0 0 1.666v-1.666Zm0-9.167h.834v-.833h-.834v.833Zm-23.333 0v-.833H7.5v.833h.833ZM20 26.667l-.5.667.5.375.5-.375-.5-.667Zm3.577-11.911a.833.833 0 1 0 1.179-1.179l-1.179 1.179ZM20 10l.589-.59a.833.833 0 0 0-1.179 0L20 10Zm-4.756 3.577a.833.833 0 1 0 1.178 1.179l-1.178-1.179Zm3.922 5.59a.833.833 0 0 0 1.667 0h-1.667ZM8.333 13.334h-5V15h5v-1.666Zm-5.833.833v21.667h1.666V14.167H2.5Zm.833 22.5h33.333V35H3.333v1.667Zm34.167-.833V14.167h-1.667v21.667H37.5Zm-.834-22.5h-5V15h5v-1.666Zm-5-10H8.333V5h23.333V3.334ZM7.5 4.167v13.75h1.666V4.167H7.5Zm.333 14.417 11.667 8.75 1-1.334-11.667-8.75-1 1.334Zm12.667 8.75 11.666-8.75-1-1.334L19.5 26l1 1.334Zm12-9.417V4.167h-1.667v13.75H32.5ZM8.833 17.25l-5-3.75-1 1.334 5 3.75 1-1.334Zm23.333 1.334 5-3.75-1-1.334-5 3.75 1 1.334Zm-7.41-5.007-4.167-4.166-1.179 1.178 4.167 4.167 1.179-1.179ZM19.41 9.411l-4.166 4.166 1.178 1.179 4.167-4.167-1.179-1.178Zm-.244.589v9.167h1.667V10h-1.667Z"/></svg>