<svg xmlns="http://www.w3.org/2000/svg" width="40" height="40" fill="none"><g fill="#8494A1"><path d="M31.95 10.426H8.31a.907.907 0 0 0-.884.884c0 .472.412.884.884.884h23.64a.907.907 0 0 0 .884-.884.907.907 0 0 0-.884-.884ZM31.95 15.908H8.31a.907.907 0 0 0-.884.885c0 .471.412.884.884.884h23.64a.907.907 0 0 0 .884-.884.868.868 0 0 0-.884-.885ZM20.16 21.332H8.31a.907.907 0 0 0-.884.884c0 .472.412.884.884.884h11.85a.907.907 0 0 0 .884-.884.907.907 0 0 0-.885-.884Z"/><path d="M33.718 4H6.6A5.56 5.56 0 0 0 1 9.6v14.031c0 3.066 2.476 5.6 5.6 5.6h.177l-1.12 6.131c-.118.59.177 1.18.708 1.474.53.295 1.179.177 1.591-.236l7.664-7.25a.67.67 0 0 1 .472-.178h17.626c3.066 0 5.6-2.476 5.6-5.6V9.6c-.058-3.124-2.534-5.6-5.6-5.6Zm3.832 19.572a3.824 3.824 0 0 1-3.832 3.832H16.033c-.59 0-1.18.236-1.65.648l-6.84 6.485.944-5.364a1.481 1.481 0 0 0-1.474-1.77H6.6a3.824 3.824 0 0 1-3.831-3.83V9.6A3.824 3.824 0 0 1 6.6 5.77h27.118A3.824 3.824 0 0 1 37.55 9.6v13.972Z"/></g></svg>