<svg width="40" height="40" viewBox="0 0 40 40" fill="none" xmlns="http://www.w3.org/2000/svg">
<path d="M7.54004 11.5H32.54M7.54004 17H32.54M7.54004 22.5H21.54M33.7596 5.5H6.32039C5.05256 5.5 3.83666 5.99436 2.94017 6.87433C2.04368 7.7543 1.54004 8.94779 1.54004 10.1923V23.659C1.54004 24.9035 2.04368 26.097 2.94017 26.9769C3.83666 27.8569 5.05256 28.3513 6.32039 28.3513H7.44975L6.17698 36.1404C6.1681 36.2043 6.17928 36.2693 6.20904 36.3268C6.2388 36.3842 6.28571 36.4314 6.34352 36.462C6.40133 36.4926 6.46727 36.5052 6.53254 36.498C6.59781 36.4909 6.6593 36.4643 6.7088 36.422L15.5584 28.3747H33.7596C35.0275 28.3747 36.2434 27.8804 37.1398 27.0004C38.0363 26.1204 38.54 24.9269 38.54 23.6825V10.2157C38.5431 9.59755 38.4218 8.98486 38.183 8.41286C37.9442 7.84086 37.5925 7.32082 37.1483 6.88261C36.7041 6.44441 36.1761 6.09668 35.5945 5.85941C35.013 5.62213 34.3894 5.49999 33.7596 5.5Z" stroke="#8494A1" stroke-width="1.63" stroke-linecap="round" stroke-linejoin="round"/>
</svg>
