<svg width="180" height="140" viewBox="0 0 180 140" fill="none" xmlns="http://www.w3.org/2000/svg">
<path fill-rule="evenodd" clip-rule="evenodd" d="M0 2C0 0.895426 0.895431 0 2 0H178C179.105 0 180 0.895431 180 2V138C180 139.105 179.105 140 178 140H2.00001C0.895436 140 0 139.105 0 138V2Z" fill="#DFE6EB">
<g opacity="0.5">
<mask id="mask0_3421_6880" style="mask-type:luminance" maskUnits="userSpaceOnUse" x="67" y="52" width="45" height="36">
<path fill-rule="evenodd" clip-rule="evenodd" d="M89.5 52H67V88H112V52H89.5Z" fill="white">
</mask>
<g mask="url(#mask0_3421_6880)">
<path fill-rule="evenodd" clip-rule="evenodd" d="M73.5686 67.2738H67V85.9636C67 87.0909 67.9073 88 69.0323 88H109.677C110.948 88 112 86.9454 112 85.6722V60.4001C112 59.1646 111.02 58.1828 109.787 58.1828H99.3355C98.2458 58.1828 97.3386 57.3819 97.1934 56.3273L96.8319 53.9264C96.649 52.8736 95.7418 52 94.6893 52H84.2381C83.1503 52 82.243 52.8364 82.0974 53.9264L81.734 56.3273C81.5889 57.3819 80.6444 58.1828 79.5938 58.1828H69.1779C67.9798 58.1828 67 59.1646 67 60.3628V62.181H73.5686C74.9477 62.181 76.0727 63.3088 76.0727 64.692V64.7274C76.0727 66.1461 74.9477 67.2738 73.5686 67.2738ZM106.499 62C107.893 62 109 63.1068 109 64.4998C109 65.8927 107.893 67 106.499 67C105.107 67 104 65.8927 104 64.4998C104 63.1434 105.107 62 106.499 62ZM90 63C96.0871 63 101 67.9142 101 74C101 80.0871 96.0871 85 90 85C83.9129 85 79 80.0871 79 74C79 67.9142 83.9505 63 90 63Z" fill="#FAFCFE">
</g>
<path fill-rule="evenodd" clip-rule="evenodd" d="M95 74.5C95 77.5383 92.5365 80 89.5 80C86.4617 80 84 77.5383 84 74.5C84 71.4635 86.4617 69 89.5 69C92.5365 69 95 71.4635 95 74.5Z" fill="#FAFCFE">
</g>
</svg>
