<svg width="40" height="40" viewBox="0 0 40 40" fill="none" xmlns="http://www.w3.org/2000/svg">
<path fill-rule="evenodd" clip-rule="evenodd" d="M20 40C31.0457 40 40 31.0457 40 20C40 8.9543 31.0457 0 20 0C8.9543 0 0 8.9543 0 20C0 31.0457 8.9543 40 20 40Z" fill="#02CC9B"/>
<path d="M29.1657 15.8333C27.6969 15.7525 26.2396 16.1343 24.9991 16.925C24.6991 16.5833 24.3907 16.2416 24.0657 15.9166L23.8241 15.6916L23.9407 15.5917C24.3483 15.2418 24.6387 14.7754 24.7728 14.2553C24.9069 13.7353 24.8783 13.1866 24.6907 12.6833C24.4198 12.1151 23.9898 11.6378 23.4528 11.3094C22.9158 10.981 22.2949 10.8156 21.6657 10.8333V12.5C21.9622 12.4959 22.2545 12.5709 22.5123 12.7174C22.7701 12.8639 22.9842 13.0765 23.1324 13.3333C23.2741 13.6667 23.1324 14.0333 22.7407 14.425L22.5491 14.6C21.6798 13.8757 20.7256 13.26 19.7074 12.7666C17.5991 11.8166 16.5157 12.2583 15.9824 12.7666C15.8199 12.9296 15.6898 13.1219 15.5991 13.3333L15.4491 13.775L14.2491 17.3916C15.1991 19.7583 17.4991 23.9667 22.4991 25.7833L26.6657 24.4C26.8062 24.3477 26.93 24.2584 27.0241 24.1416L27.1991 23.9917C28.3907 22.7916 27.6241 20.4833 26.0241 18.2416C26.9741 17.6872 28.068 17.4289 29.1657 17.5V15.8333ZM26.0074 22.8083H25.9574C25.3824 23.1166 22.9991 22.3333 20.2991 19.6333C20.0157 19.35 19.7491 19.075 19.5074 18.8C19.4241 18.7083 19.3491 18.6083 19.2657 18.5083L18.8241 17.975L18.5907 17.65C18.4741 17.4916 18.3574 17.3333 18.2574 17.1833C18.1574 17.0333 18.1241 16.9666 18.0574 16.8583C17.9907 16.75 17.8741 16.575 17.7991 16.4333C17.7241 16.2916 17.6907 16.2333 17.6407 16.125C17.5907 16.0166 17.4991 15.8916 17.4491 15.775C17.3991 15.6583 17.3741 15.5833 17.3324 15.4917C17.2907 15.4 17.2407 15.2667 17.2074 15.1583C17.1741 15.05 17.1657 15 17.1491 14.9166C17.1324 14.8333 17.0991 14.7167 17.0824 14.6333C17.0784 14.5667 17.0784 14.4999 17.0824 14.4333C17.0742 14.3613 17.0742 14.2886 17.0824 14.2167L17.1741 13.9583C17.3157 13.8083 17.9324 13.7666 19.0324 14.2666C19.7675 14.6198 20.4631 15.05 21.1074 15.55C20.7561 15.705 20.3816 15.8007 19.9991 15.8333V17.5C20.8844 17.4498 21.7434 17.1806 22.4991 16.7167L22.9074 17.1C23.2741 17.4583 23.5991 17.8166 23.8991 18.1583C23.3966 19.0151 23.197 20.016 23.3324 21L24.9991 20.675C24.9427 20.3608 24.9427 20.0391 24.9991 19.725C26.0741 21.3666 26.2741 22.55 26.0074 22.8083ZM13.6657 19.1666L11.8074 24.75C11.6733 25.1599 11.6381 25.5957 11.7046 26.0219C11.7712 26.448 11.9377 26.8524 12.1904 27.2018C12.4432 27.5513 12.7751 27.836 13.1589 28.0327C13.5428 28.2293 13.9678 28.3323 14.3991 28.3333C14.6826 28.3306 14.9639 28.2827 15.2324 28.1917L20.6657 26.3833C17.5992 24.8172 15.1377 22.2795 13.6657 19.1666Z" fill="white"/>
</svg>
