<svg width="41" height="40" viewBox="0 0 41 40" fill="none" xmlns="http://www.w3.org/2000/svg">
<path fill-rule="evenodd" clip-rule="evenodd" d="M20.666 40C31.7117 40 40.666 31.0457 40.666 20C40.666 8.9543 31.7117 0 20.666 0C9.62032 0 0.666016 8.9543 0.666016 20C0.666016 31.0457 9.62032 40 20.666 40Z" fill="#02CC9B"/>
<g clip-path="url(#clip0_5168_22100)">
<path d="M30.1967 16.875H27.8581L27.2081 15.25C26.5401 13.5793 24.946 12.5 23.1463 12.5H18.1854C16.3862 12.5 14.7917 13.5793 14.1233 15.25L13.4733 16.875H11.135C10.8299 16.875 10.6061 17.1617 10.6803 17.4574L10.9147 18.3949C10.9667 18.6035 11.1542 18.75 11.3694 18.75H12.1534C11.6288 19.2082 11.2909 19.8742 11.2909 20.625V22.5C11.2909 23.1297 11.5315 23.698 11.9159 24.1379V26.25C11.9159 26.9402 12.4756 27.5 13.1659 27.5H14.4159C15.1061 27.5 15.6659 26.9402 15.6659 26.25V25H25.6659V26.25C25.6659 26.9402 26.2256 27.5 26.9159 27.5H28.1659C28.8561 27.5 29.4159 26.9402 29.4159 26.25V24.1379C29.8002 23.6984 30.0409 23.1301 30.0409 22.5V20.625C30.0409 19.8742 29.703 19.2082 29.1788 18.75H29.9627C30.178 18.75 30.3655 18.6035 30.4174 18.3949L30.6518 17.4574C30.7256 17.1617 30.5018 16.875 30.1967 16.875ZM16.4444 16.1785C16.7292 15.4668 17.4186 15 18.1854 15H23.1463C23.9131 15 24.6026 15.4668 24.8874 16.1785L25.6659 18.125H15.6659L16.4444 16.1785ZM14.4159 22.4922C13.6659 22.4922 13.1659 21.9937 13.1659 21.2461C13.1659 20.4984 13.6659 20 14.4159 20C15.1659 20 16.2909 21.1215 16.2909 21.8691C16.2909 22.6168 15.1659 22.4922 14.4159 22.4922ZM26.9159 22.4922C26.1659 22.4922 25.0409 22.6168 25.0409 21.8691C25.0409 21.1215 26.1659 20 26.9159 20C27.6659 20 28.1659 20.4984 28.1659 21.2461C28.1659 21.9937 27.6659 22.4922 26.9159 22.4922Z" fill="white"/>
</g>
<defs>
<clipPath id="clip0_5168_22100">
<rect width="20" height="20" fill="white" transform="translate(10.666 10)"/>
</clipPath>
</defs>
</svg>
