<svg width="41" height="40" viewBox="0 0 41 40" fill="none" xmlns="http://www.w3.org/2000/svg">
<path fill-rule="evenodd" clip-rule="evenodd" d="M20.334 40C31.3797 40 40.334 31.0457 40.334 20C40.334 8.9543 31.3797 0 20.334 0C9.28829 0 0.333984 8.9543 0.333984 20C0.333984 31.0457 9.28829 40 20.334 40Z" fill="#02CC9B"/>
<path d="M27.8333 12.5H22C21.383 12.5021 20.7888 12.7338 20.3333 13.15C19.8778 12.7338 19.2837 12.5021 18.6667 12.5H12.8333C12.6123 12.5 12.4004 12.5878 12.2441 12.7441C12.0878 12.9004 12 13.1123 12 13.3333V25.8333C12 26.0543 12.0878 26.2663 12.2441 26.4226C12.4004 26.5789 12.6123 26.6667 12.8333 26.6667H17.6317C18.0735 26.6677 18.497 26.8432 18.81 27.155L19.7442 28.0892C19.7517 28.0967 19.7617 28.0992 19.7692 28.1067C19.8408 28.1733 19.9208 28.2317 20.0142 28.27H20.0158C20.2191 28.3542 20.4475 28.3542 20.6508 28.27H20.6525C20.7458 28.2317 20.8258 28.1725 20.8975 28.1067C20.905 28.0992 20.915 28.0967 20.9225 28.0892L21.8567 27.155C22.1697 26.8432 22.5932 26.6677 23.035 26.6667H27.8333C28.0543 26.6667 28.2663 26.5789 28.4226 26.4226C28.5789 26.2663 28.6667 26.0543 28.6667 25.8333V13.3333C28.6667 13.1123 28.5789 12.9004 28.4226 12.7441C28.2663 12.5878 28.0543 12.5 27.8333 12.5ZM27 25H23.035C22.3691 25.0019 21.7187 25.2018 21.1667 25.5742V15C21.1667 14.5408 21.54 14.1667 22 14.1667H27V25Z" fill="white"/>
</svg>
