<svg width="40" height="40" viewBox="0 0 40 40" fill="none" xmlns="http://www.w3.org/2000/svg">
<path fill-rule="evenodd" clip-rule="evenodd" d="M20 40C31.0457 40 40 31.0457 40 20C40 8.9543 31.0457 0 20 0C8.9543 0 0 8.9543 0 20C0 31.0457 8.9543 40 20 40Z" fill="#3DABF7"/>
<g clip-path="url(#clip0_5168_22228)">
<path d="M18.6009 13.6469C19.0385 13.4396 19.5167 13.332 20.0009 13.332C20.4851 13.332 20.9633 13.4396 21.4009 13.6469L29.5243 17.4952C29.6658 17.5622 29.7855 17.6677 29.8699 17.7996C29.9542 17.9315 29.9997 18.0845 30.0011 18.241C30.0024 18.3976 29.9597 18.5514 29.8777 18.6848C29.7958 18.8181 29.6779 18.9257 29.5376 18.9952L21.4543 23.0052C21.0026 23.2293 20.5052 23.3459 20.0009 23.3459C19.4967 23.3459 18.9993 23.2293 18.5476 23.0052L11.6676 19.5919V23.3319C11.6676 23.5529 11.5798 23.7649 11.4235 23.9211C11.2672 24.0774 11.0553 24.1652 10.8343 24.1652C10.6132 24.1652 10.4013 24.0774 10.245 23.9211C10.0887 23.7649 10.0009 23.5529 10.0009 23.3319V18.2902C9.99318 18.1255 10.0343 17.9621 10.1191 17.8207C10.2039 17.6792 10.3286 17.566 10.4776 17.4952L18.6009 13.6452V13.6469ZM13.3343 22.2802V24.9985C13.3343 25.1082 13.3559 25.2167 13.398 25.318C13.44 25.4192 13.5016 25.5112 13.5793 25.5885L13.5826 25.5936L13.6209 25.6286L13.7209 25.7219C14.2432 26.1874 14.8079 26.6031 15.4076 26.9635C16.5209 27.6319 18.1293 28.3319 20.0009 28.3319C21.8726 28.3319 23.4809 27.6319 24.5959 26.9635C25.1956 26.6031 25.7603 26.1874 26.2826 25.7219L26.3826 25.6286L26.4093 25.6019L26.4193 25.5919L26.4209 25.5902L26.4243 25.5885C26.5016 25.511 26.5629 25.419 26.6046 25.3178C26.6464 25.2165 26.6678 25.1081 26.6676 24.9985V22.2786L22.1943 24.4985C21.5125 24.8366 20.7619 25.0126 20.0009 25.0126C19.24 25.0126 18.4893 24.8366 17.8076 24.4985L13.3343 22.2786V22.2802Z" fill="white"/>
</g>
<defs>
<clipPath id="clip0_5168_22228">
<rect width="20" height="20" fill="white" transform="translate(10 10)"/>
</clipPath>
</defs>
</svg>
