<svg width="40" height="40" viewBox="0 0 40 40" fill="none" xmlns="http://www.w3.org/2000/svg">
<path fill-rule="evenodd" clip-rule="evenodd" d="M20 40C31.0457 40 40 31.0457 40 20C40 8.9543 31.0457 0 20 0C8.9543 0 0 8.9543 0 20C0 31.0457 8.9543 40 20 40Z" fill="#3DABF7"/>
<path d="M12.7485 24.6635C13.1085 25.7735 14.2027 26.4819 15.3702 26.4819H15.416C15.5231 27.0046 15.8074 27.4744 16.2209 27.8118C16.6343 28.1492 17.1516 28.3335 17.6852 28.3335C18.066 28.3335 18.4218 28.2377 18.7368 28.0727C18.8683 28.0006 18.9777 27.8942 19.0533 27.7647C19.1289 27.6352 19.1679 27.4876 19.166 27.3377V12.5227C19.1677 12.3318 19.1036 12.1461 18.9844 11.9969C18.8653 11.8477 18.6984 11.7441 18.5118 11.7035C18.0938 11.6223 17.6606 11.6812 17.2793 11.871C16.6593 12.1677 16.296 12.8302 16.296 13.5194V13.5652C15.832 13.4705 15.3502 13.5204 14.9154 13.7081C14.4806 13.8958 14.1139 14.2124 13.8647 14.615C13.6154 15.0177 13.4957 15.4871 13.5215 15.9599C13.5474 16.4328 13.7177 16.8863 14.0093 17.2594C13.3561 17.3617 12.7609 17.6942 12.3312 18.1968C11.9015 18.6994 11.6656 19.339 11.666 20.0002C11.666 20.9819 12.1752 21.8427 12.9435 22.3435C12.5852 22.986 12.4677 23.7985 12.7485 24.6635ZM25.9893 17.2594C26.281 16.8863 26.4513 16.4328 26.4772 15.9599C26.503 15.4871 26.3833 15.0177 26.134 14.615C25.8848 14.2124 25.5181 13.8958 25.0833 13.7081C24.6485 13.5204 24.1667 13.4705 23.7027 13.5652V13.5194C23.7027 12.831 23.3385 12.1677 22.7185 11.871C22.3376 11.6811 21.9046 11.6223 21.4868 11.7035C21.3004 11.7443 21.1336 11.8479 21.0144 11.9971C20.8953 12.1462 20.8312 12.3318 20.8327 12.5227V27.3369C20.8327 27.641 20.9927 27.9302 21.2627 28.0719C21.5777 28.2377 21.9327 28.3335 22.3135 28.3335C22.8473 28.3334 23.3646 28.149 23.7781 27.8115C24.1915 27.4739 24.4757 27.004 24.5827 26.481H24.6293C25.796 26.481 26.891 25.7727 27.251 24.6627C27.5318 23.7977 27.4143 22.9852 27.056 22.3427C27.4474 22.0898 27.7693 21.743 27.9923 21.3338C28.2153 20.9247 28.3323 20.4662 28.3327 20.0002C28.3331 19.339 28.0972 18.6994 27.6675 18.1968C27.2378 17.6942 26.6426 17.3617 25.9893 17.2594Z" fill="white"/>
</svg>
