<svg width="40" height="40" viewBox="0 0 40 40" fill="none" xmlns="http://www.w3.org/2000/svg">
<path fill-rule="evenodd" clip-rule="evenodd" d="M20 40C31.0457 40 40 31.0457 40 20C40 8.9543 31.0457 0 20 0C8.9543 0 0 8.9543 0 20C0 31.0457 8.9543 40 20 40Z" fill="#3DABF7"/>
<g clip-path="url(#clip0_5168_22220)">
<path d="M15.68 18.6404C15.2825 18.1116 14.5288 18.0029 14 18.4004C13.4713 18.7979 13.3625 19.5516 13.76 20.0804L15.1888 21.9854C15.3688 22.2254 15.3425 22.5591 15.1325 22.7691L14.6525 23.2491C14.4012 23.5004 13.9925 23.4816 13.7675 23.2079L10.4 19.1654V13.6004C10.4 12.9366 9.86375 12.4004 9.2 12.4004C8.53625 12.4004 8 12.9366 8 13.6004V21.7904C8 22.1991 8.13875 22.5966 8.39375 22.9154L12.2975 27.9516C12.485 28.1954 12.6125 28.4729 12.6875 28.7654C12.755 29.0241 12.9913 29.2004 13.2613 29.2004H18.2C18.53 29.2004 18.8 28.9304 18.8 28.6004V24.4004C18.8 23.3616 18.4625 22.3529 17.84 21.5204L15.68 18.6404ZM30.8 12.4004C30.1363 12.4004 29.6 12.9366 29.6 13.6004V19.1654L26.2325 23.2079C26.0075 23.4779 25.595 23.4966 25.3475 23.2491L24.8675 22.7691C24.6575 22.5591 24.6313 22.2254 24.8113 21.9854L26.24 20.0804C26.6375 19.5516 26.5288 18.7979 26 18.4004C25.4713 18.0029 24.7175 18.1116 24.32 18.6404L22.16 21.5204C21.5375 22.3529 21.2 23.3616 21.2 24.4004V28.6004C21.2 28.9304 21.47 29.2004 21.8 29.2004H26.7388C27.005 29.2004 27.245 29.0241 27.3125 28.7654C27.3875 28.4729 27.515 28.1954 27.7025 27.9516L31.6063 22.9154C31.8613 22.5966 32 22.1991 32 21.7904V13.6004C32 12.9366 31.4638 12.4004 30.8 12.4004Z" fill="white"/>
</g>
<defs>
<clipPath id="clip0_5168_22220">
<rect width="24" height="19.2" fill="white" transform="translate(8 10)"/>
</clipPath>
</defs>
</svg>
