<svg width="114" height="114" viewBox="0 0 114 114" fill="none" xmlns="http://www.w3.org/2000/svg">
<path fill-rule="evenodd" clip-rule="evenodd" d="M57 114C88.4802 114 114 88.4802 114 57C114 25.5198 88.4802 0 57 0C25.5198 0 0 25.5198 0 57C0 88.4802 25.5198 114 57 114Z" fill="#DFE6EB"/>
<path d="M73 73C66.1 73 57 77 57 77V55C57 55 66 51 75 51L73 73Z" fill="#00A0A8"/>
<path d="M41 73C47.9 73 57 77 57 77V55C57 55 48 51 39 51L41 73Z" fill="#02CC9B"/>
<path d="M57 53C61.4183 53 65 49.4183 65 45C65 40.5817 61.4183 37 57 37C52.5817 37 49 40.5817 49 45C49 49.4183 52.5817 53 57 53Z" fill="#FFB74D"/>
<path d="M74 65H75C75.6 65 76 64.6 76 64V60C76 59.4 75.6 59 75 59H74C72.3 59 71 60.3 71 62C71 63.7 72.3 65 74 65ZM40 59H39C38.4 59 38 59.4 38 60V64C38 64.6 38.4 65 39 65H40C41.7 65 43 63.7 43 62C43 60.3 41.7 59 40 59Z" fill="#FFB74D"/>
</svg>
