<svg width="114" height="114" viewBox="0 0 114 114" fill="none" xmlns="http://www.w3.org/2000/svg">
<path fill-rule="evenodd" clip-rule="evenodd" d="M57 114C88.4802 114 114 88.4802 114 57C114 25.5198 88.4802 0 57 0C25.5198 0 0 25.5198 0 57C0 88.4802 25.5198 114 57 114Z" fill="#DFE6EB"/>
<path d="M34 71H80V73H34V71ZM58 51H62V67H58V51ZM64 51H68V67H64V51ZM70 51H74V67H70V51ZM52 51H56V67H52V51ZM46 51H50V67H46V51ZM40 51H44V67H40V51ZM76 49H38V46L57 37L76 46V49ZM38 67H76V69H38V67Z" fill="#3DABF7"/>
<path d="M58 49H62V51H58V49ZM64 49H68V51H64V49ZM70 49H74V51H70V49ZM52 49H56V51H52V49ZM46 49H50V51H46V49ZM40 49H44V51H40V49ZM36 69H78V71H36V69Z" fill="#2C9AE5"/>
<path d="M57 46C58.1046 46 59 45.1046 59 44C59 42.8954 58.1046 42 57 42C55.8954 42 55 42.8954 55 44C55 45.1046 55.8954 46 57 46Z" fill="#2C9AE5"/>
</svg>
