<svg width="114" height="114" viewBox="0 0 114 114" fill="none" xmlns="http://www.w3.org/2000/svg">
<path fill-rule="evenodd" clip-rule="evenodd" d="M57 114C88.4802 114 114 88.4802 114 57C114 25.5198 88.4802 0 57 0C25.5198 0 0 25.5198 0 57C0 88.4802 25.5198 114 57 114Z" fill="#DFE6EB"/>
<path d="M38 57C38 75.9 52.8 76 55 76H59C59 76 57.1 59.5 38 57Z" fill="#00A0A8"/>
<path d="M55 59H59V76H55V59Z" fill="#00A0A8"/>
<path d="M67.0003 49.0008C67.0003 54.1008 61.8003 57.2008 59.0003 57.2008C56.2003 57.2008 57.0003 54.1008 57.0003 49.0008C57.0003 43.9008 62.0003 39.8008 62.0003 39.8008C62.0003 39.8008 67.0003 43.9008 67.0003 49.0008Z" fill="#2C9AE6"/>
<path d="M47 49.0008C47 54.1008 52.2 57.2008 55 57.2008C57.8 57.2008 57 54.1008 57 49.0008C57 43.9008 52 39.8008 52 39.8008C52 39.8008 47 43.9008 47 49.0008Z" fill="#2C9AE6"/>
<path d="M57.0006 60C54.8006 58.4 55.1006 55.5 59.4006 51.2C63.8006 46.8 65.0006 40 65.0006 40C65.0006 40 70.0006 43.4 70.0006 49C70.0006 54.9 64.3006 60 57.0006 60Z" fill="#3DABF7"/>
<path d="M57 60C59.2 58.4 58.9 55.5 54.6 51.2C50.2 46.8 49 40 49 40C49 40 44 43.4 44 49C44 54.9 49.7 60 57 60Z" fill="#3DABF7"/>
<path d="M63 49C63 55.1 60.3 60 57 60C53.7 60 51 55.1 51 49C51 42.9 57 38 57 38C57 38 63 42.9 63 49Z" fill="#3DABF7"/>
<path d="M55 76H59C61.2 76 76 75.9 76 57C56.9 59.5 55 76 55 76Z" fill="#02CC9B"/>
</svg>
