<svg width="114" height="114" viewBox="0 0 114 114" fill="none" xmlns="http://www.w3.org/2000/svg">
<path fill-rule="evenodd" clip-rule="evenodd" d="M57 114C88.4802 114 114 88.4802 114 57C114 25.5198 88.4802 0 57 0C25.5198 0 0 25.5198 0 57C0 88.4802 25.5198 114 57 114Z" fill="#DFE6EB"/>
<path d="M73.9961 37.0645L80.9961 44.0645L73.9961 51.0635L66.9961 44.0635L73.9961 37.0645Z" fill="#FFB74D"/>
<path d="M69 39H79V49H69V39Z" fill="#FFB74D"/>
<path d="M74 47C75.6569 47 77 45.6569 77 44C77 42.3431 75.6569 41 74 41C72.3431 41 71 42.3431 71 44C71 45.6569 72.3431 47 74 47Z" fill="#FFB74D"/>
<path d="M49.5 49L33 73H66L49.5 49Z" fill="#00A0A8"/>
<path d="M66.5992 55L52.1992 73H80.9992L66.5992 55Z" fill="#02CC9B"/>
</svg>
