<svg width="114" height="114" viewBox="0 0 114 114" fill="none" xmlns="http://www.w3.org/2000/svg">
<path fill-rule="evenodd" clip-rule="evenodd" d="M57 114C88.4802 114 114 88.4802 114 57C114 25.5198 88.4802 0 57 0C25.5198 0 0 25.5198 0 57C0 88.4802 25.5198 114 57 114Z" fill="#DFE6EB"/>
<path d="M75 72H39V56L57 39L75 56V72Z" fill="#E8EAF6"/>
<path d="M72 54L67 49V42H72V54ZM39 72H75V77H39V72Z" fill="#02CC9B"/>
<path d="M57 37.3008L37 55.9008L39 58.1008L57 41.4008L75 58.1008L77 55.9008L57 37.3008Z" fill="#3DABF7"/>
<path d="M51 61H63V77H51V61Z" fill="#3DABF7"/>
<path d="M54 50H60V56H54V50Z" fill="#3DABF7"/>
<path d="M60.5 68.5C60.2 68.5 60 68.7 60 69V71C60 71.3 60.2 71.5 60.5 71.5C60.8 71.5 61 71.3 61 71V69C61 68.7 60.8 68.5 60.5 68.5Z" fill="#2C9AE5"/>
</svg>
