<svg width="80" height="80" viewBox="0 0 80 80" fill="none" xmlns="http://www.w3.org/2000/svg">
<path fill-rule="evenodd" clip-rule="evenodd" d="M40 80C62.0914 80 80 62.0914 80 40C80 17.9086 62.0914 0 40 0C17.9086 0 0 17.9086 0 40C0 62.0914 17.9086 80 40 80Z" fill="#02CC9B"/>
<path d="M25.7073 24.2933C25.6143 24.2003 25.504 24.1265 25.3825 24.0762C25.261 24.0259 25.1308 24 24.9993 24C24.8678 24 24.7376 24.0259 24.6161 24.0762C24.4947 24.1265 24.3843 24.2003 24.2913 24.2933C24.1983 24.3862 24.1246 24.4966 24.0743 24.6181C24.0239 24.7396 23.998 24.8698 23.998 25.0013C23.998 25.1328 24.0239 25.263 24.0743 25.3844C24.1246 25.5059 24.1983 25.6163 24.2913 25.7093L26.6113 28.0273C25.8891 28.1215 25.2259 28.4752 24.7452 29.0224C24.2646 29.5696 23.9995 30.273 23.9993 31.0013V45.0013C23.9993 45.7969 24.3154 46.56 24.878 47.1226C25.4406 47.6852 26.2037 48.0013 26.9993 48.0013H46.5853L48.5853 50.0013H28.1693C28.3762 50.5864 28.7595 51.093 29.2663 51.4512C29.7732 51.8094 30.3787 52.0016 30.9993 52.0013H48.9993C49.4913 52.0013 49.9733 51.9513 50.4373 51.8533L54.2913 55.7093C54.4791 55.897 54.7338 56.0025 54.9993 56.0025C55.2649 56.0025 55.5195 55.897 55.7073 55.7093C55.8951 55.5215 56.0006 55.2668 56.0006 55.0013C56.0006 54.7357 55.8951 54.481 55.7073 54.2933L25.7073 24.2933ZM39.6653 41.0813C39.0022 41.4409 38.2406 41.5767 37.494 41.4684C36.7474 41.3601 36.0558 41.0134 35.5223 40.4801C34.9887 39.9467 34.6417 39.2553 34.5331 38.5087C34.4244 37.7622 34.5599 37.0006 34.9193 36.3373L39.6633 41.0813H39.6653ZM31.8093 33.2253C31.5501 34.0318 31.0414 34.7353 30.3567 35.2342C29.672 35.7331 28.8465 36.0017 27.9993 36.0013H25.9993V34.0013H27.9993C28.5297 34.0013 29.0385 33.7905 29.4135 33.4155C29.7886 33.0404 29.9993 32.5317 29.9993 32.0013V31.4153L31.8093 33.2253ZM25.9993 42.0013V40.0013H27.9993C29.0602 40.0013 30.0776 40.4227 30.8277 41.1728C31.5779 41.923 31.9993 42.9404 31.9993 44.0013V46.0013H29.9993V44.0013C29.9993 43.4708 29.7886 42.9621 29.4135 42.587C29.0385 42.212 28.5297 42.0013 27.9993 42.0013H25.9993ZM38.8333 34.6013L41.3993 37.1673L45.2913 41.0573C46.0289 40.377 46.9959 39.9999 47.9993 40.0013H49.9993V42.0013H47.9993C47.526 42.0008 47.068 42.1688 46.7073 42.4753L51.2353 47.0013C51.7093 46.4713 51.9993 45.7693 51.9993 45.0013V31.0013C51.9993 30.2056 51.6832 29.4426 51.1206 28.8799C50.558 28.3173 49.795 28.0013 48.9993 28.0013H32.2333L38.8333 34.6013ZM49.9993 34.0013V36.0013H47.9993C46.9384 36.0013 45.921 35.5798 45.1709 34.8297C44.4207 34.0795 43.9993 33.0621 43.9993 32.0013V30.0013H45.9993V32.0013C45.9993 32.5317 46.21 33.0404 46.5851 33.4155C46.9602 33.7905 47.4689 34.0013 47.9993 34.0013H49.9993ZM52.6513 48.4173L54.0653 49.8333C55.2653 48.5753 55.9993 46.8733 55.9993 45.0013V35.0013C55.9996 34.3806 55.8075 33.7751 55.4493 33.2683C55.0911 32.7614 54.5845 32.3781 53.9993 32.1713V45.0013C53.9993 46.3213 53.4873 47.5233 52.6513 48.4173Z" fill="white"/>
</svg>
