<svg width="80" height="80" viewBox="0 0 80 80" fill="none" xmlns="http://www.w3.org/2000/svg">
<path fill-rule="evenodd" clip-rule="evenodd" d="M40 80C62.0914 80 80 62.0914 80 40C80 17.9086 62.0914 0 40 0C17.9086 0 0 17.9086 0 40C0 62.0914 17.9086 80 40 80Z" fill="#02CC9B"/>
<path d="M29.1667 23.332H48.3333C49.4384 23.332 50.4982 23.771 51.2796 24.5524C52.061 25.3338 52.5 26.3936 52.5 27.4987V38.8537C50.6008 38.2384 48.5685 38.1598 46.6275 38.6266C44.6865 39.0935 42.9122 40.0876 41.5006 41.4993C40.0889 42.9109 39.0948 44.6852 38.6279 46.6262C38.1611 48.5672 38.2397 50.5995 38.855 52.4987H27.5C27.5 52.9407 27.6756 53.3646 27.9882 53.6772C28.3007 53.9898 28.7246 54.1654 29.1667 54.1654H39.5533C40.0305 55.0798 40.6355 55.9215 41.35 56.6654H29.1667C28.0616 56.6654 27.0018 56.2264 26.2204 55.445C25.439 54.6636 25 53.6038 25 52.4987V27.4987C25 26.3936 25.439 25.3338 26.2204 24.5524C27.0018 23.771 28.0616 23.332 29.1667 23.332ZM31.6667 28.332C31.2246 28.332 30.8007 28.5076 30.4882 28.8202C30.1756 29.1327 30 29.5567 30 29.9987V31.6654C30 32.1074 30.1756 32.5313 30.4882 32.8439C30.8007 33.1564 31.2246 33.332 31.6667 33.332H45C45.442 33.332 45.8659 33.1564 46.1785 32.8439C46.4911 32.5313 46.6667 32.1074 46.6667 31.6654V29.9987C46.6667 29.5567 46.4911 29.1327 46.1785 28.8202C45.8659 28.5076 45.442 28.332 45 28.332H31.6667ZM58.3333 49.1654C58.3333 46.7342 57.3676 44.4026 55.6485 42.6836C53.9294 40.9645 51.5978 39.9987 49.1667 39.9987C46.7355 39.9987 44.4039 40.9645 42.6849 42.6836C40.9658 44.4026 40 46.7342 40 49.1654C40 51.5965 40.9658 53.9281 42.6849 55.6472C44.4039 57.3663 46.7355 58.332 49.1667 58.332C51.5978 58.332 53.9294 57.3663 55.6485 55.6472C57.3676 53.9281 58.3333 51.5965 58.3333 49.1654ZM48.19 45.1604L52.8667 48.227C53.0116 48.32 53.1305 48.4484 53.2121 48.6C53.2937 48.7516 53.3354 48.9215 53.3333 49.0937C53.3335 49.267 53.2924 49.4378 53.2133 49.592C53.1387 49.7447 53.0248 49.8747 52.8833 49.9687L48.205 53.1604C48.1236 53.2151 48.035 53.2583 47.9417 53.2887C47.725 53.3579 47.4905 53.3442 47.2833 53.2504C47.1639 53.1945 47.0551 53.1183 46.9617 53.0254C46.8714 52.9271 46.7982 52.8144 46.745 52.692C46.6929 52.5669 46.6663 52.4326 46.6667 52.297V46.0337C46.6658 45.8332 46.7231 45.6367 46.8317 45.468C46.9403 45.2994 47.0954 45.1659 47.2783 45.0837C47.4236 45.0156 47.5842 44.9867 47.7442 44.9999C47.9041 45.013 48.0578 45.0678 48.19 45.1587V45.1604Z" fill="white"/>
</svg>
