<svg width="80" height="80" viewBox="0 0 80 80" fill="none" xmlns="http://www.w3.org/2000/svg">
<path fill-rule="evenodd" clip-rule="evenodd" d="M40 80C62.0914 80 80 62.0914 80 40C80 17.9086 62.0914 0 40 0C17.9086 0 0 17.9086 0 40C0 62.0914 17.9086 80 40 80Z" fill="#02CC9B"/>
<path d="M45 29C45 30.3261 44.4732 31.5979 43.5355 32.5355C42.5979 33.4732 41.3261 34 40 34C38.6739 34 37.4021 33.4732 36.4645 32.5355C35.5268 31.5979 35 30.3261 35 29C35 27.6739 35.5268 26.4021 36.4645 25.4645C37.4021 24.5268 38.6739 24 40 24C41.3261 24 42.5979 24.5268 43.5355 25.4645C44.4732 26.4021 45 27.6739 45 29ZM55 30C55 31.0609 54.5786 32.0783 53.8284 32.8284C53.0783 33.5786 52.0609 34 51 34C49.9391 34 48.9217 33.5786 48.1716 32.8284C47.4214 32.0783 47 31.0609 47 30C47 28.9391 47.4214 27.9217 48.1716 27.1716C48.9217 26.4214 49.9391 26 51 26C52.0609 26 53.0783 26.4214 53.8284 27.1716C54.5786 27.9217 55 28.9391 55 30ZM29 34C30.0609 34 31.0783 33.5786 31.8284 32.8284C32.5786 32.0783 33 31.0609 33 30C33 28.9391 32.5786 27.9217 31.8284 27.1716C31.0783 26.4214 30.0609 26 29 26C27.9391 26 26.9217 26.4214 26.1716 27.1716C25.4214 27.9217 25 28.9391 25 30C25 31.0609 25.4214 32.0783 26.1716 32.8284C26.9217 33.5786 27.9391 34 29 34ZM32 38.5C32 37.12 33.12 36 34.5 36H45.5C46.88 36 48 37.12 48 38.5V48C48 50.1217 47.1571 52.1566 45.6569 53.6569C44.1566 55.1571 42.1217 56 40 56C37.8783 56 35.8434 55.1571 34.3431 53.6569C32.8429 52.1566 32 50.1217 32 48V38.5ZM30 38.5C30 37.574 30.28 36.716 30.758 36H26.5C25.12 36 24 37.12 24 38.5V46C23.9999 46.8562 24.1831 47.7026 24.5372 48.4822C24.8913 49.2617 25.4082 49.9565 26.0531 50.5197C26.698 51.083 27.456 51.5017 28.2761 51.7477C29.0963 51.9937 29.9596 52.0613 30.808 51.946C30.2729 50.6994 29.998 49.3566 30 48V38.5ZM50 48C50 49.4 49.712 50.736 49.192 51.946C50.0404 52.0613 50.9037 51.9937 51.7239 51.7477C52.544 51.5017 53.302 51.083 53.9469 50.5197C54.5918 49.9565 55.1087 49.2617 55.4628 48.4822C55.8169 47.7026 56.0001 46.8562 56 46V38.5C56 37.12 54.88 36 53.5 36H49.242C49.722 36.716 50 37.574 50 38.5V48Z" fill="white"/>
</svg>
