<svg width="80" height="80" viewBox="0 0 80 80" fill="none" xmlns="http://www.w3.org/2000/svg">
<path fill-rule="evenodd" clip-rule="evenodd" d="M40 80C62.0914 80 80 62.0914 80 40C80 17.9086 62.0914 0 40 0C17.9086 0 0 17.9086 0 40C0 62.0914 17.9086 80 40 80Z" fill="#02CC9B"/>
<path d="M43.0343 56.6654H36.9676C36.5875 56.6654 36.2188 56.5356 35.9226 56.2973C35.6264 56.059 35.4206 55.7267 35.3393 55.3554L34.6609 52.2154C33.756 51.8189 32.898 51.323 32.1026 50.737L29.0409 51.712C28.6786 51.8276 28.2875 51.8157 27.9328 51.6784C27.5781 51.541 27.281 51.2865 27.0909 50.957L24.0509 45.7054C23.8629 45.3756 23.7923 44.9917 23.8507 44.6166C23.9091 44.2415 24.0931 43.8973 24.3726 43.6404L26.7476 41.4737C26.6396 40.4922 26.6396 39.5018 26.7476 38.5204L24.3726 36.3587C24.0927 36.1017 23.9085 35.7572 23.85 35.3817C23.7916 35.0062 23.8624 34.622 24.0509 34.292L27.0843 29.037C27.2744 28.7076 27.5714 28.453 27.9261 28.3157C28.2809 28.1783 28.6719 28.1665 29.0343 28.282L32.0959 29.257C32.5026 28.957 32.9259 28.677 33.3626 28.4237C33.7843 28.187 34.2176 27.972 34.6609 27.7804L35.3409 24.6437C35.4219 24.2724 35.6273 23.9398 35.9232 23.7013C36.219 23.4627 36.5876 23.3324 36.9676 23.332H43.0343C43.4143 23.3324 43.7828 23.4627 44.0787 23.7013C44.3746 23.9398 44.58 24.2724 44.6609 24.6437L45.3476 27.782C46.2514 28.1808 47.1092 28.6765 47.9059 29.2604L50.9693 28.2854C51.3314 28.1702 51.7221 28.1823 52.0765 28.3196C52.4308 28.4569 52.7276 28.7112 52.9176 29.0404L55.9509 34.2954C56.3376 34.9737 56.2043 35.832 55.6293 36.3604L53.2543 38.527C53.3623 39.5085 53.3623 40.4989 53.2543 41.4804L55.6293 43.647C56.2043 44.177 56.3376 45.0337 55.9509 45.712L52.9176 50.967C52.7275 51.2965 52.4305 51.551 52.0757 51.6884C51.721 51.8257 51.33 51.8376 50.9676 51.722L47.9059 50.747C47.1112 51.3326 46.2537 51.8279 45.3493 52.2237L44.6609 55.3554C44.5797 55.7264 44.3741 56.0585 44.0783 56.2968C43.7824 56.535 43.4141 56.665 43.0343 56.6654ZM39.9943 33.332C38.2262 33.332 36.5305 34.0344 35.2802 35.2847C34.03 36.5349 33.3276 38.2306 33.3276 39.9987C33.3276 41.7668 34.03 43.4625 35.2802 44.7127C36.5305 45.963 38.2262 46.6654 39.9943 46.6654C41.7624 46.6654 43.4581 45.963 44.7083 44.7127C45.9586 43.4625 46.6609 41.7668 46.6609 39.9987C46.6609 38.2306 45.9586 36.5349 44.7083 35.2847C43.4581 34.0344 41.7624 33.332 39.9943 33.332Z" fill="white"/>
</svg>
