<svg width="80" height="80" viewBox="0 0 80 80" fill="none" xmlns="http://www.w3.org/2000/svg">
<path fill-rule="evenodd" clip-rule="evenodd" d="M40 80C62.0914 80 80 62.0914 80 40C80 17.9086 62.0914 0 40 0C17.9086 0 0 17.9086 0 40C0 62.0914 17.9086 80 40 80Z" fill="#02CC9B"/>
<path d="M33.334 40.0885C36.659 40.0885 39.1673 37.5802 39.1673 34.2552C39.1673 30.9302 36.659 28.4219 33.334 28.4219C30.009 28.4219 27.5007 30.9302 27.5007 34.2552C27.5007 37.5802 30.009 40.0885 33.334 40.0885ZM35.0007 41.6685H31.6673C27.0723 41.6685 23.334 45.4069 23.334 50.0019V51.6685H43.334V50.0019C43.334 45.4069 39.5956 41.6685 35.0007 41.6685ZM53.824 33.8219L46.6573 40.9752L44.504 38.8219L42.1473 41.1785L46.6573 45.6852L56.1773 36.1819L53.824 33.8219Z" fill="white"/>
</svg>
