<svg width="20" height="20" viewBox="0 0 20 20" fill="none" xmlns="http://www.w3.org/2000/svg">
<path fill-rule="evenodd" clip-rule="evenodd" d="M18.8962 0H1.10381C0.494129 0 0 0.494127 0 1.1038V18.8961C0 19.5057 0.494129 20 1.10381 20H10.6827V12.2549H8.07624V9.23652H10.6827V7.01055C10.6827 4.42736 12.2604 3.02074 14.5648 3.02074C15.6687 3.02074 16.6174 3.10287 16.8938 3.13959V5.83923L15.2956 5.83997C14.0424 5.83997 13.7996 6.43549 13.7996 7.30939V9.23652H16.7886L16.3995 12.2549H13.7996V20H18.8962C19.5058 20 20 19.5057 20 18.8961V1.1038C20 0.494127 19.5058 0 18.8962 0Z" fill="#ECF1F4">
</svg>
