<svg width="16" height="16" viewBox="0 0 16 16" fill="none" xmlns="http://www.w3.org/2000/svg">
<path fill-rule="evenodd" clip-rule="evenodd" d="M7.73322 3.77445C8.42325 3.77445 9.08614 3.96133 9.65161 4.3146L10.2975 4.75869C10.5228 4.91355 10.8255 4.88639 11.0193 4.69312L12.9036 2.81814C13.0244 2.69787 13.0851 2.53034 13.0699 2.36061C13.0548 2.19089 12.9651 2.0367 12.825 1.94035L11.73 1.18578C11.7075 1.17054 11.6841 1.15672 11.66 1.14481L10.5991 0.618476C10.585 0.611328 10.5706 0.605039 10.5561 0.599035C9.64231 0.236903 8.67928 0.0529785 7.69433 0.0529785C5.6641 0.0529785 3.74875 0.83585 2.30135 2.2575C0.831371 3.70069 0.0142332 5.66364 0.000193694 7.78478C-0.0142253 9.90591 0.776826 11.8799 2.22755 13.3437C3.66717 14.7958 5.70935 15.6289 7.83112 15.6289C9.92993 15.6289 11.8994 14.81 13.2338 13.3828C14.2909 12.2519 14.9398 10.7416 15.1102 9.01507C15.1121 8.99868 15.1128 8.98229 15.1132 8.9659L15.1328 7.41473C15.1332 7.38271 15.131 7.35069 15.1262 7.31906L15.0432 6.78901C14.9998 6.51093 14.7611 6.30575 14.481 6.30575H7.90369C7.58913 6.30575 7.33452 6.56153 7.33452 6.87754V9.16326C7.33452 9.47888 7.58913 9.73505 7.90369 9.73505H11.2569C11.1031 10.0734 10.8611 10.4304 10.5547 10.7628C9.88696 11.4883 8.89091 11.9045 7.82182 11.9045C6.73053 11.9045 5.68525 11.4749 4.95415 10.726C3.43229 9.16697 3.45003 6.45061 4.99115 4.91317C5.71675 4.18948 6.71649 3.77445 7.73322 3.77445Z" fill="#ECF1F4"/>
</svg>
