<svg width="23" height="13" viewBox="0 0 23 13" fill="none" xmlns="http://www.w3.org/2000/svg">
<path fill-rule="evenodd" clip-rule="evenodd" d="M12.628 12.9455C12.628 12.9455 13.0431 12.9001 13.2554 12.6739C13.4505 12.4659 13.4443 12.0756 13.4443 12.0756C13.4443 12.0756 13.4174 10.248 14.2734 9.97888C15.1175 9.7136 16.2013 11.7452 17.3499 12.5264C18.2185 13.1174 18.8786 12.988 18.8786 12.988L21.9502 12.9455C21.9502 12.9455 23.5568 12.8473 22.795 11.5957C22.7326 11.4934 22.3511 10.6698 20.5111 8.97771C18.585 7.20662 18.8432 7.49316 21.1632 4.42963C22.576 2.56394 23.1408 1.42499 22.9643 0.937206C22.7962 0.472448 21.7569 0.595218 21.7569 0.595218L18.2986 0.616401C18.2986 0.616401 18.042 0.581817 17.852 0.694476C17.6662 0.804647 17.5469 1.06206 17.5469 1.06206C17.5469 1.06206 16.9993 2.50568 16.2696 3.73362C14.7296 6.32429 14.1137 6.46142 13.862 6.3003C13.2764 5.92533 13.4227 4.79425 13.4227 3.99047C13.4227 1.47972 13.8071 0.432889 12.6742 0.161914C12.2983 0.0720441 12.0214 0.0125853 11.06 0.00287612C9.82594 -0.00956129 8.78173 0.00664744 8.19034 0.293671C7.79689 0.484565 7.49334 0.909844 7.67832 0.934317C7.90695 0.964488 8.42448 1.07273 8.69888 1.44265C9.05338 1.92048 9.04098 2.99315 9.04098 2.99315C9.04098 2.99315 9.24468 5.94868 8.56541 6.3157C8.09931 6.5675 7.45981 6.05347 6.08685 3.70304C5.38353 2.4991 4.85231 1.16814 4.85231 1.16814C4.85231 1.16814 4.75002 0.919473 4.56731 0.786352C4.34572 0.625067 4.03609 0.573954 4.03609 0.573954L0.749655 0.595218C0.749655 0.595218 0.256423 0.608859 0.0751657 0.821418C-0.0860865 1.01063 0.0622882 1.40148 0.0622882 1.40148C0.0622882 1.40148 2.63503 7.36518 5.54843 10.3705C8.22006 13.1263 11.2532 12.9455 11.2532 12.9455H12.628Z" fill="#ECF1F4"/>
</svg>
