<svg width="30" height="30" viewBox="0 0 30 30" fill="none" xmlns="http://www.w3.org/2000/svg">
<path d="M27.8957 13.8505H24.2821L25.513 11.7538C25.818 11.2343 25.637 10.5699 25.1088 10.27C24.5806 9.96991 23.9048 10.1479 23.5999 10.6676L22.3689 12.7643L20.5976 9.74717H23.06C23.6702 9.74717 24.1646 9.26083 24.1646 8.66095C24.1646 8.06106 23.6702 7.57473 23.06 7.57473H20.5976L22.4045 4.49725C22.7095 3.97775 22.5285 3.31342 22.0003 3.01348C21.4717 2.71339 20.7963 2.89138 20.4914 3.41103L18.6846 6.48865L17.4533 4.39153C17.1485 3.87188 16.4727 3.69388 15.9445 3.99397C15.4163 4.29391 15.2353 4.95824 15.5403 5.47775L16.7713 7.57473H13.2287L14.4599 5.47775C14.7649 4.95824 14.5839 4.29391 14.0556 3.99397C13.5272 3.69388 12.8517 3.87202 12.5468 4.39153L11.3156 6.48836L9.50885 3.41103C9.20385 2.89153 8.52816 2.71353 8.00004 3.01348C7.47162 3.31342 7.29062 3.97775 7.59577 4.49725L9.40252 7.57473H6.94041C6.3304 7.57473 5.83586 8.06106 5.83586 8.66095C5.83586 9.26083 6.3304 9.74717 6.94041 9.74717H9.40237L7.63112 12.7643L6.40006 10.6676C6.09506 10.1481 5.41937 9.97006 4.89125 10.27C4.36298 10.5699 4.18198 11.2343 4.48698 11.7538L5.71804 13.8505H2.10455C1.49454 13.8505 1 14.3368 1 14.9367C1 15.5366 1.49454 16.0229 2.10455 16.0229H5.71804L4.48698 18.1199C4.18198 18.6394 4.36298 19.3037 4.89125 19.6037C5.06518 19.7024 5.25516 19.7494 5.44249 19.7494C5.82422 19.7494 6.1955 19.5544 6.40006 19.2061L7.63112 17.1091L9.40237 20.1262H6.94041C6.3304 20.1262 5.83586 20.6126 5.83586 21.2124C5.83586 21.8123 6.3304 22.2987 6.94041 22.2987H9.40252L7.59577 25.3761C7.29077 25.8956 7.47177 26.56 8.00004 26.8599C8.17397 26.9587 8.36395 27.0056 8.55128 27.0056C8.93301 27.0056 9.30429 26.8107 9.50885 26.4623L11.3156 23.3847L12.5467 25.4816C12.7512 25.83 13.1225 26.0248 13.5042 26.0248C13.6916 26.0248 13.8815 25.9779 14.0555 25.8791C14.5837 25.5792 14.7647 24.9148 14.4597 24.3953L13.2287 22.2985H16.771L15.5401 24.3953C15.2351 24.9148 15.4161 25.5792 15.9444 25.8791C16.1183 25.9779 16.3083 26.0248 16.4956 26.0248C16.8774 26.0248 17.2486 25.83 17.4532 25.4816L18.6844 23.3846L20.4913 26.4623C20.6959 26.8108 21.0671 27.0056 21.4489 27.0056C21.6362 27.0056 21.8263 26.9587 22.0001 26.8599C22.5284 26.56 22.7094 25.8956 22.4044 25.3761L20.5976 22.2987H23.0597C23.6699 22.2987 24.1643 21.8123 24.1643 21.2124C24.1643 20.6126 23.6699 20.1262 23.0597 20.1262H20.5973L22.3686 17.1091L23.5996 19.2061C23.8042 19.5546 24.1755 19.7494 24.5572 19.7494C24.7445 19.7494 24.9347 19.7024 25.1085 19.6037C25.6367 19.3037 25.8177 18.6394 25.5127 18.1199L24.2817 16.0229H27.8955C28.5056 16.0229 29 15.5366 29 14.9367C29.0003 14.3368 28.5059 13.8505 27.8957 13.8505ZM18.0467 20.1262H11.9534L8.90665 14.9367L11.9533 9.74717H18.0467L21.0935 14.9367L18.0467 20.1262Z" fill="#8494A1"/>
</svg>
