<svg width="30" height="30" viewBox="0 0 30 30" xmlns="http://www.w3.org/2000/svg">
<path d="M4.67822 22.1276L5.48071 25.3701C6.12801 27.6554 10.4489 28.8677 15.3876 28.8677C20.2748 28.8677 24.7046 27.6301 25.295 25.3701L26.0974 22.1272C22.6786 23.5951 19.0358 24.3456 15.3872 24.3456C11.7394 24.3455 8.09661 23.595 4.67822 22.1276Z" />
<path d="M18.5509 10.1571C17.7895 10.0753 17.2114 9.43293 17.2114 8.66749V8.66528C17.2114 7.69583 17.5064 6.75906 18.0588 5.96248C18.4224 5.43821 18.6354 4.80177 18.6354 4.1156C18.6355 2.3215 17.1817 0.867676 15.3876 0.867676C13.594 0.867676 12.1397 2.3215 12.1397 4.11554C12.1397 4.80171 12.3528 5.43815 12.7165 5.96243C13.267 6.75594 13.5637 7.69947 13.5637 8.66522V8.66744C13.5637 9.4347 12.987 10.0748 12.2243 10.157C7.33715 10.6845 3 12.4292 3 15.2478C3 15.6386 4.17606 20.0988 4.17606 20.0988C11.2499 23.5597 19.5257 23.5602 26.5995 20.0984C26.5995 20.0984 27.7751 15.6386 27.7751 15.2478C27.7752 12.4293 23.4381 10.6846 18.5509 10.1571ZM15.3876 2.63364C16.219 2.63364 16.8931 3.30759 16.8931 4.13907C16.8931 4.97042 16.219 5.64449 15.3876 5.64449C14.5562 5.64449 13.8822 4.97042 13.8822 4.13907C13.8823 3.30765 14.5562 2.63364 15.3876 2.63364ZM15.3876 11.7761C21.7621 11.7761 25.6763 13.7985 25.6763 15.2479C25.6763 16.6981 21.7621 18.7201 15.3876 18.7201C9.01311 18.7201 5.09891 16.6981 5.09891 15.2479C5.09891 13.7985 9.01311 11.7761 15.3876 11.7761Z" />
</svg>
