<svg width="30" height="30" viewBox="0 0 30 30" fill="none" xmlns="http://www.w3.org/2000/svg">
<path d="M18.5508 3.62651L16.2429 7.24908L27.6553 25.17H22.4657C22.1833 25.17 21.901 25.1219 21.6361 25.0231C17.4565 23.4607 15.8499 18.6326 15.2823 16.0805C15.2125 15.7687 14.7846 15.7687 14.7148 16.0805C14.1443 18.6355 12.5405 23.4637 8.36093 25.0231C8.09602 25.1219 7.81377 25.17 7.53141 25.17H2.34178L13.7513 7.25804L11.4374 3.62651C11.1288 3.14066 11.2599 2.48992 11.7314 2.17205C12.203 1.85417 12.8345 1.98915 13.1431 2.47485L14.9709 5.34483L15 5.29985L15.0233 5.3388L16.8453 2.47485C17.1538 1.98915 17.7854 1.85417 18.257 2.17205C18.7285 2.48992 18.8594 3.14066 18.5508 3.62651Z" fill="#8494A1"/>
<path d="M1.76261 26.1293H28.2374C28.6593 26.1293 29 26.4651 29 26.879V27.4788C29 27.8926 28.6593 28.2285 28.2374 28.2285H1.76261C1.3405 28.2285 1 27.8926 1 27.4788V26.879C1 26.4651 1.3405 26.1293 1.76261 26.1293Z" fill="#8494A1"/>
</svg>
