<svg width="30" height="30" viewBox="0 0 30 30" fill="none" xmlns="http://www.w3.org/2000/svg">
<path d="M5.28302 3.86768H5.28067C5.01584 3.86768 4.76677 3.97091 4.57869 4.15852C4.38853 4.3482 4.28379 4.60077 4.28379 4.86964V19.894C4.28379 20.4449 4.73377 20.8942 5.28698 20.8957C7.61919 20.9012 11.5266 21.3873 14.2221 24.2081V8.48476C14.2221 8.298 14.1744 8.12255 14.0844 7.97736C11.872 4.41448 7.62051 3.87314 5.28302 3.86768Z" fill="#8494A1"/>
<path d="M25.7161 19.8941V4.86964C25.7161 4.60077 25.6113 4.3482 25.4212 4.15852C25.2331 3.97091 24.9838 3.86768 24.7193 3.86768H24.7168C22.3794 3.87324 18.128 4.41457 15.9155 7.97746C15.8255 8.12264 15.7779 8.29809 15.7779 8.48485V24.2081C18.4734 21.3873 22.3808 20.9012 24.713 20.8957C25.2661 20.8942 25.7161 20.4449 25.7161 19.8941Z" fill="#8494A1"/>
<path d="M27.9982 7.33262H27.2717V19.8941C27.2717 21.3008 26.1256 22.4478 24.7168 22.4513C22.7386 22.456 19.4768 22.8428 17.1667 25.0292C21.162 24.051 25.3737 24.6869 27.7739 25.2339C28.0736 25.3021 28.3833 25.2316 28.6235 25.0402C28.8627 24.8493 29 24.5639 29 24.2576V8.33439C29.0001 7.78203 28.5506 7.33262 27.9982 7.33262Z" fill="#8494A1"/>
<path d="M2.72827 19.8941V7.33262H2.00178C1.44951 7.33262 1 7.78203 1 8.33439V24.2574C1 24.5638 1.13727 24.849 1.37654 25.0399C1.61647 25.2312 1.92589 25.302 2.22606 25.2336C4.62633 24.6865 8.83812 24.0507 12.8332 25.0289C10.5232 22.8427 7.26145 22.4559 5.28325 22.4512C3.87448 22.4478 2.72827 21.3008 2.72827 19.8941Z" fill="#8494A1"/>
</svg>
