<svg width="30" height="30" viewBox="0 0 30 30" xmlns="http://www.w3.org/2000/svg">
<path d="M22.6594 1.41579C22.5136 1.15859 22.2412 1 21.9456 1H12.1018C11.7253 1 11.3976 1.25638 11.3063 1.62164L8.02504 14.8014C7.96335 15.0465 8.01864 15.3061 8.17407 15.5047C8.32949 15.7042 8.5682 15.8203 8.82053 15.8203H12.5584L8.05233 27.8914C7.90812 28.2759 8.07076 28.7077 8.43203 28.9023C8.79494 29.0968 9.24392 28.9927 9.48384 28.662L22.6089 10.5603C22.7907 10.3112 22.8164 9.98115 22.677 9.70558C22.5368 9.43083 22.254 9.2578 21.9456 9.2578H18.4729L22.6489 2.24245C22.8012 1.98854 22.8052 1.67293 22.6594 1.41579Z" />
</svg>
