<svg width="30" height="30" viewBox="0 0 30 30" fill="none" xmlns="http://www.w3.org/2000/svg">
<path d="M25.6438 6.3472H20.4383V22.4982C20.4575 23.1635 20.206 23.8209 19.7148 24.3113L15.1512 28.8677H25.6438C26.0977 28.8677 26.4657 28.4997 26.4657 28.0458V7.16911C26.4657 6.71514 26.0977 6.3472 25.6438 6.3472Z" fill="#8494A1"/>
<path d="M11.6712 25.0319V28.037C11.6712 28.3694 11.8714 28.669 12.1783 28.7963C12.2801 28.8385 12.387 28.859 12.4929 28.859C12.7066 28.859 12.9167 28.7757 13.0739 28.6187L16.6663 25.0319H11.6712Z" fill="#8494A1"/>
<path d="M11.3972 8.53892C10.0225 8.53892 8.90406 9.65733 8.90406 11.0321C8.90406 11.6301 9.34099 12.7875 10.0443 14.0525C10.5884 15.0314 11.0887 15.7167 11.3972 16.069C11.7057 15.7167 12.206 15.0314 12.7501 14.0525C13.4535 12.7875 13.8903 11.6301 13.8903 11.0321C13.8903 9.65738 12.7719 8.53892 11.3972 8.53892ZM11.3973 11.854C10.9445 11.854 10.5753 11.4848 10.5753 11.0321C10.5753 10.5794 10.9445 10.2101 11.3973 10.2101C11.8499 10.2101 12.2192 10.5794 12.2192 11.0321C12.2192 11.4848 11.8499 11.854 11.3973 11.854Z" fill="#8494A1"/>
<path d="M18.7945 22.5662V1.68959C18.7945 1.23567 18.4265 0.867676 17.9726 0.867676H4.82192C4.368 0.867676 4 1.23567 4 1.68959V22.5662C4 23.0202 4.368 23.3882 4.82192 23.3882H17.9726C18.4265 23.3882 18.7945 23.0202 18.7945 22.5662ZM14.012 15.1589C12.4142 17.9087 11.6754 17.9087 11.3972 17.9087C11.1191 17.9087 10.3803 17.9087 8.78251 15.1589C8.32481 14.3713 7.26026 12.3924 7.26026 11.032C7.26026 8.75094 9.11609 6.89505 11.3972 6.89505C13.6784 6.89505 15.5342 8.75094 15.5342 11.032C15.5342 12.3924 14.4697 14.3713 14.012 15.1589Z" fill="#8494A1"/>
</svg>
