<svg width="30" height="30" viewBox="0 0 30 30" xmlns="http://www.w3.org/2000/svg">
<path d="M22.2734 17.3971V11.4821C22.2734 11.2251 22.3904 10.9879 22.5944 10.8314C22.7983 10.675 23.0577 10.6233 23.306 10.6898L24.9018 11.1172C25.7427 11.3424 26.6211 11.1677 27.3117 10.6377C28.0023 10.1077 28.3985 9.30443 28.3985 8.43386C28.3985 7.76552 28.1574 7.11944 27.7198 6.61446L25.5547 4.11633V1.68799C25.5547 1.23496 25.1874 0.867676 24.7344 0.867676H23.6406C22.5539 0.867676 21.6294 1.57577 21.3043 2.55479C20.2974 2.68997 19.3461 3.11643 18.5715 3.78892C17.6203 4.61481 16.9989 5.75647 16.8221 7.00362C16.8221 7.00362 16.3833 10.05 16.3672 10.0786V13.2271C16.3672 15.1871 14.7726 16.7817 12.8125 16.7817C10.8525 16.7817 9.25782 15.1871 9.25782 13.2271V10.2395C8.16161 10.3287 7.14775 10.7133 6.29567 11.313H5.10156C2.83996 11.313 1 13.153 1 15.4146V16.8364C1 17.2895 1.36728 17.6567 1.82031 17.6567C2.27334 17.6567 2.64063 17.2895 2.64063 16.8364V15.4146C2.64063 14.1987 3.52711 13.1866 4.68753 12.9892C4.08465 13.9261 3.73438 15.0403 3.73438 16.2349L3.73432 27.5005C3.73432 27.7181 3.82073 27.9267 3.97462 28.0805C4.1284 28.2344 4.33709 28.3208 4.55463 28.3208H6.46875C6.92178 28.3208 7.28907 27.9535 7.28907 27.5005V20.6933L9.57189 19.6591C10.6291 20.2773 11.8239 20.6017 13.0586 20.6017C14.2512 20.6017 15.4064 20.299 16.4364 19.7214L20.5234 22.9397V27.5005C20.5234 27.9535 20.8907 28.3208 21.3438 28.3208H23.2305C23.6835 28.3208 24.0508 27.9535 24.0508 27.5005V20.938C24.0508 20.8035 24.0177 20.671 23.9544 20.5523L22.2734 17.3971Z" />
<path d="M12.8125 15.1411C13.8679 15.1411 14.7266 14.2825 14.7266 13.2271V10.2192H10.8985V13.2271C10.8985 14.2825 11.7571 15.1411 12.8125 15.1411Z" />
<path d="M28.7598 17.4514L24.9163 13.6079C24.7624 13.4541 24.5538 13.3676 24.3362 13.3676H23.9141V16.9873L24.6502 18.3689L26.2462 19.9649C26.5666 20.2853 27.0859 20.2853 27.4063 19.9649L28.7598 18.6115C29.0801 18.2911 29.0801 17.7718 28.7598 17.4514Z" />
<path d="M8.92969 21.7512V27.5005C8.92969 27.9535 9.29698 28.3208 9.75001 28.3208H11.6641C12.1171 28.3208 12.4844 27.9535 12.4844 27.5005V22.2223C11.4609 22.1534 10.4583 21.9022 9.52727 21.4805L8.92969 21.7512Z" />
</svg>
