<svg width="30" height="30" viewBox="0 0 30 30"  xmlns="http://www.w3.org/2000/svg">
<path d="M1.32031 9.3125C0.866898 9.3125 0.5 9.6794 0.5 10.1328V19.9766C0.5 20.43 0.866898 20.7969 1.32031 20.7969C2.67733 20.7969 3.78125 19.693 3.78125 18.3359V11.7734C3.78125 10.4164 2.67733 9.3125 1.32031 9.3125Z" />
<path d="M25.8914 24.0781H22.9055C22.4132 24.9148 21.9375 25.8828 21.9375 26.5391C21.9375 27.9008 23.0367 29 24.3984 29C25.7602 29 26.8594 27.9008 26.8594 26.5391C26.8594 25.8828 26.3836 24.9148 25.8914 24.0781Z" />
<path d="M21.1172 10.9528H17.7278C15.5808 8.85876 11.8879 8.85876 9.74093 10.9528H5.42188V19.1559H9.74098C11.8879 21.25 15.5809 21.25 17.7278 19.1559H19.4766C19.9292 19.1559 20.2969 19.5236 20.2969 19.9762V21.6169C20.2969 22.0703 20.6638 22.4372 21.1172 22.4372H27.6797C28.1331 22.4372 28.5 22.0703 28.5 21.6169V18.3356C28.5 14.2645 25.1883 10.9528 21.1172 10.9528Z" />
<path d="M20.2969 1C19.9852 1 19.4661 1.14738 19.0236 1.39823C18.5349 1.67534 17.9799 1.82031 17.4181 1.82031H10.0507C9.48532 1.82031 8.93697 1.67703 8.44511 1.39823C8.00269 1.14738 7.48359 1 7.17188 1C5.81486 1 4.71094 2.10392 4.71094 3.46094C4.71094 4.81795 5.81486 5.92188 7.17188 5.92188C7.48261 5.92188 8.00088 5.77488 8.44298 5.52473C8.93429 5.24687 9.481 5.10156 10.0454 5.10156H12.0938V7.93815C12.6262 7.82259 13.1706 7.74237 13.7344 7.74237C14.2981 7.74237 14.8426 7.82259 15.375 7.93815V5.10156H17.4234C17.9842 5.10156 18.5376 5.24856 19.0258 5.52473C19.4679 5.77488 19.9861 5.92188 20.2969 5.92188C21.6539 5.92188 22.7578 4.81795 22.7578 3.46094C22.7578 2.10392 21.6539 1 20.2969 1Z" />
</svg>
