<svg width="30" height="30" viewBox="0 0 30 30" fill="none" xmlns="http://www.w3.org/2000/svg">
<path d="M15.4332 7.30345C14.5715 8.63028 13.1629 11.1311 12.8848 13.6584H17.9666C17.6909 11.126 16.2909 8.62913 15.4332 7.30345Z" fill="#8494A1"/>
<path d="M7.6256 13.658H11.1592C11.403 10.9947 12.7086 8.43545 13.679 6.85859C10.4612 7.5955 7.99064 10.3149 7.6256 13.658Z" fill="#8494A1"/>
<path d="M17.1838 6.85701C18.1491 8.43387 19.449 10.9937 19.6916 13.6582H23.2429C22.8779 10.3128 20.4045 7.59223 17.1838 6.85701Z" fill="#8494A1"/>
<path d="M12.8848 15.3746C13.1617 17.9063 14.5698 20.4044 15.4314 21.7289C16.2885 20.4021 17.6897 17.9012 17.9661 15.3746H12.8848Z" fill="#8494A1"/>
<path d="M11.1592 15.3746H7.6256C7.99064 18.7171 10.4612 21.4365 13.679 22.174C12.7086 20.5972 11.403 18.0379 11.1592 15.3746Z" fill="#8494A1"/>
<path d="M24.9852 4.88245C22.3962 2.29349 18.9541 0.867676 15.2924 0.867676C11.6311 0.867676 8.18911 2.29349 5.60009 4.88245C3.38645 7.09554 1.98755 10.0255 1.66084 13.1329C1.35361 16.056 2.00012 19.0243 3.48314 21.5389L1 28.8677L8.32873 26.3839C10.8433 27.8675 13.8111 28.5135 16.7342 28.2062C19.8415 27.8795 22.7715 26.4806 24.9852 24.2675C27.5742 21.6786 29 18.2359 29 14.5747C29 10.9135 27.5742 7.47146 24.9852 4.88245ZM15.4343 24.0885C10.1562 24.0885 5.86216 19.7945 5.86216 14.5164C5.86216 9.23825 10.1562 4.94425 15.4343 4.94425C20.7124 4.94425 25.0064 9.23825 25.0064 14.5164C25.0064 19.7945 20.7124 24.0885 15.4343 24.0885Z" fill="#8494A1"/>
<path d="M19.6916 15.3746C19.449 18.0385 18.1491 20.5989 17.1838 22.1752C20.4045 21.44 22.8779 18.7194 23.2429 15.3746H19.6916Z" fill="#8494A1"/>
</svg>
