<svg width="30" height="30" viewBox="0 0 30 30" xmlns="http://www.w3.org/2000/svg">
<path d="M14.9986 0.867676C7.27988 0.867676 1 7.14871 1 14.8683C1 22.5873 7.27997 28.8677 14.9986 28.8677C22.7179 28.8677 28.9979 22.5873 28.9979 14.8683C28.9979 7.14871 22.7184 0.867676 14.9986 0.867676ZM21.4245 16.6127H16.3159V21.2937C16.3159 21.9508 15.8856 22.4824 15.2277 22.4824C14.5711 22.4824 14.1397 21.9501 14.1397 21.2937V16.6127H8.57446C7.91629 16.6127 7.38427 16.1824 7.38427 15.5247C7.38427 14.8671 7.91629 14.4365 8.57446 14.4365H14.1396V8.44161C14.1396 7.78397 14.571 7.2515 15.2276 7.2515C15.8855 7.2515 16.3158 7.78406 16.3158 8.44161V14.4366H21.4244C22.0825 14.4366 22.6148 14.8672 22.6148 15.5248C22.6148 16.1825 22.0826 16.6127 21.4245 16.6127Z" />
</svg>
