<svg width="30" height="30" viewBox="0 0 30 30" fill="none" xmlns="http://www.w3.org/2000/svg">
<path fill-rule="evenodd" clip-rule="evenodd" d="M22.7863 9.4C22.7863 4.766 19.1059 1 14.5772 1C10.0485 1 6.3681 4.766 6.3681 9.4C6.3681 15.7 14.5772 24.8 14.5772 24.8C14.5772 24.8 22.7863 15.7 22.7863 9.4ZM11.8409 9.4C11.8409 7.86 13.0722 6.6 14.5772 6.6C16.0822 6.6 17.3136 7.86 17.3136 9.4C17.3136 10.94 16.0959 12.2 14.5772 12.2C13.0722 12.2 11.8409 10.94 11.8409 9.4Z" fill="#8494A1"/>
<path d="M24.1545 29H5V26.2H24.1545V29Z" fill="#8494A1"/>
</svg>
