<svg width="30" height="30" viewBox="0 0 30 30" xmlns="http://www.w3.org/2000/svg">
<path fill-rule="evenodd" clip-rule="evenodd" d="M25.163 5.68222C24.8595 4.76444 24.0095 4.11033 23.0078 4.11033H19.2133V1H10.1067V4.11033H6.31222C5.31049 4.11033 4.47571 4.76444 4.15698 5.68222L1 15V27.4437C1 28.3 1.683 29 2.51778 29H4.03556C4.87033 29 5.55333 28.3 5.55333 27.4437V25.8881H23.7667V27.4437C23.7667 28.3 24.4497 29 25.2844 29H26.8022C27.637 29 28.32 28.3 28.32 27.4437V15L25.163 5.68222ZM6.31226 21.2215C5.05251 21.2215 4.03559 20.18 4.03559 18.8882C4.03559 17.5978 5.05251 16.5548 6.31226 16.5548C7.57202 16.5548 8.58893 17.5978 8.58893 18.8882C8.58893 20.18 7.57202 21.2215 6.31226 21.2215ZM23.0077 21.2215C21.7479 21.2215 20.731 20.18 20.731 18.8882C20.731 17.5978 21.7479 16.5548 23.0077 16.5548C24.2674 16.5548 25.2843 17.5978 25.2843 18.8882C25.2843 20.18 24.2674 21.2215 23.0077 21.2215ZM4.03559 13.4438L6.31226 6.44376H23.0078L25.2845 13.4438H4.03559Z" />
</svg>
