<svg width="30" height="30" viewBox="0 0 30 30" xmlns="http://www.w3.org/2000/svg">
<path d="M21.0531 1.06543C21.4218 1.12198 21.7111 1.41128 21.7676 1.77993C21.7871 1.90762 22.2272 4.92636 20.5311 6.62249C19.4301 7.72357 17.7714 7.92438 16.7083 7.92438C16.1338 7.92438 15.7334 7.86576 15.6886 7.85892C15.32 7.80237 15.0306 7.51308 14.9741 7.14443C14.9546 7.01674 14.5145 3.99805 16.2106 2.30192C17.9066 0.605733 20.9255 1.04597 21.0531 1.06543Z" />
<path d="M14.7291 9.83048C16.3735 8.84152 18.2939 8.50218 20.1982 8.87515C24.3908 9.69623 27.1338 13.7751 26.3129 17.9677C25.8988 20.0824 24.5732 22.9581 23.0143 25.1235C22.1032 26.389 21.1603 27.3642 20.2118 28.0222C19.0272 28.8439 17.8625 29.15 16.75 28.9322C16.6219 28.9072 16.4925 28.8762 16.3655 28.8403C15.2949 28.5375 14.1633 28.5375 13.0927 28.8403C12.9658 28.8762 12.8364 28.9072 12.7081 28.9322C12.4766 28.9776 12.2427 29.0002 12.0069 29.0002C11.11 29.0003 10.1845 28.6728 9.24648 28.0221C8.29787 27.3642 7.35501 26.3889 6.44391 25.1234C4.88499 22.958 3.55932 20.0823 3.14522 17.9677C2.32431 13.7751 5.06732 9.69623 9.25993 8.87515C11.1642 8.50224 13.0847 8.84141 14.7291 9.83048Z" />
</svg>
