<svg width="30" height="30" viewBox="0 0 30 30" fill="none" xmlns="http://www.w3.org/2000/svg">
<path d="M12.552 21.1843C11.4765 22.26 11.4765 24.0049 12.552 25.0806C13.6282 26.1561 15.3728 26.1561 16.4488 25.0806C17.5243 24.0049 17.5243 22.26 16.4488 21.1843C15.3728 20.1086 13.6282 20.1086 12.552 21.1843Z" fill="#8494A1"/>
<path d="M14.5005 14.6322C12.2306 14.6322 10.0952 15.5163 8.49097 17.1221C7.86076 17.7521 7.86076 18.773 8.49097 19.4026C9.12067 20.0325 10.1412 20.0325 10.7714 19.4026C11.7664 18.4061 13.0912 17.8576 14.5005 17.8576C15.9098 17.8576 17.2346 18.4061 18.2296 19.4026C18.545 19.7175 18.9586 19.875 19.3701 19.875C19.7838 19.875 20.1952 19.7175 20.5101 19.4026C21.1403 18.773 21.1403 17.7521 20.5101 17.1221C18.9058 15.5163 16.7704 14.6322 14.5005 14.6322Z" fill="#8494A1"/>
<path d="M14.5005 9.32199C10.8114 9.32199 7.34327 10.7587 4.73521 13.3671C4.10551 13.997 4.10551 15.0182 4.73521 15.6476C5.36537 16.2775 6.38647 16.2775 7.01561 15.6476C9.01449 13.6481 11.6731 12.5472 14.5004 12.5472C17.3266 12.5472 19.9852 13.6481 21.9842 15.6476C22.299 15.9626 22.7127 16.1201 23.1241 16.1201C23.5378 16.1201 23.9498 15.9626 24.2646 15.6476C24.8943 15.0182 24.8943 13.997 24.2646 13.3671C21.6566 10.7587 18.1896 9.32199 14.5005 9.32199Z" fill="#8494A1"/>
<path d="M28.0287 9.60429C24.4157 5.99004 19.6116 4 14.5005 4C9.38934 4 4.58528 5.99004 0.972274 9.60429C0.342575 10.2343 0.342575 11.2554 0.972274 11.8848C1.28763 12.1998 1.70019 12.3571 2.11275 12.3571C2.52531 12.3571 2.93901 12.1998 3.25272 11.8848C6.25661 8.87983 10.2517 7.22522 14.5005 7.22522C18.7493 7.22522 22.7432 8.87983 25.7472 11.8848C26.3768 12.5147 27.3974 12.5142 28.0277 11.8854C28.6573 11.2554 28.6573 10.2343 28.0287 9.60429Z" fill="#8494A1"/>
</svg>
