<svg width="16" height="11" viewBox="0 0 16 11" fill="none" xmlns="http://www.w3.org/2000/svg">
<g clip-path="url(#clip0_1328_1202)">
<path fill-rule="evenodd" clip-rule="evenodd" d="M0 9.50648H16V0.950928H0V9.50648Z" fill="#FDCD53">
<path fill-rule="evenodd" clip-rule="evenodd" d="M3.55543 3.80233C3.056 4.257 2.74286 4.27656 2.22229 4.27656V6.10561C2.22229 6.83344 2.69657 7.02594 3.55543 7.60467C4.41429 7.02594 4.88914 6.83344 4.88914 6.10561V4.27656C4.368 4.27656 4.05486 4.257 3.55543 3.80233ZM0.571429 0H15.4286C15.5801 0 15.7255 0.0643847 15.8326 0.17899C15.9398 0.293596 16 0.449034 16 0.611111V2.85206H0V0.611111C0 0.449034 0.0602039 0.293596 0.167368 0.17899C0.274531 0.0643847 0.419876 0 0.571429 0V0ZM0.571429 10.9322H15.4286C15.5801 10.9322 15.7255 10.8678 15.8326 10.7532C15.9398 10.6386 16 10.4831 16 10.3211V8.08011H0V10.3211C0 10.4831 0.0602039 10.6386 0.167368 10.7532C0.274531 10.8678 0.419876 10.9322 0.571429 10.9322Z" fill="#DD243E">
</g>
<defs>
<clipPath id="clip0_1328_1202">
<rect width="16" height="11" fill="white">
</clipPath>
</defs>
</svg>
