<svg width="16" height="16" viewBox="0 0 16 16" fill="none" xmlns="http://www.w3.org/2000/svg">
<path d="M8.39533 15.5053L8.388 15.5067L8.34067 15.53L8.32733 15.5327L8.318 15.53L8.27067 15.5067C8.26356 15.5044 8.25822 15.5056 8.25467 15.51L8.252 15.5167L8.24067 15.802L8.244 15.8153L8.25067 15.824L8.32 15.8733L8.33 15.876L8.338 15.8733L8.40733 15.824L8.41533 15.8133L8.418 15.802L8.40667 15.5173C8.40489 15.5102 8.40111 15.5062 8.39533 15.5053ZM8.572 15.43L8.56333 15.4313L8.44 15.4933L8.43333 15.5L8.43133 15.5073L8.44333 15.794L8.44667 15.802L8.452 15.8067L8.586 15.8687C8.59444 15.8709 8.60089 15.8691 8.60533 15.8633L8.608 15.854L8.58533 15.4447C8.58311 15.4367 8.57867 15.4318 8.572 15.43ZM8.09533 15.4313C8.0924 15.4296 8.08888 15.429 8.08553 15.4297C8.08218 15.4305 8.07924 15.4325 8.07733 15.4353L8.07333 15.4447L8.05067 15.854C8.05111 15.862 8.05489 15.8673 8.062 15.87L8.072 15.8687L8.206 15.8067L8.21267 15.8013L8.21533 15.794L8.22667 15.5073L8.22467 15.4993L8.218 15.4927L8.09533 15.4313Z" fill="#3DABF7"/>
<path d="M14 8V12.6667C14 13.0203 13.8595 13.3594 13.6095 13.6095C13.3594 13.8595 13.0203 14 12.6667 14H3.33333C2.97971 14 2.64057 13.8595 2.39052 13.6095C2.14048 13.3594 2 13.0203 2 12.6667V8H14ZM10.6667 2C10.8435 2 11.013 2.07024 11.1381 2.19526C11.2631 2.32029 11.3333 2.48986 11.3333 2.66667V3.33333H12.6667C13.0203 3.33333 13.3594 3.47381 13.6095 3.72386C13.8595 3.97391 14 4.31304 14 4.66667V6.66667H2V4.66667C2 4.31304 2.14048 3.97391 2.39052 3.72386C2.64057 3.47381 2.97971 3.33333 3.33333 3.33333H4.66667V2.66667C4.66667 2.48986 4.7369 2.32029 4.86193 2.19526C4.98695 2.07024 5.15652 2 5.33333 2C5.51014 2 5.67971 2.07024 5.80474 2.19526C5.92976 2.32029 6 2.48986 6 2.66667V3.33333H10V2.66667C10 2.48986 10.0702 2.32029 10.1953 2.19526C10.3203 2.07024 10.4899 2 10.6667 2Z" fill="#3DABF7"/>
</svg>
