<svg width="21" height="20" viewBox="0 0 21 20" fill="#8494A1" xmlns="http://www.w3.org/2000/svg">
<path fill-rule="evenodd" clip-rule="evenodd" d="M10.3334 1C5.36337 1 1.33337 5.03 1.33337 10C1.33337 14.97 5.36337 19 10.3334 19C11.1634 19 11.8334 18.33 11.8334 17.5C11.8334 17.11 11.6834 16.76 11.4434 16.49C11.2134 16.23 11.0634 15.88 11.0634 15.5C11.0634 14.67 11.7334 14 12.5634 14H14.3334C17.0934 14 19.3334 11.76 19.3334 9C19.3334 4.58 15.3034 1 10.3334 1ZM4.83337 10C4.00337 10 3.33337 9.33 3.33337 8.5C3.33337 7.67 4.00337 7 4.83337 7C5.66337 7 6.33337 7.67 6.33337 8.5C6.33337 9.33 5.66337 10 4.83337 10ZM7.83337 6C7.00337 6 6.33337 5.33 6.33337 4.5C6.33337 3.67 7.00337 3 7.83337 3C8.66337 3 9.33337 3.67 9.33337 4.5C9.33337 5.33 8.66337 6 7.83337 6ZM12.8334 6C12.0034 6 11.3334 5.33 11.3334 4.5C11.3334 3.67 12.0034 3 12.8334 3C13.6634 3 14.3334 3.67 14.3334 4.5C14.3334 5.33 13.6634 6 12.8334 6ZM15.8334 10C15.0034 10 14.3334 9.33 14.3334 8.5C14.3334 7.67 15.0034 7 15.8334 7C16.6634 7 17.3334 7.67 17.3334 8.5C17.3334 9.33 16.6634 10 15.8334 10Z" />
</svg>
