<svg width="20" height="20" viewBox="0 0 20 20" fill="none" xmlns="http://www.w3.org/2000/svg">
<path fill-rule="evenodd" clip-rule="evenodd" d="M16.92 4.01C16.72 3.42 16.16 2.9995 15.5 2.9995H13V1H7V2.9995H4.5C3.84 2.9995 3.29 3.42 3.08 4.01L1 10V17.9995C1 18.55 1.45 19 2 19H3C3.55 19 4 18.55 4 17.9995V16.9995H16V17.9995C16 18.55 16.45 19 17 19H18C18.55 19 19 18.55 19 17.9995V10L16.92 4.01ZM4.5 13.9995C3.67 13.9995 3 13.33 3 12.4995C3 11.67 3.67 10.9995 4.5 10.9995C5.33 10.9995 6 11.67 6 12.4995C6 13.33 5.33 13.9995 4.5 13.9995ZM15.5 13.9995C14.67 13.9995 14 13.33 14 12.4995C14 11.67 14.67 10.9995 15.5 10.9995C16.33 10.9995 17 11.67 17 12.4995C17 13.33 16.33 13.9995 15.5 13.9995ZM3 8.9995L4.5 4.4995H15.5L17 8.9995H3Z" fill="#8494A1"/>
</svg>
