<svg width="21" height="20" viewBox="0 0 21 20" fill="none" xmlns="http://www.w3.org/2000/svg">
<path fill-rule="evenodd" clip-rule="evenodd" d="M10.2382 20C14.9715 20 18.8096 16.1619 18.8096 11.4286C14.0763 11.4286 10.2382 15.2667 10.2382 20ZM4.14294 8.80952C4.14294 10.1238 5.20961 11.1905 6.52389 11.1905C7.02865 11.1905 7.4858 11.0381 7.87627 10.7714L7.85722 10.9524C7.85722 12.2667 8.92389 13.3333 10.2382 13.3333C11.5525 13.3333 12.6191 12.2667 12.6191 10.9524L12.6001 10.7714C12.981 11.0381 13.4477 11.1905 13.9525 11.1905C15.2667 11.1905 16.3334 10.1238 16.3334 8.80952C16.3334 7.85714 15.7715 7.04762 14.9715 6.66667C15.7715 6.28571 16.3334 5.47619 16.3334 4.52381C16.3334 3.20952 15.2667 2.14286 13.9525 2.14286C13.4477 2.14286 12.9906 2.29524 12.6001 2.5619L12.6191 2.38095C12.6191 1.06667 11.5525 0 10.2382 0C8.92389 0 7.85722 1.06667 7.85722 2.38095L7.87627 2.5619C7.49532 2.29524 7.02865 2.14286 6.52389 2.14286C5.20961 2.14286 4.14294 3.20952 4.14294 4.52381C4.14294 5.47619 4.70484 6.28571 5.50484 6.66667C4.70484 7.04762 4.14294 7.85714 4.14294 8.80952ZM10.2382 4.28571C11.5525 4.28571 12.6191 5.35238 12.6191 6.66667C12.6191 7.98095 11.5525 9.04762 10.2382 9.04762C8.92389 9.04762 7.85722 7.98095 7.85722 6.66667C7.85722 5.35238 8.92389 4.28571 10.2382 4.28571ZM1.66675 11.4286C1.66675 16.1619 5.50484 20 10.2382 20C10.2382 15.2667 6.40008 11.4286 1.66675 11.4286Z" fill="#8494A1"/>
</svg>
