<svg width="21" height="20" viewBox="0 0 21 20" fill="none" xmlns="http://www.w3.org/2000/svg">
<path fill-rule="evenodd" clip-rule="evenodd" d="M10.6667 8.12C12.257 8.12 13.5467 9.40925 13.5467 11C13.5467 12.5903 12.257 13.88 10.6667 13.88C9.076 13.88 7.78675 12.5903 7.78675 11C7.78675 9.40925 9.076 8.12 10.6667 8.12Z" fill="#8494A1"/>
<path fill-rule="evenodd" clip-rule="evenodd" d="M7.96675 2L6.31975 3.8H3.46675C2.47675 3.8 1.66675 4.61 1.66675 5.6V16.4C1.66675 17.39 2.47675 18.2 3.46675 18.2H17.8667C18.8567 18.2 19.6667 17.39 19.6667 16.4V5.6C19.6667 4.61 18.8567 3.8 17.8667 3.8H15.0137L13.3667 2H7.96675ZM10.6667 15.5C8.18275 15.5 6.16675 13.484 6.16675 11C6.16675 8.516 8.18275 6.5 10.6667 6.5C13.1507 6.5 15.1667 8.516 15.1667 11C15.1667 13.484 13.1507 15.5 10.6667 15.5Z" fill="#8494A1"/>
<path fill-rule="evenodd" clip-rule="evenodd" d="M10.6667 8.12C12.257 8.12 13.5467 9.40925 13.5467 11C13.5467 12.5903 12.257 13.88 10.6667 13.88C9.076 13.88 7.78675 12.5903 7.78675 11C7.78675 9.40925 9.076 8.12 10.6667 8.12Z" stroke="#8494A1"/>
<path fill-rule="evenodd" clip-rule="evenodd" d="M7.96675 2L6.31975 3.8H3.46675C2.47675 3.8 1.66675 4.61 1.66675 5.6V16.4C1.66675 17.39 2.47675 18.2 3.46675 18.2H17.8667C18.8567 18.2 19.6667 17.39 19.6667 16.4V5.6C19.6667 4.61 18.8567 3.8 17.8667 3.8H15.0137L13.3667 2H7.96675ZM10.6667 15.5C8.18275 15.5 6.16675 13.484 6.16675 11C6.16675 8.516 8.18275 6.5 10.6667 6.5C13.1507 6.5 15.1667 8.516 15.1667 11C15.1667 13.484 13.1507 15.5 10.6667 15.5Z" stroke="#8494A1"/>
</svg>
