<svg width="21" height="20" viewBox="0 0 21 20" fill="none" xmlns="http://www.w3.org/2000/svg">
<path fill-rule="evenodd" clip-rule="evenodd" d="M13.9697 9.45455C15.4788 9.45455 16.6879 8.23636 16.6879 6.72727C16.6879 5.21818 15.4788 4 13.9697 4C12.4606 4 11.2425 5.21818 11.2425 6.72727C11.2425 8.23636 12.4606 9.45455 13.9697 9.45455ZM6.69746 9.45455C8.20656 9.45455 9.41519 8.23636 9.41519 6.72727C9.41519 5.21818 8.20656 4 6.69746 4C5.18837 4 3.97019 5.21818 3.97019 6.72727C3.97019 8.23636 5.18837 9.45455 6.69746 9.45455ZM6.69746 11.2727C4.57928 11.2727 0.333374 12.3364 0.333374 14.4545V16.7273H13.0606V14.4545C13.0606 12.3364 8.81519 11.2727 6.69746 11.2727ZM13.9697 11.2727C13.7061 11.2727 13.4061 11.2909 13.0879 11.3182C14.1425 12.0818 14.8788 13.1091 14.8788 14.4545V16.7273H20.3334V14.4545C20.3334 12.3364 16.0879 11.2727 13.9697 11.2727Z" fill="#8494A1"/>
</svg>
