<svg width="21" height="20" viewBox="0 0 21 20" fill="#8494A1" xmlns="http://www.w3.org/2000/svg">
<path fill-rule="evenodd" clip-rule="evenodd" d="M19.2367 12.86L20.6667 11.43L19.2367 10L15.6667 13.57L7.09675 5L10.6667 1.43L9.23675 0L7.80675 1.43L6.37675 0L4.23675 2.14L2.80675 0.71L1.37675 2.14L2.80675 3.57L0.666748 5.71L2.09675 7.14L0.666748 8.57L2.09675 10L5.66675 6.43L14.2367 15L10.6667 18.57L12.0967 20L13.5267 18.57L14.9567 20L17.0967 17.86L18.5267 19.29L19.9567 17.86L18.5267 16.43L20.6667 14.29L19.2367 12.86Z" />
</svg>
